G04 #@! TF.GenerationSoftware,KiCad,Pcbnew,7.0.1*
G04 #@! TF.CreationDate,2023-04-20T12:55:15+02:00*
G04 #@! TF.ProjectId,MPU,4d50552e-6b69-4636-9164-5f7063625858,version_01*
G04 #@! TF.SameCoordinates,Original*
G04 #@! TF.FileFunction,Legend,Top*
G04 #@! TF.FilePolarity,Positive*
%FSLAX46Y46*%
G04 Gerber Fmt 4.6, Leading zero omitted, Abs format (unit mm)*
G04 Created by KiCad (PCBNEW 7.0.1) date 2023-04-20 12:55:15*
%MOMM*%
%LPD*%
G01*
G04 APERTURE LIST*
%ADD10C,0.254000*%
%ADD11C,0.150000*%
%ADD12C,0.230000*%
%ADD13C,0.200000*%
%ADD14C,0.120000*%
%ADD15C,0.127000*%
G04 APERTURE END LIST*
D10*
X79334047Y-72417526D02*
X79334047Y-73445621D01*
X79334047Y-73445621D02*
X79394524Y-73566573D01*
X79394524Y-73566573D02*
X79455000Y-73627050D01*
X79455000Y-73627050D02*
X79575952Y-73687526D01*
X79575952Y-73687526D02*
X79817857Y-73687526D01*
X79817857Y-73687526D02*
X79938809Y-73627050D01*
X79938809Y-73627050D02*
X79999286Y-73566573D01*
X79999286Y-73566573D02*
X80059762Y-73445621D01*
X80059762Y-73445621D02*
X80059762Y-72417526D01*
X80483095Y-72417526D02*
X81208809Y-72417526D01*
X80845952Y-73687526D02*
X80845952Y-72417526D01*
X81511190Y-72417526D02*
X82297381Y-72417526D01*
X82297381Y-72417526D02*
X81874047Y-72901335D01*
X81874047Y-72901335D02*
X82055476Y-72901335D01*
X82055476Y-72901335D02*
X82176428Y-72961811D01*
X82176428Y-72961811D02*
X82236904Y-73022288D01*
X82236904Y-73022288D02*
X82297381Y-73143240D01*
X82297381Y-73143240D02*
X82297381Y-73445621D01*
X82297381Y-73445621D02*
X82236904Y-73566573D01*
X82236904Y-73566573D02*
X82176428Y-73627050D01*
X82176428Y-73627050D02*
X82055476Y-73687526D01*
X82055476Y-73687526D02*
X81692619Y-73687526D01*
X81692619Y-73687526D02*
X81571666Y-73627050D01*
X81571666Y-73627050D02*
X81511190Y-73566573D01*
X83748809Y-73627050D02*
X83930238Y-73687526D01*
X83930238Y-73687526D02*
X84232619Y-73687526D01*
X84232619Y-73687526D02*
X84353571Y-73627050D01*
X84353571Y-73627050D02*
X84414047Y-73566573D01*
X84414047Y-73566573D02*
X84474524Y-73445621D01*
X84474524Y-73445621D02*
X84474524Y-73324669D01*
X84474524Y-73324669D02*
X84414047Y-73203716D01*
X84414047Y-73203716D02*
X84353571Y-73143240D01*
X84353571Y-73143240D02*
X84232619Y-73082764D01*
X84232619Y-73082764D02*
X83990714Y-73022288D01*
X83990714Y-73022288D02*
X83869762Y-72961811D01*
X83869762Y-72961811D02*
X83809285Y-72901335D01*
X83809285Y-72901335D02*
X83748809Y-72780383D01*
X83748809Y-72780383D02*
X83748809Y-72659430D01*
X83748809Y-72659430D02*
X83809285Y-72538478D01*
X83809285Y-72538478D02*
X83869762Y-72478002D01*
X83869762Y-72478002D02*
X83990714Y-72417526D01*
X83990714Y-72417526D02*
X84293095Y-72417526D01*
X84293095Y-72417526D02*
X84474524Y-72478002D01*
X85018809Y-73022288D02*
X85442143Y-73022288D01*
X85623571Y-73687526D02*
X85018809Y-73687526D01*
X85018809Y-73687526D02*
X85018809Y-72417526D01*
X85018809Y-72417526D02*
X85623571Y-72417526D01*
X86893572Y-73566573D02*
X86833096Y-73627050D01*
X86833096Y-73627050D02*
X86651667Y-73687526D01*
X86651667Y-73687526D02*
X86530715Y-73687526D01*
X86530715Y-73687526D02*
X86349286Y-73627050D01*
X86349286Y-73627050D02*
X86228334Y-73506097D01*
X86228334Y-73506097D02*
X86167857Y-73385145D01*
X86167857Y-73385145D02*
X86107381Y-73143240D01*
X86107381Y-73143240D02*
X86107381Y-72961811D01*
X86107381Y-72961811D02*
X86167857Y-72719907D01*
X86167857Y-72719907D02*
X86228334Y-72598954D01*
X86228334Y-72598954D02*
X86349286Y-72478002D01*
X86349286Y-72478002D02*
X86530715Y-72417526D01*
X86530715Y-72417526D02*
X86651667Y-72417526D01*
X86651667Y-72417526D02*
X86833096Y-72478002D01*
X86833096Y-72478002D02*
X86893572Y-72538478D01*
X87437857Y-73687526D02*
X87437857Y-72417526D01*
X88647381Y-73687526D02*
X88042619Y-73687526D01*
X88042619Y-73687526D02*
X88042619Y-72417526D01*
D11*
X90038095Y-50462619D02*
X90038095Y-51272142D01*
X90038095Y-51272142D02*
X90085714Y-51367380D01*
X90085714Y-51367380D02*
X90133333Y-51415000D01*
X90133333Y-51415000D02*
X90228571Y-51462619D01*
X90228571Y-51462619D02*
X90419047Y-51462619D01*
X90419047Y-51462619D02*
X90514285Y-51415000D01*
X90514285Y-51415000D02*
X90561904Y-51367380D01*
X90561904Y-51367380D02*
X90609523Y-51272142D01*
X90609523Y-51272142D02*
X90609523Y-50462619D01*
X91609523Y-51462619D02*
X91038095Y-51462619D01*
X91323809Y-51462619D02*
X91323809Y-50462619D01*
X91323809Y-50462619D02*
X91228571Y-50605476D01*
X91228571Y-50605476D02*
X91133333Y-50700714D01*
X91133333Y-50700714D02*
X91038095Y-50748333D01*
D12*
X77400000Y-67755142D02*
X77000000Y-67183714D01*
X76714286Y-67755142D02*
X76714286Y-66555142D01*
X76714286Y-66555142D02*
X77171429Y-66555142D01*
X77171429Y-66555142D02*
X77285714Y-66612285D01*
X77285714Y-66612285D02*
X77342857Y-66669428D01*
X77342857Y-66669428D02*
X77400000Y-66783714D01*
X77400000Y-66783714D02*
X77400000Y-66955142D01*
X77400000Y-66955142D02*
X77342857Y-67069428D01*
X77342857Y-67069428D02*
X77285714Y-67126571D01*
X77285714Y-67126571D02*
X77171429Y-67183714D01*
X77171429Y-67183714D02*
X76714286Y-67183714D01*
X78085714Y-67069428D02*
X77971429Y-67012285D01*
X77971429Y-67012285D02*
X77914286Y-66955142D01*
X77914286Y-66955142D02*
X77857143Y-66840857D01*
X77857143Y-66840857D02*
X77857143Y-66783714D01*
X77857143Y-66783714D02*
X77914286Y-66669428D01*
X77914286Y-66669428D02*
X77971429Y-66612285D01*
X77971429Y-66612285D02*
X78085714Y-66555142D01*
X78085714Y-66555142D02*
X78314286Y-66555142D01*
X78314286Y-66555142D02*
X78428572Y-66612285D01*
X78428572Y-66612285D02*
X78485714Y-66669428D01*
X78485714Y-66669428D02*
X78542857Y-66783714D01*
X78542857Y-66783714D02*
X78542857Y-66840857D01*
X78542857Y-66840857D02*
X78485714Y-66955142D01*
X78485714Y-66955142D02*
X78428572Y-67012285D01*
X78428572Y-67012285D02*
X78314286Y-67069428D01*
X78314286Y-67069428D02*
X78085714Y-67069428D01*
X78085714Y-67069428D02*
X77971429Y-67126571D01*
X77971429Y-67126571D02*
X77914286Y-67183714D01*
X77914286Y-67183714D02*
X77857143Y-67298000D01*
X77857143Y-67298000D02*
X77857143Y-67526571D01*
X77857143Y-67526571D02*
X77914286Y-67640857D01*
X77914286Y-67640857D02*
X77971429Y-67698000D01*
X77971429Y-67698000D02*
X78085714Y-67755142D01*
X78085714Y-67755142D02*
X78314286Y-67755142D01*
X78314286Y-67755142D02*
X78428572Y-67698000D01*
X78428572Y-67698000D02*
X78485714Y-67640857D01*
X78485714Y-67640857D02*
X78542857Y-67526571D01*
X78542857Y-67526571D02*
X78542857Y-67298000D01*
X78542857Y-67298000D02*
X78485714Y-67183714D01*
X78485714Y-67183714D02*
X78428572Y-67126571D01*
X78428572Y-67126571D02*
X78314286Y-67069428D01*
D10*
X78588333Y-51466573D02*
X78527857Y-51527050D01*
X78527857Y-51527050D02*
X78346428Y-51587526D01*
X78346428Y-51587526D02*
X78225476Y-51587526D01*
X78225476Y-51587526D02*
X78044047Y-51527050D01*
X78044047Y-51527050D02*
X77923095Y-51406097D01*
X77923095Y-51406097D02*
X77862618Y-51285145D01*
X77862618Y-51285145D02*
X77802142Y-51043240D01*
X77802142Y-51043240D02*
X77802142Y-50861811D01*
X77802142Y-50861811D02*
X77862618Y-50619907D01*
X77862618Y-50619907D02*
X77923095Y-50498954D01*
X77923095Y-50498954D02*
X78044047Y-50378002D01*
X78044047Y-50378002D02*
X78225476Y-50317526D01*
X78225476Y-50317526D02*
X78346428Y-50317526D01*
X78346428Y-50317526D02*
X78527857Y-50378002D01*
X78527857Y-50378002D02*
X78588333Y-50438478D01*
X79797857Y-51587526D02*
X79072142Y-51587526D01*
X79434999Y-51587526D02*
X79434999Y-50317526D01*
X79434999Y-50317526D02*
X79314047Y-50498954D01*
X79314047Y-50498954D02*
X79193095Y-50619907D01*
X79193095Y-50619907D02*
X79072142Y-50680383D01*
D12*
X84000000Y-70355142D02*
X83600000Y-69783714D01*
X83314286Y-70355142D02*
X83314286Y-69155142D01*
X83314286Y-69155142D02*
X83771429Y-69155142D01*
X83771429Y-69155142D02*
X83885714Y-69212285D01*
X83885714Y-69212285D02*
X83942857Y-69269428D01*
X83942857Y-69269428D02*
X84000000Y-69383714D01*
X84000000Y-69383714D02*
X84000000Y-69555142D01*
X84000000Y-69555142D02*
X83942857Y-69669428D01*
X83942857Y-69669428D02*
X83885714Y-69726571D01*
X83885714Y-69726571D02*
X83771429Y-69783714D01*
X83771429Y-69783714D02*
X83314286Y-69783714D01*
X84571429Y-70355142D02*
X84800000Y-70355142D01*
X84800000Y-70355142D02*
X84914286Y-70298000D01*
X84914286Y-70298000D02*
X84971429Y-70240857D01*
X84971429Y-70240857D02*
X85085714Y-70069428D01*
X85085714Y-70069428D02*
X85142857Y-69840857D01*
X85142857Y-69840857D02*
X85142857Y-69383714D01*
X85142857Y-69383714D02*
X85085714Y-69269428D01*
X85085714Y-69269428D02*
X85028572Y-69212285D01*
X85028572Y-69212285D02*
X84914286Y-69155142D01*
X84914286Y-69155142D02*
X84685714Y-69155142D01*
X84685714Y-69155142D02*
X84571429Y-69212285D01*
X84571429Y-69212285D02*
X84514286Y-69269428D01*
X84514286Y-69269428D02*
X84457143Y-69383714D01*
X84457143Y-69383714D02*
X84457143Y-69669428D01*
X84457143Y-69669428D02*
X84514286Y-69783714D01*
X84514286Y-69783714D02*
X84571429Y-69840857D01*
X84571429Y-69840857D02*
X84685714Y-69898000D01*
X84685714Y-69898000D02*
X84914286Y-69898000D01*
X84914286Y-69898000D02*
X85028572Y-69840857D01*
X85028572Y-69840857D02*
X85085714Y-69783714D01*
X85085714Y-69783714D02*
X85142857Y-69669428D01*
D13*
X88063333Y-65767380D02*
X88015714Y-65815000D01*
X88015714Y-65815000D02*
X87872857Y-65862619D01*
X87872857Y-65862619D02*
X87777619Y-65862619D01*
X87777619Y-65862619D02*
X87634762Y-65815000D01*
X87634762Y-65815000D02*
X87539524Y-65719761D01*
X87539524Y-65719761D02*
X87491905Y-65624523D01*
X87491905Y-65624523D02*
X87444286Y-65434047D01*
X87444286Y-65434047D02*
X87444286Y-65291190D01*
X87444286Y-65291190D02*
X87491905Y-65100714D01*
X87491905Y-65100714D02*
X87539524Y-65005476D01*
X87539524Y-65005476D02*
X87634762Y-64910238D01*
X87634762Y-64910238D02*
X87777619Y-64862619D01*
X87777619Y-64862619D02*
X87872857Y-64862619D01*
X87872857Y-64862619D02*
X88015714Y-64910238D01*
X88015714Y-64910238D02*
X88063333Y-64957857D01*
X88444286Y-64957857D02*
X88491905Y-64910238D01*
X88491905Y-64910238D02*
X88587143Y-64862619D01*
X88587143Y-64862619D02*
X88825238Y-64862619D01*
X88825238Y-64862619D02*
X88920476Y-64910238D01*
X88920476Y-64910238D02*
X88968095Y-64957857D01*
X88968095Y-64957857D02*
X89015714Y-65053095D01*
X89015714Y-65053095D02*
X89015714Y-65148333D01*
X89015714Y-65148333D02*
X88968095Y-65291190D01*
X88968095Y-65291190D02*
X88396667Y-65862619D01*
X88396667Y-65862619D02*
X89015714Y-65862619D01*
D10*
X84188333Y-64866573D02*
X84127857Y-64927050D01*
X84127857Y-64927050D02*
X83946428Y-64987526D01*
X83946428Y-64987526D02*
X83825476Y-64987526D01*
X83825476Y-64987526D02*
X83644047Y-64927050D01*
X83644047Y-64927050D02*
X83523095Y-64806097D01*
X83523095Y-64806097D02*
X83462618Y-64685145D01*
X83462618Y-64685145D02*
X83402142Y-64443240D01*
X83402142Y-64443240D02*
X83402142Y-64261811D01*
X83402142Y-64261811D02*
X83462618Y-64019907D01*
X83462618Y-64019907D02*
X83523095Y-63898954D01*
X83523095Y-63898954D02*
X83644047Y-63778002D01*
X83644047Y-63778002D02*
X83825476Y-63717526D01*
X83825476Y-63717526D02*
X83946428Y-63717526D01*
X83946428Y-63717526D02*
X84127857Y-63778002D01*
X84127857Y-63778002D02*
X84188333Y-63838478D01*
X84793095Y-64987526D02*
X85034999Y-64987526D01*
X85034999Y-64987526D02*
X85155952Y-64927050D01*
X85155952Y-64927050D02*
X85216428Y-64866573D01*
X85216428Y-64866573D02*
X85337380Y-64685145D01*
X85337380Y-64685145D02*
X85397857Y-64443240D01*
X85397857Y-64443240D02*
X85397857Y-63959430D01*
X85397857Y-63959430D02*
X85337380Y-63838478D01*
X85337380Y-63838478D02*
X85276904Y-63778002D01*
X85276904Y-63778002D02*
X85155952Y-63717526D01*
X85155952Y-63717526D02*
X84914047Y-63717526D01*
X84914047Y-63717526D02*
X84793095Y-63778002D01*
X84793095Y-63778002D02*
X84732618Y-63838478D01*
X84732618Y-63838478D02*
X84672142Y-63959430D01*
X84672142Y-63959430D02*
X84672142Y-64261811D01*
X84672142Y-64261811D02*
X84732618Y-64382764D01*
X84732618Y-64382764D02*
X84793095Y-64443240D01*
X84793095Y-64443240D02*
X84914047Y-64503716D01*
X84914047Y-64503716D02*
X85155952Y-64503716D01*
X85155952Y-64503716D02*
X85276904Y-64443240D01*
X85276904Y-64443240D02*
X85337380Y-64382764D01*
X85337380Y-64382764D02*
X85397857Y-64261811D01*
X81388333Y-53187526D02*
X80964999Y-52582764D01*
X80662618Y-53187526D02*
X80662618Y-51917526D01*
X80662618Y-51917526D02*
X81146428Y-51917526D01*
X81146428Y-51917526D02*
X81267380Y-51978002D01*
X81267380Y-51978002D02*
X81327857Y-52038478D01*
X81327857Y-52038478D02*
X81388333Y-52159430D01*
X81388333Y-52159430D02*
X81388333Y-52340859D01*
X81388333Y-52340859D02*
X81327857Y-52461811D01*
X81327857Y-52461811D02*
X81267380Y-52522288D01*
X81267380Y-52522288D02*
X81146428Y-52582764D01*
X81146428Y-52582764D02*
X80662618Y-52582764D01*
X82537380Y-51917526D02*
X81932618Y-51917526D01*
X81932618Y-51917526D02*
X81872142Y-52522288D01*
X81872142Y-52522288D02*
X81932618Y-52461811D01*
X81932618Y-52461811D02*
X82053571Y-52401335D01*
X82053571Y-52401335D02*
X82355952Y-52401335D01*
X82355952Y-52401335D02*
X82476904Y-52461811D01*
X82476904Y-52461811D02*
X82537380Y-52522288D01*
X82537380Y-52522288D02*
X82597857Y-52643240D01*
X82597857Y-52643240D02*
X82597857Y-52945621D01*
X82597857Y-52945621D02*
X82537380Y-53066573D01*
X82537380Y-53066573D02*
X82476904Y-53127050D01*
X82476904Y-53127050D02*
X82355952Y-53187526D01*
X82355952Y-53187526D02*
X82053571Y-53187526D01*
X82053571Y-53187526D02*
X81932618Y-53127050D01*
X81932618Y-53127050D02*
X81872142Y-53066573D01*
D12*
X80028571Y-64440857D02*
X79971428Y-64498000D01*
X79971428Y-64498000D02*
X79800000Y-64555142D01*
X79800000Y-64555142D02*
X79685714Y-64555142D01*
X79685714Y-64555142D02*
X79514285Y-64498000D01*
X79514285Y-64498000D02*
X79400000Y-64383714D01*
X79400000Y-64383714D02*
X79342857Y-64269428D01*
X79342857Y-64269428D02*
X79285714Y-64040857D01*
X79285714Y-64040857D02*
X79285714Y-63869428D01*
X79285714Y-63869428D02*
X79342857Y-63640857D01*
X79342857Y-63640857D02*
X79400000Y-63526571D01*
X79400000Y-63526571D02*
X79514285Y-63412285D01*
X79514285Y-63412285D02*
X79685714Y-63355142D01*
X79685714Y-63355142D02*
X79800000Y-63355142D01*
X79800000Y-63355142D02*
X79971428Y-63412285D01*
X79971428Y-63412285D02*
X80028571Y-63469428D01*
X81171428Y-64555142D02*
X80485714Y-64555142D01*
X80828571Y-64555142D02*
X80828571Y-63355142D01*
X80828571Y-63355142D02*
X80714285Y-63526571D01*
X80714285Y-63526571D02*
X80600000Y-63640857D01*
X80600000Y-63640857D02*
X80485714Y-63698000D01*
X81914285Y-63355142D02*
X82028571Y-63355142D01*
X82028571Y-63355142D02*
X82142857Y-63412285D01*
X82142857Y-63412285D02*
X82200000Y-63469428D01*
X82200000Y-63469428D02*
X82257142Y-63583714D01*
X82257142Y-63583714D02*
X82314285Y-63812285D01*
X82314285Y-63812285D02*
X82314285Y-64098000D01*
X82314285Y-64098000D02*
X82257142Y-64326571D01*
X82257142Y-64326571D02*
X82200000Y-64440857D01*
X82200000Y-64440857D02*
X82142857Y-64498000D01*
X82142857Y-64498000D02*
X82028571Y-64555142D01*
X82028571Y-64555142D02*
X81914285Y-64555142D01*
X81914285Y-64555142D02*
X81800000Y-64498000D01*
X81800000Y-64498000D02*
X81742857Y-64440857D01*
X81742857Y-64440857D02*
X81685714Y-64326571D01*
X81685714Y-64326571D02*
X81628571Y-64098000D01*
X81628571Y-64098000D02*
X81628571Y-63812285D01*
X81628571Y-63812285D02*
X81685714Y-63583714D01*
X81685714Y-63583714D02*
X81742857Y-63469428D01*
X81742857Y-63469428D02*
X81800000Y-63412285D01*
X81800000Y-63412285D02*
X81914285Y-63355142D01*
D10*
X76588333Y-55587526D02*
X76164999Y-54982764D01*
X75862618Y-55587526D02*
X75862618Y-54317526D01*
X75862618Y-54317526D02*
X76346428Y-54317526D01*
X76346428Y-54317526D02*
X76467380Y-54378002D01*
X76467380Y-54378002D02*
X76527857Y-54438478D01*
X76527857Y-54438478D02*
X76588333Y-54559430D01*
X76588333Y-54559430D02*
X76588333Y-54740859D01*
X76588333Y-54740859D02*
X76527857Y-54861811D01*
X76527857Y-54861811D02*
X76467380Y-54922288D01*
X76467380Y-54922288D02*
X76346428Y-54982764D01*
X76346428Y-54982764D02*
X75862618Y-54982764D01*
X77011666Y-54317526D02*
X77858333Y-54317526D01*
X77858333Y-54317526D02*
X77314047Y-55587526D01*
X76662618Y-72587526D02*
X76662618Y-71317526D01*
X76662618Y-71317526D02*
X76964999Y-71317526D01*
X76964999Y-71317526D02*
X77146428Y-71378002D01*
X77146428Y-71378002D02*
X77267380Y-71498954D01*
X77267380Y-71498954D02*
X77327857Y-71619907D01*
X77327857Y-71619907D02*
X77388333Y-71861811D01*
X77388333Y-71861811D02*
X77388333Y-72043240D01*
X77388333Y-72043240D02*
X77327857Y-72285145D01*
X77327857Y-72285145D02*
X77267380Y-72406097D01*
X77267380Y-72406097D02*
X77146428Y-72527050D01*
X77146428Y-72527050D02*
X76964999Y-72587526D01*
X76964999Y-72587526D02*
X76662618Y-72587526D01*
X77872142Y-71438478D02*
X77932618Y-71378002D01*
X77932618Y-71378002D02*
X78053571Y-71317526D01*
X78053571Y-71317526D02*
X78355952Y-71317526D01*
X78355952Y-71317526D02*
X78476904Y-71378002D01*
X78476904Y-71378002D02*
X78537380Y-71438478D01*
X78537380Y-71438478D02*
X78597857Y-71559430D01*
X78597857Y-71559430D02*
X78597857Y-71680383D01*
X78597857Y-71680383D02*
X78537380Y-71861811D01*
X78537380Y-71861811D02*
X77811666Y-72587526D01*
X77811666Y-72587526D02*
X78597857Y-72587526D01*
D11*
X81638095Y-57062619D02*
X81638095Y-57872142D01*
X81638095Y-57872142D02*
X81685714Y-57967380D01*
X81685714Y-57967380D02*
X81733333Y-58015000D01*
X81733333Y-58015000D02*
X81828571Y-58062619D01*
X81828571Y-58062619D02*
X82019047Y-58062619D01*
X82019047Y-58062619D02*
X82114285Y-58015000D01*
X82114285Y-58015000D02*
X82161904Y-57967380D01*
X82161904Y-57967380D02*
X82209523Y-57872142D01*
X82209523Y-57872142D02*
X82209523Y-57062619D01*
X82638095Y-57157857D02*
X82685714Y-57110238D01*
X82685714Y-57110238D02*
X82780952Y-57062619D01*
X82780952Y-57062619D02*
X83019047Y-57062619D01*
X83019047Y-57062619D02*
X83114285Y-57110238D01*
X83114285Y-57110238D02*
X83161904Y-57157857D01*
X83161904Y-57157857D02*
X83209523Y-57253095D01*
X83209523Y-57253095D02*
X83209523Y-57348333D01*
X83209523Y-57348333D02*
X83161904Y-57491190D01*
X83161904Y-57491190D02*
X82590476Y-58062619D01*
X82590476Y-58062619D02*
X83209523Y-58062619D01*
D10*
X88183571Y-61266573D02*
X88123095Y-61327050D01*
X88123095Y-61327050D02*
X87941666Y-61387526D01*
X87941666Y-61387526D02*
X87820714Y-61387526D01*
X87820714Y-61387526D02*
X87639285Y-61327050D01*
X87639285Y-61327050D02*
X87518333Y-61206097D01*
X87518333Y-61206097D02*
X87457856Y-61085145D01*
X87457856Y-61085145D02*
X87397380Y-60843240D01*
X87397380Y-60843240D02*
X87397380Y-60661811D01*
X87397380Y-60661811D02*
X87457856Y-60419907D01*
X87457856Y-60419907D02*
X87518333Y-60298954D01*
X87518333Y-60298954D02*
X87639285Y-60178002D01*
X87639285Y-60178002D02*
X87820714Y-60117526D01*
X87820714Y-60117526D02*
X87941666Y-60117526D01*
X87941666Y-60117526D02*
X88123095Y-60178002D01*
X88123095Y-60178002D02*
X88183571Y-60238478D01*
X89393095Y-61387526D02*
X88667380Y-61387526D01*
X89030237Y-61387526D02*
X89030237Y-60117526D01*
X89030237Y-60117526D02*
X88909285Y-60298954D01*
X88909285Y-60298954D02*
X88788333Y-60419907D01*
X88788333Y-60419907D02*
X88667380Y-60480383D01*
X90602619Y-61387526D02*
X89876904Y-61387526D01*
X90239761Y-61387526D02*
X90239761Y-60117526D01*
X90239761Y-60117526D02*
X90118809Y-60298954D01*
X90118809Y-60298954D02*
X89997857Y-60419907D01*
X89997857Y-60419907D02*
X89876904Y-60480383D01*
D11*
X72600000Y-50662619D02*
X72600000Y-49662619D01*
X72600000Y-49662619D02*
X72980952Y-49662619D01*
X72980952Y-49662619D02*
X73076190Y-49710238D01*
X73076190Y-49710238D02*
X73123809Y-49757857D01*
X73123809Y-49757857D02*
X73171428Y-49853095D01*
X73171428Y-49853095D02*
X73171428Y-49995952D01*
X73171428Y-49995952D02*
X73123809Y-50091190D01*
X73123809Y-50091190D02*
X73076190Y-50138809D01*
X73076190Y-50138809D02*
X72980952Y-50186428D01*
X72980952Y-50186428D02*
X72600000Y-50186428D01*
X73600000Y-50662619D02*
X73600000Y-49662619D01*
X74076190Y-50662619D02*
X74076190Y-49662619D01*
X74076190Y-49662619D02*
X74647618Y-50662619D01*
X74647618Y-50662619D02*
X74647618Y-49662619D01*
X75647618Y-50662619D02*
X75076190Y-50662619D01*
X75361904Y-50662619D02*
X75361904Y-49662619D01*
X75361904Y-49662619D02*
X75266666Y-49805476D01*
X75266666Y-49805476D02*
X75171428Y-49900714D01*
X75171428Y-49900714D02*
X75076190Y-49948333D01*
D10*
X83988333Y-59866573D02*
X83927857Y-59927050D01*
X83927857Y-59927050D02*
X83746428Y-59987526D01*
X83746428Y-59987526D02*
X83625476Y-59987526D01*
X83625476Y-59987526D02*
X83444047Y-59927050D01*
X83444047Y-59927050D02*
X83323095Y-59806097D01*
X83323095Y-59806097D02*
X83262618Y-59685145D01*
X83262618Y-59685145D02*
X83202142Y-59443240D01*
X83202142Y-59443240D02*
X83202142Y-59261811D01*
X83202142Y-59261811D02*
X83262618Y-59019907D01*
X83262618Y-59019907D02*
X83323095Y-58898954D01*
X83323095Y-58898954D02*
X83444047Y-58778002D01*
X83444047Y-58778002D02*
X83625476Y-58717526D01*
X83625476Y-58717526D02*
X83746428Y-58717526D01*
X83746428Y-58717526D02*
X83927857Y-58778002D01*
X83927857Y-58778002D02*
X83988333Y-58838478D01*
X84714047Y-59261811D02*
X84593095Y-59201335D01*
X84593095Y-59201335D02*
X84532618Y-59140859D01*
X84532618Y-59140859D02*
X84472142Y-59019907D01*
X84472142Y-59019907D02*
X84472142Y-58959430D01*
X84472142Y-58959430D02*
X84532618Y-58838478D01*
X84532618Y-58838478D02*
X84593095Y-58778002D01*
X84593095Y-58778002D02*
X84714047Y-58717526D01*
X84714047Y-58717526D02*
X84955952Y-58717526D01*
X84955952Y-58717526D02*
X85076904Y-58778002D01*
X85076904Y-58778002D02*
X85137380Y-58838478D01*
X85137380Y-58838478D02*
X85197857Y-58959430D01*
X85197857Y-58959430D02*
X85197857Y-59019907D01*
X85197857Y-59019907D02*
X85137380Y-59140859D01*
X85137380Y-59140859D02*
X85076904Y-59201335D01*
X85076904Y-59201335D02*
X84955952Y-59261811D01*
X84955952Y-59261811D02*
X84714047Y-59261811D01*
X84714047Y-59261811D02*
X84593095Y-59322288D01*
X84593095Y-59322288D02*
X84532618Y-59382764D01*
X84532618Y-59382764D02*
X84472142Y-59503716D01*
X84472142Y-59503716D02*
X84472142Y-59745621D01*
X84472142Y-59745621D02*
X84532618Y-59866573D01*
X84532618Y-59866573D02*
X84593095Y-59927050D01*
X84593095Y-59927050D02*
X84714047Y-59987526D01*
X84714047Y-59987526D02*
X84955952Y-59987526D01*
X84955952Y-59987526D02*
X85076904Y-59927050D01*
X85076904Y-59927050D02*
X85137380Y-59866573D01*
X85137380Y-59866573D02*
X85197857Y-59745621D01*
X85197857Y-59745621D02*
X85197857Y-59503716D01*
X85197857Y-59503716D02*
X85137380Y-59382764D01*
X85137380Y-59382764D02*
X85076904Y-59322288D01*
X85076904Y-59322288D02*
X84955952Y-59261811D01*
D14*
X85690000Y-51990000D02*
X85690000Y-53250000D01*
X85690000Y-58810000D02*
X85690000Y-57550000D01*
X89450000Y-51990000D02*
X85690000Y-51990000D01*
X91700000Y-58810000D02*
X85690000Y-58810000D01*
D15*
X78290000Y-64590000D02*
X78290000Y-66190000D01*
X76910000Y-64590000D02*
X76910000Y-66190000D01*
X81110000Y-68400000D02*
X81110000Y-70000000D01*
X82490000Y-68400000D02*
X82490000Y-70000000D01*
X82090000Y-54790000D02*
X82090000Y-56390000D01*
X80710000Y-54790000D02*
X80710000Y-56390000D01*
X79400000Y-57090000D02*
X77800000Y-57090000D01*
X79400000Y-55710000D02*
X77800000Y-55710000D01*
D11*
X77450000Y-58450000D02*
X77975000Y-58450000D01*
X77450000Y-62750000D02*
X77450000Y-62225000D01*
X77450000Y-62750000D02*
X77975000Y-62750000D01*
X81750000Y-58450000D02*
X81225000Y-58450000D01*
X81750000Y-58450000D02*
X81750000Y-58975000D01*
X81750000Y-62750000D02*
X81225000Y-62750000D01*
X81750000Y-62750000D02*
X81750000Y-62225000D01*
D14*
X75330000Y-53830000D02*
X75330000Y-71670000D01*
X72670000Y-71670000D02*
X75330000Y-71670000D01*
X72670000Y-53830000D02*
X75330000Y-53830000D01*
X72670000Y-53830000D02*
X72670000Y-71670000D01*
X72670000Y-52560000D02*
X72670000Y-51230000D01*
X72670000Y-51230000D02*
X74000000Y-51230000D01*
M02*
