%TF.GenerationSoftware,KiCad,Pcbnew,7.0.1*%
%TF.CreationDate,2023-04-19T16:41:29+02:00*%
%TF.ProjectId,MPU,4d50552e-6b69-4636-9164-5f7063625858,version_01*%
%TF.SameCoordinates,Original*%
%TF.FileFunction,Copper,L1,Top*%
%TF.FilePolarity,Positive*%
%FSLAX46Y46*%
G04 Gerber Fmt 4.6, Leading zero omitted, Abs format (unit mm)*
G04 Created by KiCad (PCBNEW 7.0.1) date 2023-04-19 16:41:29*
%MOMM*%
%LPD*%
G01*
G04 APERTURE LIST*
G04 Aperture macros list*
%AMRoundRect*
0 Rectangle with rounded corners*
0 $1 Rounding radius*
0 $2 $3 $4 $5 $6 $7 $8 $9 X,Y pos of 4 corners*
0 Add a 4 corners polygon primitive as box body*
4,1,4,$2,$3,$4,$5,$6,$7,$8,$9,$2,$3,0*
0 Add four circle primitives for the rounded corners*
1,1,$1+$1,$2,$3*
1,1,$1+$1,$4,$5*
1,1,$1+$1,$6,$7*
1,1,$1+$1,$8,$9*
0 Add four rect primitives between the rounded corners*
20,1,$1+$1,$2,$3,$4,$5,0*
20,1,$1+$1,$4,$5,$6,$7,0*
20,1,$1+$1,$6,$7,$8,$9,0*
20,1,$1+$1,$8,$9,$2,$3,0*%
G04 Aperture macros list end*
%TA.AperFunction,SMDPad,CuDef*%
%ADD10R,2.000000X1.500000*%
%TD*%
%TA.AperFunction,SMDPad,CuDef*%
%ADD11R,2.000000X3.800000*%
%TD*%
%TA.AperFunction,SMDPad,CuDef*%
%ADD12RoundRect,0.094000X-0.376000X-0.416000X0.376000X-0.416000X0.376000X0.416000X-0.376000X0.416000X0*%
%TD*%
%TA.AperFunction,SMDPad,CuDef*%
%ADD13R,0.970000X1.470000*%
%TD*%
%TA.AperFunction,SMDPad,CuDef*%
%ADD14RoundRect,0.075000X-0.350000X-0.075000X0.350000X-0.075000X0.350000X0.075000X-0.350000X0.075000X0*%
%TD*%
%TA.AperFunction,SMDPad,CuDef*%
%ADD15RoundRect,0.075000X0.075000X-0.350000X0.075000X0.350000X-0.075000X0.350000X-0.075000X-0.350000X0*%
%TD*%
%TA.AperFunction,ComponentPad*%
%ADD16R,1.700000X1.700000*%
%TD*%
%TA.AperFunction,ComponentPad*%
%ADD17O,1.700000X1.700000*%
%TD*%
%TA.AperFunction,ViaPad*%
%ADD18C,0.800000*%
%TD*%
%TA.AperFunction,Conductor*%
%ADD19C,0.250000*%
%TD*%
G04 APERTURE END LIST*
D10*
%TO.P,U1,1,GND*%
%TO.N,GND*%
X83350000Y-51200000D03*
%TO.P,U1,2,VO*%
%TO.N,+3.3V*%
X83350000Y-53500000D03*
D11*
X89650000Y-53500000D03*
D10*
%TO.P,U1,3,VI*%
%TO.N,VCC*%
X83350000Y-55800000D03*
%TD*%
D12*
%TO.P,R8,1*%
%TO.N,GND*%
X89710000Y-67000000D03*
%TO.P,R8,2*%
%TO.N,Net-(PIN1-Pin_7)*%
X91290000Y-67000000D03*
%TD*%
D13*
%TO.P,C1,1*%
%TO.N,GND*%
X78830000Y-52000000D03*
%TO.P,C1,2*%
%TO.N,VCC*%
X77170000Y-52000000D03*
%TD*%
D12*
%TO.P,R9,1*%
%TO.N,+3.3V*%
X83520000Y-70000000D03*
%TO.P,R9,2*%
%TO.N,Net-(D2-A)*%
X85100000Y-70000000D03*
%TD*%
D13*
%TO.P,C2,1*%
%TO.N,GND*%
X90340000Y-60000000D03*
%TO.P,C2,2*%
%TO.N,+3.3V*%
X92000000Y-60000000D03*
%TD*%
%TO.P,C9,1*%
%TO.N,GND*%
X83370000Y-66900000D03*
%TO.P,C9,2*%
%TO.N,Net-(U2-REGOUT)*%
X85030000Y-66900000D03*
%TD*%
D12*
%TO.P,R5,1*%
%TO.N,+3.3V*%
X89920000Y-64000000D03*
%TO.P,R5,2*%
%TO.N,/SDA*%
X91500000Y-64000000D03*
%TD*%
D13*
%TO.P,C10,1*%
%TO.N,GND*%
X77170000Y-70000000D03*
%TO.P,C10,2*%
%TO.N,+3.3V*%
X78830000Y-70000000D03*
%TD*%
D12*
%TO.P,R7,1*%
%TO.N,+3.3V*%
X77420000Y-65000000D03*
%TO.P,R7,2*%
%TO.N,/SCL*%
X79000000Y-65000000D03*
%TD*%
D13*
%TO.P,D2,1,K*%
%TO.N,GND*%
X88340000Y-69800000D03*
%TO.P,D2,2,A*%
%TO.N,Net-(D2-A)*%
X90000000Y-69800000D03*
%TD*%
D14*
%TO.P,U2,1,CLKIN*%
%TO.N,GND*%
X83300000Y-59750000D03*
%TO.P,U2,2,NC*%
%TO.N,unconnected-(U2-NC-Pad2)*%
X83300000Y-60250000D03*
%TO.P,U2,3,NC*%
%TO.N,unconnected-(U2-NC-Pad3)*%
X83300000Y-60750000D03*
%TO.P,U2,4,NC*%
%TO.N,unconnected-(U2-NC-Pad4)*%
X83300000Y-61250000D03*
%TO.P,U2,5,NC*%
%TO.N,unconnected-(U2-NC-Pad5)*%
X83300000Y-61750000D03*
%TO.P,U2,6,AUX_DA*%
%TO.N,/XDA*%
X83300000Y-62250000D03*
D15*
%TO.P,U2,7,AUX_CL*%
%TO.N,/XCL*%
X84000000Y-62950000D03*
%TO.P,U2,8,VLOGIC*%
%TO.N,+3.3V*%
X84500000Y-62950000D03*
%TO.P,U2,9,AD0*%
%TO.N,/AD0*%
X85000000Y-62950000D03*
%TO.P,U2,10,REGOUT*%
%TO.N,Net-(U2-REGOUT)*%
X85500000Y-62950000D03*
%TO.P,U2,11,FSYNC*%
%TO.N,GND*%
X86000000Y-62950000D03*
%TO.P,U2,12,INT*%
%TO.N,/INT*%
X86500000Y-62950000D03*
D14*
%TO.P,U2,13,VDD*%
%TO.N,+3.3V*%
X87200000Y-62250000D03*
%TO.P,U2,14,NC*%
%TO.N,unconnected-(U2-NC-Pad14)*%
X87200000Y-61750000D03*
%TO.P,U2,15,NC*%
%TO.N,unconnected-(U2-NC-Pad15)*%
X87200000Y-61250000D03*
%TO.P,U2,16,NC*%
%TO.N,unconnected-(U2-NC-Pad16)*%
X87200000Y-60750000D03*
%TO.P,U2,17,NC*%
%TO.N,unconnected-(U2-NC-Pad17)*%
X87200000Y-60250000D03*
%TO.P,U2,18,GND*%
%TO.N,GND*%
X87200000Y-59750000D03*
D15*
%TO.P,U2,19,RESV*%
%TO.N,unconnected-(U2-RESV-Pad19)*%
X86500000Y-59050000D03*
%TO.P,U2,20,CPOUT*%
%TO.N,Net-(U2-CPOUT)*%
X86000000Y-59050000D03*
%TO.P,U2,21,RESV*%
%TO.N,unconnected-(U2-RESV-Pad21)*%
X85500000Y-59050000D03*
%TO.P,U2,22,RESV*%
%TO.N,unconnected-(U2-RESV-Pad22)*%
X85000000Y-59050000D03*
%TO.P,U2,23,SCL*%
%TO.N,/SCL*%
X84500000Y-59050000D03*
%TO.P,U2,24,SDA*%
%TO.N,/SDA*%
X84000000Y-59050000D03*
%TD*%
D13*
%TO.P,C11,1*%
%TO.N,GND*%
X77170000Y-57500000D03*
%TO.P,C11,2*%
%TO.N,+3.3V*%
X78830000Y-57500000D03*
%TD*%
D16*
%TO.P,PINS,1,Pin_1*%
%TO.N,VCC*%
X74000000Y-52460000D03*
D17*
%TO.P,PINS,2,Pin_2*%
%TO.N,GND*%
X74000000Y-55000000D03*
%TO.P,PINS,3,Pin_3*%
%TO.N,/SCL*%
X74000000Y-57540000D03*
%TO.P,PINS,4,Pin_4*%
%TO.N,/SDA*%
X74000000Y-60080000D03*
%TO.P,PINS,5,Pin_5*%
%TO.N,/XDA*%
X74000000Y-62620000D03*
%TO.P,PINS,6,Pin_6*%
%TO.N,/XCL*%
X74000000Y-65160000D03*
%TO.P,PINS,7,Pin_7*%
%TO.N,Net-(PIN1-Pin_7)*%
X74000000Y-67700000D03*
%TO.P,PINS,8,Pin_8*%
%TO.N,/INT*%
X74000000Y-70240000D03*
%TD*%
D13*
%TO.P,C8,1*%
%TO.N,Net-(U2-CPOUT)*%
X77170000Y-61000000D03*
%TO.P,C8,2*%
%TO.N,GND*%
X78830000Y-61000000D03*
%TD*%
D18*
%TO.N,+3.3V*%
X80412299Y-60424500D03*
X82169503Y-63038201D03*
X81512299Y-54987701D03*
X92000000Y-54900000D03*
X78767976Y-57100000D03*
X79952166Y-57618408D03*
%TO.N,Net-(U2-REGOUT)*%
X85000000Y-64775500D03*
X85000000Y-67000000D03*
%TO.N,GND*%
X86100000Y-64724500D03*
X88900000Y-61000000D03*
X88100000Y-66400000D03*
%TO.N,Net-(U2-CPOUT)*%
X87462701Y-58137299D03*
X77148478Y-61475500D03*
%TO.N,VCC*%
X83300000Y-54849502D03*
X73900000Y-49400000D03*
%TO.N,/SCL*%
X78000000Y-59724500D03*
X84500000Y-58100000D03*
X74768235Y-61309176D03*
%TO.N,/SDA*%
X91300000Y-62724500D03*
X83869443Y-57324500D03*
X82462356Y-57971624D03*
%TO.N,/XDA*%
X81500000Y-62000000D03*
%TO.N,/XCL*%
X83400000Y-63275500D03*
%TO.N,Net-(PIN1-Pin_7)*%
X81487701Y-64487701D03*
%TO.N,/INT*%
X87087701Y-63887701D03*
%TD*%
D19*
%TO.N,+3.3V*%
X83420000Y-70000000D02*
X78830000Y-70000000D01*
X78984555Y-66400000D02*
X79900000Y-65484555D01*
X89920000Y-63400000D02*
X89920000Y-62580000D01*
X89500000Y-63400000D02*
X89920000Y-63400000D01*
X77420000Y-65000000D02*
X78700000Y-66280000D01*
X83000000Y-53500000D02*
X81500000Y-55000000D01*
X80375500Y-60424500D02*
X80412299Y-60424500D01*
X79900000Y-60900000D02*
X80375500Y-60424500D01*
X82169503Y-64100000D02*
X82169503Y-63038201D01*
X78830000Y-57500000D02*
X79700000Y-57500000D01*
X78830000Y-68830000D02*
X77500000Y-67500000D01*
X92000000Y-54850000D02*
X90650000Y-53500000D01*
X88350000Y-62250000D02*
X89500000Y-63400000D01*
X91500000Y-62000000D02*
X92000000Y-61500000D01*
X90500000Y-62000000D02*
X91500000Y-62000000D01*
X79900000Y-65484555D02*
X79900000Y-60900000D01*
X92000000Y-61500000D02*
X92000000Y-60000000D01*
X92000000Y-60000000D02*
X92000000Y-54850000D01*
X79700000Y-57500000D02*
X79723827Y-57523827D01*
X89650000Y-53500000D02*
X90500000Y-53500000D01*
X87200000Y-62250000D02*
X88350000Y-62250000D01*
X78700000Y-66400000D02*
X78984555Y-66400000D01*
X78830000Y-70000000D02*
X78830000Y-68830000D01*
X81500000Y-55000000D02*
X81512299Y-54987701D01*
X84500000Y-62950000D02*
X84500000Y-64100000D01*
X77500000Y-67500000D02*
X77500000Y-65080000D01*
X84500000Y-64100000D02*
X82169503Y-64100000D01*
X77500000Y-65080000D02*
X77420000Y-65000000D01*
X89920000Y-64000000D02*
X89920000Y-63400000D01*
X83000000Y-53500000D02*
X90500000Y-53500000D01*
X89920000Y-62580000D02*
X90500000Y-62000000D01*
X90650000Y-53500000D02*
X89650000Y-53500000D01*
X78700000Y-66280000D02*
X78700000Y-66400000D01*
X79723847Y-57523807D02*
G75*
G03*
X79952166Y-57618408I228353J228307D01*
G01*
%TO.N,Net-(D2-A)*%
X85100000Y-70000000D02*
X85900000Y-70000000D01*
X89800000Y-71000000D02*
X87500000Y-71000000D01*
X87500000Y-71000000D02*
X86600000Y-70100000D01*
X90000000Y-70800000D02*
X89800000Y-71000000D01*
X85900000Y-70000000D02*
X86000000Y-70100000D01*
X90000000Y-69800000D02*
X90000000Y-70800000D01*
X86600000Y-70100000D02*
X86000000Y-70100000D01*
%TO.N,Net-(U2-REGOUT)*%
X85500000Y-64000000D02*
X85000000Y-64500000D01*
X85500000Y-62950000D02*
X85500000Y-63500000D01*
X85500000Y-63500000D02*
X85500000Y-64000000D01*
X85000000Y-64500000D02*
X85000000Y-65000000D01*
X85000000Y-65000000D02*
X85000000Y-64775500D01*
%TO.N,GND*%
X88500000Y-59000000D02*
X87950000Y-59550000D01*
X75500000Y-55000000D02*
X75300000Y-55000000D01*
X88000000Y-68710000D02*
X88000000Y-69000000D01*
X80000000Y-55500000D02*
X75800000Y-55500000D01*
X81100000Y-56600000D02*
X80000000Y-55500000D01*
X81500000Y-67000000D02*
X80500000Y-66000000D01*
X81100000Y-59000000D02*
X81100000Y-56600000D01*
X87950000Y-59550000D02*
X87950000Y-59750000D01*
X75500000Y-55200000D02*
X75500000Y-55000000D01*
X81325000Y-61275000D02*
X81325000Y-58098695D01*
X86100000Y-64724500D02*
X86000000Y-64624500D01*
X81300000Y-51200000D02*
X83350000Y-51200000D01*
X89710000Y-67000000D02*
X88000000Y-68710000D01*
X77000000Y-59000000D02*
X81100000Y-59000000D01*
X76500000Y-69500000D02*
X76500000Y-62200000D01*
X81199695Y-61275000D02*
X81325000Y-61275000D01*
X83340000Y-68840000D02*
X83340000Y-67000000D01*
X80500000Y-55000000D02*
X74000000Y-55000000D01*
X83300000Y-59750000D02*
X83250000Y-59700000D01*
X76080000Y-55000000D02*
X75500000Y-55000000D01*
X76360000Y-59640000D02*
X77000000Y-59000000D01*
X86000000Y-64624500D02*
X86000000Y-62950000D01*
X78830000Y-52250000D02*
X76080000Y-55000000D01*
X79130000Y-51700000D02*
X78830000Y-52000000D01*
X78830000Y-52000000D02*
X80500000Y-52000000D01*
X88600000Y-65950000D02*
X88550000Y-65950000D01*
X83340000Y-67000000D02*
X81500000Y-67000000D01*
X88660000Y-65950000D02*
X88600000Y-65950000D01*
X81800000Y-57623695D02*
X81800000Y-56300000D01*
X87200000Y-59750000D02*
X87950000Y-59750000D01*
X78830000Y-61000000D02*
X78830000Y-60170000D01*
X81325000Y-58098695D02*
X81800000Y-57623695D01*
X75800000Y-55500000D02*
X75500000Y-55200000D01*
X89340000Y-61000000D02*
X89440000Y-60900000D01*
X76360000Y-62060000D02*
X76360000Y-59640000D01*
X78830000Y-52000000D02*
X78830000Y-52250000D01*
X90340000Y-60000000D02*
X90000000Y-60000000D01*
X88900000Y-61000000D02*
X89340000Y-61000000D01*
X75300000Y-55000000D02*
X74000000Y-55000000D01*
X89710000Y-67000000D02*
X88660000Y-65950000D01*
X90000000Y-60000000D02*
X89000000Y-59000000D01*
X80500000Y-61974695D02*
X81199695Y-61275000D01*
X89440000Y-60900000D02*
X90340000Y-60000000D01*
X76500000Y-62200000D02*
X76360000Y-62060000D01*
X80000000Y-55000000D02*
X74000000Y-55000000D01*
X88340000Y-69800000D02*
X88340000Y-69740000D01*
X80500000Y-66000000D02*
X80500000Y-61974695D01*
X88340000Y-69740000D02*
X87600000Y-69000000D01*
X78725000Y-59265000D02*
X77170000Y-57710000D01*
X81400000Y-56400000D02*
X80000000Y-55000000D01*
X78725000Y-59700000D02*
X78725000Y-59265000D01*
X77170000Y-70000000D02*
X77000000Y-70000000D01*
X81800000Y-56300000D02*
X80500000Y-55000000D01*
X83500000Y-69000000D02*
X83340000Y-68840000D01*
X75300000Y-56300000D02*
X75300000Y-55000000D01*
X76500000Y-57500000D02*
X75300000Y-56300000D01*
X77170000Y-57710000D02*
X77170000Y-57500000D01*
X77170000Y-57500000D02*
X76500000Y-57500000D01*
X80500000Y-52000000D02*
X81300000Y-51200000D01*
X81400000Y-57600000D02*
X81400000Y-56400000D01*
X87600000Y-69000000D02*
X83500000Y-69000000D01*
X89000000Y-59000000D02*
X88500000Y-59000000D01*
X78830000Y-60170000D02*
X81400000Y-57600000D01*
X83250000Y-59700000D02*
X78725000Y-59700000D01*
X88550000Y-65950000D02*
X88100000Y-66400000D01*
X77000000Y-70000000D02*
X76500000Y-69500000D01*
%TO.N,Net-(U2-CPOUT)*%
X86000000Y-58559315D02*
X86100000Y-58459315D01*
X86000000Y-59050000D02*
X86000000Y-58559315D01*
X86100000Y-58400000D02*
X86100000Y-58375000D01*
X86100000Y-58375000D02*
X86175000Y-58300000D01*
X86175000Y-58300000D02*
X87000000Y-58300000D01*
X87300000Y-58300000D02*
X87462701Y-58137299D01*
X86100000Y-58459315D02*
X86100000Y-58400000D01*
X87000000Y-58300000D02*
X87300000Y-58300000D01*
%TO.N,VCC*%
X73900000Y-49400000D02*
X74000000Y-49500000D01*
X74000000Y-49500000D02*
X74000000Y-52460000D01*
X77170000Y-51270000D02*
X77170000Y-52000000D01*
X83300000Y-55750000D02*
X83350000Y-55800000D01*
X75300000Y-49400000D02*
X77170000Y-51270000D01*
X83300000Y-54849502D02*
X83300000Y-55750000D01*
X73900000Y-49400000D02*
X75300000Y-49400000D01*
%TO.N,/SCL*%
X75175000Y-58715000D02*
X74000000Y-57540000D01*
X74768235Y-60973466D02*
X75175000Y-60566701D01*
X79000000Y-63500000D02*
X77987947Y-62487947D01*
X79000000Y-65000000D02*
X79000000Y-63500000D01*
X77987947Y-59736553D02*
X78000000Y-59724500D01*
X74768235Y-61309176D02*
X74768235Y-60973466D01*
X84500000Y-58100000D02*
X84500000Y-59050000D01*
X77987947Y-62487947D02*
X77987947Y-59736553D01*
X75175000Y-60566701D02*
X75175000Y-58715000D01*
%TO.N,/SDA*%
X83571624Y-57800000D02*
X82633980Y-57800000D01*
X83775000Y-58175000D02*
X83775000Y-58275000D01*
X83571624Y-57800000D02*
X83571624Y-57622319D01*
X83571624Y-57971624D02*
X83571624Y-57800000D01*
X83571624Y-57622319D02*
X83869443Y-57324500D01*
X83775000Y-58275000D02*
X83800000Y-58300000D01*
X83571624Y-57971624D02*
X83775000Y-58175000D01*
X91300000Y-63800000D02*
X91500000Y-64000000D01*
X83800000Y-58300000D02*
X83800000Y-58850000D01*
X82633980Y-57800000D02*
X82462356Y-57971624D01*
X91300000Y-62724500D02*
X91300000Y-63800000D01*
X83800000Y-58850000D02*
X84000000Y-59050000D01*
%TO.N,/XDA*%
X81800000Y-61700000D02*
X82350000Y-62250000D01*
X81800000Y-61700000D02*
X81500000Y-62000000D01*
X82350000Y-62250000D02*
X83300000Y-62250000D01*
%TO.N,/XCL*%
X83471114Y-63346613D02*
X83400000Y-63275500D01*
X83964645Y-63035356D02*
X83600000Y-63400000D01*
X83471108Y-63346619D02*
G75*
G03*
X83600000Y-63400000I128892J128919D01*
G01*
X83964642Y-63035353D02*
G75*
G03*
X84000000Y-62950000I-85342J85353D01*
G01*
%TO.N,Net-(PIN1-Pin_7)*%
X91500000Y-66790000D02*
X91290000Y-67000000D01*
X91500000Y-65500000D02*
X91500000Y-66790000D01*
X83150049Y-64874549D02*
X83775500Y-65500000D01*
X83150049Y-64874549D02*
X81874549Y-64874549D01*
X83775500Y-65500000D02*
X91500000Y-65500000D01*
X81874549Y-64874549D02*
X81487701Y-64487701D01*
%TO.N,/INT*%
X86747487Y-63547488D02*
X87087701Y-63887701D01*
X86500007Y-62950000D02*
G75*
G03*
X86747487Y-63547488I844993J0D01*
G01*
%TD*%
%TA.AperFunction,Conductor*%
%TO.N,GND*%
G36*
X86226834Y-64234523D02*
G01*
X86275340Y-64281652D01*
X86355167Y-64419916D01*
X86481830Y-64560590D01*
X86605143Y-64650182D01*
X86644457Y-64697703D01*
X86656013Y-64758286D01*
X86636955Y-64816943D01*
X86591995Y-64859162D01*
X86532258Y-64874500D01*
X86027515Y-64874500D01*
X85969300Y-64859985D01*
X85924714Y-64819840D01*
X85904194Y-64763463D01*
X85885674Y-64587244D01*
X85885673Y-64587240D01*
X85884311Y-64574282D01*
X85887044Y-64573994D01*
X85884925Y-64529063D01*
X85915544Y-64471231D01*
X85947931Y-64436742D01*
X85950613Y-64433976D01*
X85955786Y-64428803D01*
X85970120Y-64414470D01*
X85972581Y-64411295D01*
X85980152Y-64402431D01*
X86010062Y-64370582D01*
X86019712Y-64353027D01*
X86030400Y-64336757D01*
X86042673Y-64320936D01*
X86054152Y-64294406D01*
X86096914Y-64242018D01*
X86160812Y-64219858D01*
X86226834Y-64234523D01*
G37*
%TD.AperFunction*%
%TA.AperFunction,Conductor*%
G36*
X80711500Y-62468505D02*
G01*
X80756887Y-62513892D01*
X80767466Y-62532215D01*
X80894129Y-62672889D01*
X81047269Y-62784151D01*
X81197558Y-62851065D01*
X81239272Y-62881372D01*
X81265053Y-62926025D01*
X81270443Y-62977304D01*
X81264043Y-63038201D01*
X81265864Y-63055525D01*
X81283829Y-63226458D01*
X81342323Y-63406484D01*
X81355465Y-63429247D01*
X81371907Y-63484758D01*
X81361356Y-63541682D01*
X81326112Y-63587612D01*
X81273858Y-63612536D01*
X81207898Y-63626556D01*
X81034970Y-63703549D01*
X80881830Y-63814811D01*
X80746447Y-63965170D01*
X80745276Y-63964116D01*
X80711502Y-63997893D01*
X80649501Y-64014507D01*
X80587501Y-63997895D01*
X80542113Y-63952507D01*
X80525500Y-63890507D01*
X80525500Y-62575892D01*
X80542113Y-62513892D01*
X80587500Y-62468505D01*
X80649500Y-62451892D01*
X80711500Y-62468505D01*
G37*
%TD.AperFunction*%
%TA.AperFunction,Conductor*%
G36*
X88087501Y-54142113D02*
G01*
X88132888Y-54187500D01*
X88149501Y-54249500D01*
X88149501Y-55447872D01*
X88153773Y-55487612D01*
X88155909Y-55507484D01*
X88181056Y-55574906D01*
X88206204Y-55642331D01*
X88292454Y-55757546D01*
X88407669Y-55843796D01*
X88542517Y-55894091D01*
X88602127Y-55900500D01*
X90697872Y-55900499D01*
X90757483Y-55894091D01*
X90892331Y-55843796D01*
X91007546Y-55757546D01*
X91093796Y-55642331D01*
X91128604Y-55549005D01*
X91164815Y-55497573D01*
X91221607Y-55470526D01*
X91284363Y-55474826D01*
X91336934Y-55509367D01*
X91342649Y-55515714D01*
X91366264Y-55554249D01*
X91374500Y-55598687D01*
X91374500Y-58697128D01*
X91364488Y-58745941D01*
X91336069Y-58786872D01*
X91293832Y-58813310D01*
X91272670Y-58821202D01*
X91157454Y-58907453D01*
X91071204Y-59022668D01*
X91020909Y-59157515D01*
X91020909Y-59157517D01*
X91017009Y-59193796D01*
X91014500Y-59217130D01*
X91014500Y-60782869D01*
X91020909Y-60842484D01*
X91037750Y-60887637D01*
X91071204Y-60977331D01*
X91123032Y-61046564D01*
X91157455Y-61092548D01*
X91235849Y-61151234D01*
X91274333Y-61198989D01*
X91285222Y-61259347D01*
X91265853Y-61317540D01*
X91220965Y-61359332D01*
X91161538Y-61374500D01*
X90582744Y-61374500D01*
X90562237Y-61372235D01*
X90492127Y-61374439D01*
X90488232Y-61374500D01*
X90460650Y-61374500D01*
X90456665Y-61375003D01*
X90445033Y-61375918D01*
X90401369Y-61377290D01*
X90382129Y-61382880D01*
X90363081Y-61386825D01*
X90343209Y-61389335D01*
X90302599Y-61405413D01*
X90291554Y-61409194D01*
X90249610Y-61421381D01*
X90232365Y-61431579D01*
X90214904Y-61440133D01*
X90196267Y-61447512D01*
X90160931Y-61473185D01*
X90151174Y-61479595D01*
X90113580Y-61501829D01*
X90099413Y-61515996D01*
X90084624Y-61528626D01*
X90068413Y-61540404D01*
X90040572Y-61574058D01*
X90032711Y-61582697D01*
X89536208Y-62079199D01*
X89520110Y-62092096D01*
X89472096Y-62143225D01*
X89469391Y-62146017D01*
X89449874Y-62165534D01*
X89447415Y-62168705D01*
X89439842Y-62177572D01*
X89409938Y-62209418D01*
X89409937Y-62209419D01*
X89399218Y-62220835D01*
X89398411Y-62220077D01*
X89374740Y-62246297D01*
X89321711Y-62267051D01*
X89264997Y-62261914D01*
X89216560Y-62231969D01*
X88850802Y-61866211D01*
X88837906Y-61850113D01*
X88786775Y-61802098D01*
X88783978Y-61799387D01*
X88764470Y-61779879D01*
X88761290Y-61777412D01*
X88752424Y-61769839D01*
X88720582Y-61739938D01*
X88703024Y-61730285D01*
X88686764Y-61719604D01*
X88670936Y-61707327D01*
X88630851Y-61689980D01*
X88620361Y-61684841D01*
X88582091Y-61663802D01*
X88562691Y-61658821D01*
X88544284Y-61652519D01*
X88525897Y-61644562D01*
X88482758Y-61637729D01*
X88471324Y-61635361D01*
X88429019Y-61624500D01*
X88408984Y-61624500D01*
X88389586Y-61622973D01*
X88379117Y-61621315D01*
X88369805Y-61619840D01*
X88369804Y-61619840D01*
X88336751Y-61622964D01*
X88326325Y-61623950D01*
X88314656Y-61624500D01*
X88232562Y-61624500D01*
X88175318Y-61610496D01*
X88131003Y-61571647D01*
X88109628Y-61516727D01*
X88109562Y-61516227D01*
X88109557Y-61483814D01*
X88110686Y-61475238D01*
X88110687Y-61475236D01*
X88125500Y-61362720D01*
X88125500Y-61137280D01*
X88110687Y-61024764D01*
X88110686Y-61024761D01*
X88109557Y-61016186D01*
X88109557Y-60983814D01*
X88110686Y-60975238D01*
X88110687Y-60975236D01*
X88125500Y-60862720D01*
X88125500Y-60637280D01*
X88110687Y-60524764D01*
X88110686Y-60524761D01*
X88109557Y-60516186D01*
X88109557Y-60483814D01*
X88110686Y-60475238D01*
X88110687Y-60475236D01*
X88125500Y-60362720D01*
X88125500Y-60137280D01*
X88110687Y-60024764D01*
X88052698Y-59884767D01*
X87960451Y-59764549D01*
X87840233Y-59672302D01*
X87840231Y-59672301D01*
X87700235Y-59614312D01*
X87587721Y-59599500D01*
X87587720Y-59599500D01*
X87270596Y-59599500D01*
X87203971Y-59580080D01*
X87158214Y-59527904D01*
X87147657Y-59459314D01*
X87150500Y-59437720D01*
X87150500Y-59144683D01*
X87162580Y-59091299D01*
X87196465Y-59048317D01*
X87245553Y-59024109D01*
X87300279Y-59023393D01*
X87368055Y-59037799D01*
X87557347Y-59037799D01*
X87557349Y-59037799D01*
X87680784Y-59011561D01*
X87742504Y-58998443D01*
X87915431Y-58921450D01*
X87959613Y-58889350D01*
X88068571Y-58810188D01*
X88126420Y-58745941D01*
X88195234Y-58669515D01*
X88289880Y-58505583D01*
X88348375Y-58325555D01*
X88368161Y-58137299D01*
X88348375Y-57949043D01*
X88318033Y-57855662D01*
X88289880Y-57769014D01*
X88195234Y-57605082D01*
X88068571Y-57464409D01*
X87915431Y-57353147D01*
X87742503Y-57276154D01*
X87557349Y-57236799D01*
X87557347Y-57236799D01*
X87368055Y-57236799D01*
X87368053Y-57236799D01*
X87182898Y-57276154D01*
X87009970Y-57353147D01*
X86856830Y-57464409D01*
X86730168Y-57605081D01*
X86725885Y-57612501D01*
X86680497Y-57657887D01*
X86618498Y-57674500D01*
X86257744Y-57674500D01*
X86237237Y-57672235D01*
X86167127Y-57674439D01*
X86163232Y-57674500D01*
X86135650Y-57674500D01*
X86131665Y-57675003D01*
X86120033Y-57675918D01*
X86076369Y-57677290D01*
X86057129Y-57682880D01*
X86038081Y-57686825D01*
X86018209Y-57689335D01*
X85977599Y-57705413D01*
X85966554Y-57709194D01*
X85924610Y-57721381D01*
X85907365Y-57731579D01*
X85889904Y-57740133D01*
X85871270Y-57747511D01*
X85835933Y-57773185D01*
X85826173Y-57779596D01*
X85788577Y-57801830D01*
X85774411Y-57815996D01*
X85759627Y-57828623D01*
X85743415Y-57840403D01*
X85720981Y-57867521D01*
X85706520Y-57880271D01*
X85652095Y-57938226D01*
X85649390Y-57941018D01*
X85629874Y-57960534D01*
X85627415Y-57963705D01*
X85619840Y-57972574D01*
X85600397Y-57993279D01*
X85540212Y-58028660D01*
X85470452Y-58025919D01*
X85413229Y-57985924D01*
X85386684Y-57921357D01*
X85385674Y-57911744D01*
X85341770Y-57776622D01*
X85327179Y-57731715D01*
X85232533Y-57567783D01*
X85105870Y-57427110D01*
X84952734Y-57315850D01*
X84880426Y-57283657D01*
X84830618Y-57261480D01*
X84780737Y-57221087D01*
X84757736Y-57161165D01*
X84755117Y-57136244D01*
X84708769Y-56993602D01*
X84704369Y-56935016D01*
X84727433Y-56880980D01*
X84793796Y-56792331D01*
X84844091Y-56657483D01*
X84850500Y-56597873D01*
X84850499Y-55002128D01*
X84850270Y-55000000D01*
X85994353Y-55000000D01*
X86014834Y-55142457D01*
X86074623Y-55273374D01*
X86146206Y-55355985D01*
X86168872Y-55382143D01*
X86289947Y-55459953D01*
X86428039Y-55500500D01*
X86571961Y-55500500D01*
X86710053Y-55459953D01*
X86831128Y-55382143D01*
X86925377Y-55273373D01*
X86985165Y-55142457D01*
X87005647Y-55000000D01*
X86985165Y-54857543D01*
X86958631Y-54799443D01*
X86925376Y-54726625D01*
X86831129Y-54617858D01*
X86831128Y-54617857D01*
X86710053Y-54540047D01*
X86571961Y-54499500D01*
X86428039Y-54499500D01*
X86289947Y-54540047D01*
X86168870Y-54617858D01*
X86074623Y-54726625D01*
X86014834Y-54857542D01*
X85994353Y-55000000D01*
X84850270Y-55000000D01*
X84844091Y-54942517D01*
X84793796Y-54807669D01*
X84731392Y-54724308D01*
X84709494Y-54676357D01*
X84709494Y-54623640D01*
X84731391Y-54575692D01*
X84793796Y-54492331D01*
X84844091Y-54357483D01*
X84850500Y-54297873D01*
X84850500Y-54249500D01*
X84867113Y-54187500D01*
X84912500Y-54142113D01*
X84974500Y-54125500D01*
X88025501Y-54125500D01*
X88087501Y-54142113D01*
G37*
%TD.AperFunction*%
%TA.AperFunction,Conductor*%
G36*
X96837822Y-47217038D02*
G01*
X96883189Y-47262240D01*
X96899951Y-47324049D01*
X96998320Y-74375730D01*
X96981858Y-74437920D01*
X96936451Y-74483493D01*
X96874321Y-74500181D01*
X71324000Y-74500181D01*
X71262000Y-74483568D01*
X71216613Y-74438181D01*
X71200000Y-74376181D01*
X71200000Y-72000000D01*
X92894531Y-72000000D01*
X92914364Y-72226689D01*
X92973261Y-72446497D01*
X93069432Y-72652735D01*
X93199953Y-72839140D01*
X93360859Y-73000046D01*
X93547264Y-73130567D01*
X93547265Y-73130567D01*
X93547266Y-73130568D01*
X93753504Y-73226739D01*
X93973308Y-73285635D01*
X94058261Y-73293067D01*
X94143214Y-73300500D01*
X94143216Y-73300500D01*
X94256784Y-73300500D01*
X94256786Y-73300500D01*
X94324747Y-73294553D01*
X94426692Y-73285635D01*
X94646496Y-73226739D01*
X94852734Y-73130568D01*
X95039139Y-73000047D01*
X95200047Y-72839139D01*
X95330568Y-72652734D01*
X95426739Y-72446496D01*
X95485635Y-72226692D01*
X95505468Y-72000000D01*
X95485635Y-71773308D01*
X95426739Y-71553504D01*
X95330568Y-71347266D01*
X95298037Y-71300807D01*
X95200046Y-71160859D01*
X95039140Y-70999953D01*
X94852735Y-70869432D01*
X94646497Y-70773261D01*
X94426689Y-70714364D01*
X94256786Y-70699500D01*
X94256784Y-70699500D01*
X94143216Y-70699500D01*
X94143214Y-70699500D01*
X93973310Y-70714364D01*
X93753502Y-70773261D01*
X93547264Y-70869432D01*
X93360859Y-70999953D01*
X93199953Y-71160859D01*
X93069432Y-71347264D01*
X92973261Y-71553502D01*
X92914364Y-71773310D01*
X92894531Y-72000000D01*
X71200000Y-72000000D01*
X71200000Y-70239999D01*
X72644340Y-70239999D01*
X72664936Y-70475407D01*
X72707683Y-70634939D01*
X72726097Y-70703663D01*
X72825965Y-70917830D01*
X72961505Y-71111401D01*
X73128599Y-71278495D01*
X73322170Y-71414035D01*
X73536337Y-71513903D01*
X73764592Y-71575063D01*
X74000000Y-71595659D01*
X74235408Y-71575063D01*
X74463663Y-71513903D01*
X74677830Y-71414035D01*
X74871401Y-71278495D01*
X75038495Y-71111401D01*
X75174035Y-70917830D01*
X75273903Y-70703663D01*
X75335063Y-70475408D01*
X75355659Y-70240000D01*
X75335063Y-70004592D01*
X75273903Y-69776337D01*
X75174035Y-69562171D01*
X75038495Y-69368599D01*
X74871401Y-69201505D01*
X74685839Y-69071573D01*
X74646975Y-69027257D01*
X74632964Y-68970000D01*
X74646975Y-68912743D01*
X74685839Y-68868426D01*
X74871401Y-68738495D01*
X75038495Y-68571401D01*
X75174035Y-68377830D01*
X75273903Y-68163663D01*
X75335063Y-67935408D01*
X75355659Y-67700000D01*
X75335063Y-67464592D01*
X75273903Y-67236337D01*
X75174035Y-67022171D01*
X75038495Y-66828599D01*
X74871401Y-66661505D01*
X74685839Y-66531573D01*
X74646976Y-66487257D01*
X74632965Y-66430000D01*
X74646976Y-66372743D01*
X74685839Y-66328426D01*
X74871401Y-66198495D01*
X75038495Y-66031401D01*
X75174035Y-65837830D01*
X75273903Y-65623663D01*
X75335063Y-65395408D01*
X75355659Y-65160000D01*
X75351380Y-65111097D01*
X75335063Y-64924592D01*
X75316680Y-64855985D01*
X75273903Y-64696337D01*
X75174035Y-64482171D01*
X75038495Y-64288599D01*
X74871401Y-64121505D01*
X74685839Y-63991573D01*
X74646974Y-63947255D01*
X74632964Y-63889999D01*
X74646975Y-63832742D01*
X74685837Y-63788428D01*
X74871401Y-63658495D01*
X75038495Y-63491401D01*
X75174035Y-63297830D01*
X75273903Y-63083663D01*
X75335063Y-62855408D01*
X75355659Y-62620000D01*
X75335063Y-62384592D01*
X75273903Y-62156337D01*
X75273901Y-62156334D01*
X75273201Y-62153719D01*
X75270183Y-62104367D01*
X75286688Y-62057759D01*
X75320093Y-62021306D01*
X75348308Y-62000807D01*
X75374106Y-61982064D01*
X75500768Y-61841392D01*
X75534556Y-61782869D01*
X76184500Y-61782869D01*
X76190909Y-61842484D01*
X76194842Y-61853029D01*
X76241204Y-61977331D01*
X76327454Y-62092546D01*
X76442669Y-62178796D01*
X76577517Y-62229091D01*
X76634037Y-62235167D01*
X76683840Y-62254353D01*
X76683842Y-62254350D01*
X76683904Y-62254377D01*
X76693663Y-62258137D01*
X76695745Y-62259649D01*
X76695748Y-62259651D01*
X76796511Y-62304514D01*
X76868675Y-62336644D01*
X77053830Y-62376000D01*
X77238447Y-62376000D01*
X77300447Y-62392613D01*
X77345834Y-62438000D01*
X77362447Y-62500000D01*
X77362447Y-62527296D01*
X77362950Y-62531281D01*
X77363865Y-62542914D01*
X77365237Y-62586573D01*
X77370826Y-62605807D01*
X77374772Y-62624863D01*
X77377282Y-62644739D01*
X77393361Y-62685351D01*
X77397144Y-62696398D01*
X77409329Y-62738338D01*
X77419527Y-62755582D01*
X77428083Y-62773047D01*
X77435461Y-62791679D01*
X77435462Y-62791680D01*
X77461127Y-62827006D01*
X77467540Y-62836769D01*
X77489773Y-62874363D01*
X77489776Y-62874366D01*
X77489777Y-62874367D01*
X77503942Y-62888532D01*
X77516574Y-62903322D01*
X77528353Y-62919534D01*
X77562005Y-62947373D01*
X77570646Y-62955236D01*
X78338181Y-63722772D01*
X78365061Y-63763000D01*
X78374500Y-63810453D01*
X78374500Y-63964947D01*
X78361712Y-64019792D01*
X78325984Y-64063325D01*
X78285483Y-64094401D01*
X78236835Y-64117084D01*
X78183159Y-64117083D01*
X78134512Y-64094399D01*
X78110480Y-64075958D01*
X78095815Y-64064705D01*
X78095814Y-64064704D01*
X78095812Y-64064703D01*
X77951196Y-64004802D01*
X77834966Y-63989500D01*
X77005034Y-63989500D01*
X76888803Y-64004802D01*
X76744187Y-64064703D01*
X76619998Y-64159998D01*
X76524703Y-64284187D01*
X76464802Y-64428803D01*
X76449500Y-64545034D01*
X76449500Y-65454966D01*
X76464802Y-65571196D01*
X76524703Y-65715812D01*
X76524704Y-65715814D01*
X76524705Y-65715815D01*
X76619998Y-65840002D01*
X76744185Y-65935295D01*
X76744186Y-65935295D01*
X76744187Y-65935296D01*
X76797952Y-65957566D01*
X76838181Y-65984445D01*
X76865061Y-66024674D01*
X76874500Y-66072127D01*
X76874500Y-67417256D01*
X76872235Y-67437762D01*
X76874439Y-67507873D01*
X76874500Y-67511768D01*
X76874500Y-67539349D01*
X76875003Y-67543334D01*
X76875918Y-67554967D01*
X76877290Y-67598626D01*
X76882879Y-67617860D01*
X76886825Y-67636916D01*
X76889335Y-67656792D01*
X76905414Y-67697404D01*
X76909197Y-67708451D01*
X76921382Y-67750391D01*
X76931580Y-67767635D01*
X76940136Y-67785100D01*
X76947514Y-67803732D01*
X76947515Y-67803733D01*
X76973180Y-67839059D01*
X76979593Y-67848822D01*
X77001826Y-67886416D01*
X77001829Y-67886419D01*
X77001830Y-67886420D01*
X77015995Y-67900585D01*
X77028627Y-67915375D01*
X77040406Y-67931587D01*
X77074058Y-67959426D01*
X77082699Y-67967289D01*
X77926636Y-68811226D01*
X77957067Y-68861150D01*
X77961238Y-68919469D01*
X77938223Y-68973216D01*
X77901205Y-69022666D01*
X77850909Y-69157516D01*
X77844500Y-69217130D01*
X77844500Y-70782869D01*
X77850642Y-70840001D01*
X77850909Y-70842483D01*
X77901204Y-70977331D01*
X77987454Y-71092546D01*
X78102669Y-71178796D01*
X78237517Y-71229091D01*
X78297127Y-71235500D01*
X79362872Y-71235499D01*
X79422483Y-71229091D01*
X79557331Y-71178796D01*
X79672546Y-71092546D01*
X79758796Y-70977331D01*
X79809091Y-70842483D01*
X79815500Y-70782873D01*
X79815500Y-70749500D01*
X79832113Y-70687500D01*
X79877500Y-70642113D01*
X79939500Y-70625500D01*
X82504441Y-70625500D01*
X82551894Y-70634939D01*
X82592122Y-70661819D01*
X82619002Y-70702047D01*
X82624705Y-70715815D01*
X82719998Y-70840002D01*
X82844185Y-70935295D01*
X82988804Y-70995198D01*
X83105034Y-71010500D01*
X83934966Y-71010500D01*
X84051196Y-70995198D01*
X84195815Y-70935295D01*
X84234512Y-70905600D01*
X84283161Y-70882915D01*
X84336839Y-70882915D01*
X84385488Y-70905601D01*
X84424186Y-70935296D01*
X84496494Y-70965246D01*
X84568804Y-70995198D01*
X84685034Y-71010500D01*
X85514966Y-71010500D01*
X85631196Y-70995198D01*
X85775815Y-70935295D01*
X85900002Y-70840002D01*
X85950636Y-70774013D01*
X85994168Y-70738288D01*
X86049012Y-70725500D01*
X86289548Y-70725500D01*
X86337001Y-70734939D01*
X86377229Y-70761819D01*
X86999196Y-71383787D01*
X87012096Y-71399888D01*
X87063223Y-71447900D01*
X87066019Y-71450610D01*
X87085529Y-71470120D01*
X87088711Y-71472588D01*
X87097571Y-71480155D01*
X87129417Y-71510061D01*
X87129418Y-71510062D01*
X87146970Y-71519711D01*
X87163238Y-71530397D01*
X87179064Y-71542673D01*
X87219146Y-71560017D01*
X87229633Y-71565155D01*
X87267907Y-71586197D01*
X87276410Y-71588379D01*
X87287308Y-71591178D01*
X87305713Y-71597478D01*
X87324104Y-71605437D01*
X87367250Y-71612270D01*
X87378668Y-71614635D01*
X87420981Y-71625500D01*
X87441016Y-71625500D01*
X87460415Y-71627027D01*
X87480196Y-71630160D01*
X87523674Y-71626050D01*
X87535344Y-71625500D01*
X89717256Y-71625500D01*
X89737762Y-71627764D01*
X89740665Y-71627672D01*
X89740667Y-71627673D01*
X89807872Y-71625561D01*
X89811768Y-71625500D01*
X89839349Y-71625500D01*
X89839350Y-71625500D01*
X89843319Y-71624998D01*
X89854965Y-71624080D01*
X89898627Y-71622709D01*
X89917859Y-71617120D01*
X89936918Y-71613174D01*
X89944099Y-71612267D01*
X89956792Y-71610664D01*
X89997407Y-71594582D01*
X90008444Y-71590803D01*
X90050390Y-71578618D01*
X90067629Y-71568422D01*
X90085102Y-71559862D01*
X90103732Y-71552486D01*
X90139064Y-71526814D01*
X90148830Y-71520400D01*
X90186418Y-71498171D01*
X90186417Y-71498171D01*
X90186420Y-71498170D01*
X90200585Y-71484004D01*
X90215373Y-71471373D01*
X90231587Y-71459594D01*
X90259438Y-71425926D01*
X90267279Y-71417309D01*
X90383786Y-71300802D01*
X90399887Y-71287904D01*
X90401874Y-71285787D01*
X90401877Y-71285786D01*
X90447932Y-71236741D01*
X90450613Y-71233976D01*
X90455499Y-71229090D01*
X90470120Y-71214470D01*
X90472581Y-71211295D01*
X90480152Y-71202431D01*
X90510062Y-71170582D01*
X90519713Y-71153026D01*
X90530393Y-71136767D01*
X90542674Y-71120936D01*
X90559502Y-71082045D01*
X90587904Y-71041385D01*
X90629967Y-71015110D01*
X90727331Y-70978796D01*
X90842546Y-70892546D01*
X90928796Y-70777331D01*
X90979091Y-70642483D01*
X90985500Y-70582873D01*
X90985499Y-69017128D01*
X90979091Y-68957517D01*
X90928796Y-68822669D01*
X90842546Y-68707454D01*
X90727331Y-68621204D01*
X90592483Y-68570909D01*
X90532873Y-68564500D01*
X90532869Y-68564500D01*
X89467130Y-68564500D01*
X89407515Y-68570909D01*
X89272669Y-68621204D01*
X89157454Y-68707454D01*
X89071204Y-68822668D01*
X89020909Y-68957515D01*
X89020909Y-68957517D01*
X89014500Y-69017127D01*
X89014500Y-69652098D01*
X89014501Y-70250500D01*
X88997888Y-70312500D01*
X88952501Y-70357887D01*
X88890501Y-70374500D01*
X87810453Y-70374500D01*
X87763000Y-70365061D01*
X87722772Y-70338181D01*
X87100802Y-69716211D01*
X87087906Y-69700113D01*
X87036775Y-69652098D01*
X87033978Y-69649387D01*
X87014470Y-69629879D01*
X87011290Y-69627412D01*
X87002424Y-69619839D01*
X86970582Y-69589938D01*
X86953024Y-69580285D01*
X86936764Y-69569604D01*
X86920936Y-69557327D01*
X86880851Y-69539980D01*
X86870361Y-69534841D01*
X86832091Y-69513802D01*
X86812691Y-69508821D01*
X86794284Y-69502519D01*
X86775897Y-69494562D01*
X86732758Y-69487729D01*
X86721324Y-69485361D01*
X86679019Y-69474500D01*
X86658984Y-69474500D01*
X86639586Y-69472973D01*
X86632162Y-69471797D01*
X86619805Y-69469840D01*
X86619804Y-69469840D01*
X86586751Y-69472964D01*
X86576325Y-69473950D01*
X86564656Y-69474500D01*
X86285531Y-69474500D01*
X86245372Y-69467817D01*
X86235718Y-69462609D01*
X86235312Y-69463548D01*
X86180850Y-69439979D01*
X86170362Y-69434841D01*
X86132091Y-69413802D01*
X86112691Y-69408821D01*
X86094280Y-69402517D01*
X86079487Y-69396115D01*
X86040368Y-69369303D01*
X86014176Y-69329767D01*
X85995296Y-69284187D01*
X85995295Y-69284186D01*
X85995295Y-69284185D01*
X85900002Y-69159998D01*
X85775815Y-69064705D01*
X85775814Y-69064704D01*
X85775812Y-69064703D01*
X85631196Y-69004802D01*
X85514966Y-68989500D01*
X84685034Y-68989500D01*
X84568803Y-69004802D01*
X84424185Y-69064704D01*
X84385486Y-69094399D01*
X84336838Y-69117084D01*
X84283162Y-69117084D01*
X84234514Y-69094399D01*
X84195814Y-69064704D01*
X84051196Y-69004802D01*
X83934966Y-68989500D01*
X83105034Y-68989500D01*
X82988803Y-69004802D01*
X82844187Y-69064703D01*
X82719998Y-69159998D01*
X82624704Y-69284186D01*
X82619002Y-69297953D01*
X82592122Y-69338181D01*
X82551894Y-69365061D01*
X82504441Y-69374500D01*
X79939499Y-69374500D01*
X79877499Y-69357887D01*
X79832112Y-69312500D01*
X79815499Y-69250500D01*
X79815499Y-69217130D01*
X79813820Y-69201508D01*
X79809091Y-69157517D01*
X79758796Y-69022669D01*
X79672546Y-68907454D01*
X79557331Y-68821204D01*
X79527626Y-68810124D01*
X79480086Y-68778310D01*
X79451886Y-68728542D01*
X79447118Y-68712131D01*
X79443174Y-68693082D01*
X79440664Y-68673206D01*
X79424588Y-68632604D01*
X79420804Y-68621553D01*
X79414881Y-68601168D01*
X79408618Y-68579610D01*
X79398414Y-68562355D01*
X79389861Y-68544895D01*
X79382486Y-68526269D01*
X79382486Y-68526268D01*
X79356808Y-68490925D01*
X79350401Y-68481171D01*
X79328169Y-68443579D01*
X79314006Y-68429416D01*
X79301367Y-68414617D01*
X79289595Y-68398413D01*
X79255941Y-68370573D01*
X79247299Y-68362709D01*
X78161819Y-67277228D01*
X78134939Y-67237000D01*
X78125500Y-67189547D01*
X78125500Y-67005117D01*
X78138664Y-66949517D01*
X78175361Y-66905722D01*
X78227799Y-66883031D01*
X78284845Y-66886261D01*
X78315076Y-66903631D01*
X78315690Y-66902515D01*
X78336578Y-66913998D01*
X78355883Y-66927117D01*
X78362179Y-66932326D01*
X78412363Y-66955941D01*
X78419302Y-66959476D01*
X78454120Y-66978617D01*
X78467908Y-66986197D01*
X78475822Y-66988228D01*
X78497774Y-66996132D01*
X78500425Y-66997379D01*
X78505174Y-66999614D01*
X78559673Y-67010010D01*
X78567263Y-67011707D01*
X78620981Y-67025500D01*
X78629151Y-67025500D01*
X78652385Y-67027696D01*
X78660412Y-67029227D01*
X78715759Y-67025745D01*
X78723545Y-67025500D01*
X78901811Y-67025500D01*
X78922317Y-67027764D01*
X78925220Y-67027672D01*
X78925222Y-67027673D01*
X78992427Y-67025561D01*
X78996323Y-67025500D01*
X79023904Y-67025500D01*
X79023905Y-67025500D01*
X79027874Y-67024998D01*
X79039520Y-67024080D01*
X79083182Y-67022709D01*
X79102414Y-67017120D01*
X79121473Y-67013174D01*
X79133080Y-67011708D01*
X79141347Y-67010664D01*
X79181962Y-66994582D01*
X79192999Y-66990803D01*
X79234945Y-66978618D01*
X79252184Y-66968422D01*
X79269657Y-66959862D01*
X79270632Y-66959476D01*
X79288287Y-66952486D01*
X79323619Y-66926814D01*
X79333385Y-66920400D01*
X79335177Y-66919340D01*
X79370975Y-66898170D01*
X79385140Y-66884004D01*
X79399928Y-66871373D01*
X79416142Y-66859594D01*
X79443993Y-66825926D01*
X79451834Y-66817309D01*
X80283786Y-65985357D01*
X80299887Y-65972459D01*
X80301874Y-65970342D01*
X80301877Y-65970341D01*
X80347932Y-65921296D01*
X80350613Y-65918531D01*
X80370120Y-65899025D01*
X80372581Y-65895850D01*
X80380152Y-65886986D01*
X80410062Y-65855137D01*
X80419713Y-65837581D01*
X80430393Y-65821322D01*
X80442674Y-65805491D01*
X80460018Y-65765406D01*
X80465160Y-65754911D01*
X80486197Y-65716647D01*
X80491178Y-65697243D01*
X80497480Y-65678838D01*
X80505438Y-65660450D01*
X80512270Y-65617303D01*
X80514639Y-65605871D01*
X80525500Y-65563575D01*
X80525500Y-65543539D01*
X80527027Y-65524140D01*
X80530160Y-65504359D01*
X80526050Y-65460880D01*
X80525500Y-65449211D01*
X80525500Y-65084895D01*
X80542113Y-65022895D01*
X80587501Y-64977507D01*
X80649501Y-64960895D01*
X80711502Y-64977509D01*
X80745276Y-65011285D01*
X80746447Y-65010232D01*
X80881830Y-65160590D01*
X81034970Y-65271852D01*
X81207898Y-65348845D01*
X81393053Y-65388201D01*
X81393055Y-65388201D01*
X81473744Y-65388201D01*
X81513911Y-65394887D01*
X81549744Y-65414221D01*
X81553613Y-65417223D01*
X81569734Y-65424198D01*
X81593705Y-65434572D01*
X81604192Y-65439709D01*
X81642457Y-65460746D01*
X81661865Y-65465729D01*
X81680259Y-65472027D01*
X81698654Y-65479987D01*
X81741803Y-65486820D01*
X81753229Y-65489187D01*
X81768771Y-65493178D01*
X81795529Y-65500049D01*
X81795530Y-65500049D01*
X81815565Y-65500049D01*
X81834962Y-65501575D01*
X81854745Y-65504709D01*
X81898223Y-65500599D01*
X81909893Y-65500049D01*
X82839597Y-65500049D01*
X82887050Y-65509488D01*
X82927277Y-65536367D01*
X83106721Y-65715812D01*
X83274696Y-65883787D01*
X83287596Y-65899888D01*
X83338723Y-65947900D01*
X83341519Y-65950610D01*
X83361029Y-65970120D01*
X83364211Y-65972588D01*
X83373071Y-65980155D01*
X83378615Y-65985362D01*
X83404918Y-66010062D01*
X83422470Y-66019711D01*
X83438738Y-66030397D01*
X83454564Y-66042673D01*
X83494646Y-66060017D01*
X83505133Y-66065155D01*
X83543407Y-66086197D01*
X83551910Y-66088379D01*
X83562808Y-66091178D01*
X83581213Y-66097478D01*
X83599604Y-66105437D01*
X83642750Y-66112270D01*
X83654168Y-66114635D01*
X83696481Y-66125500D01*
X83716516Y-66125500D01*
X83735915Y-66127027D01*
X83755696Y-66130160D01*
X83799174Y-66126050D01*
X83810844Y-66125500D01*
X83920500Y-66125500D01*
X83982500Y-66142113D01*
X84027887Y-66187500D01*
X84044500Y-66249500D01*
X84044500Y-67682869D01*
X84048042Y-67715812D01*
X84050909Y-67742483D01*
X84101204Y-67877331D01*
X84187454Y-67992546D01*
X84302669Y-68078796D01*
X84437517Y-68129091D01*
X84497127Y-68135500D01*
X85562872Y-68135499D01*
X85622483Y-68129091D01*
X85757331Y-68078796D01*
X85872546Y-67992546D01*
X85958796Y-67877331D01*
X86009091Y-67742483D01*
X86015500Y-67682873D01*
X86015499Y-66249499D01*
X86032112Y-66187500D01*
X86077499Y-66142113D01*
X86139499Y-66125500D01*
X90274855Y-66125500D01*
X90333308Y-66140142D01*
X90377957Y-66180609D01*
X90398258Y-66237345D01*
X90389416Y-66296952D01*
X90334802Y-66428803D01*
X90319500Y-66545034D01*
X90319500Y-67454966D01*
X90334802Y-67571196D01*
X90394703Y-67715812D01*
X90394704Y-67715814D01*
X90394705Y-67715815D01*
X90489998Y-67840002D01*
X90614185Y-67935295D01*
X90614186Y-67935295D01*
X90614187Y-67935296D01*
X90646948Y-67948866D01*
X90758804Y-67995198D01*
X90875034Y-68010500D01*
X91704966Y-68010500D01*
X91821196Y-67995198D01*
X91965815Y-67935295D01*
X92090002Y-67840002D01*
X92185295Y-67715815D01*
X92245198Y-67571196D01*
X92260500Y-67454966D01*
X92260500Y-66545034D01*
X92245198Y-66428804D01*
X92185295Y-66284185D01*
X92151124Y-66239652D01*
X92132081Y-66204024D01*
X92125500Y-66164166D01*
X92125500Y-65570849D01*
X92127696Y-65547615D01*
X92129227Y-65539587D01*
X92125745Y-65484241D01*
X92125500Y-65476455D01*
X92125500Y-65460650D01*
X92124782Y-65454966D01*
X92123517Y-65444957D01*
X92122789Y-65437266D01*
X92119304Y-65381862D01*
X92116777Y-65374086D01*
X92111688Y-65351317D01*
X92110664Y-65343208D01*
X92090233Y-65291606D01*
X92087608Y-65284315D01*
X92070467Y-65231559D01*
X92066087Y-65224657D01*
X92055495Y-65203869D01*
X92052486Y-65196268D01*
X92027723Y-65162184D01*
X92005972Y-65111097D01*
X92008697Y-65055640D01*
X92035351Y-65006931D01*
X92080585Y-64974740D01*
X92175815Y-64935295D01*
X92300002Y-64840002D01*
X92395295Y-64715815D01*
X92455198Y-64571196D01*
X92470500Y-64454966D01*
X92470500Y-63545034D01*
X92455198Y-63428804D01*
X92395295Y-63284185D01*
X92300002Y-63159998D01*
X92300000Y-63159996D01*
X92299999Y-63159995D01*
X92213712Y-63093784D01*
X92180746Y-63055525D01*
X92165770Y-63007293D01*
X92171267Y-62957093D01*
X92185674Y-62912756D01*
X92205460Y-62724500D01*
X92185674Y-62536244D01*
X92127179Y-62356216D01*
X92127178Y-62356215D01*
X92126429Y-62353908D01*
X92123786Y-62286643D01*
X92156677Y-62227911D01*
X92383786Y-62000802D01*
X92399887Y-61987904D01*
X92401874Y-61985787D01*
X92401877Y-61985786D01*
X92447932Y-61936741D01*
X92450613Y-61933976D01*
X92470120Y-61914470D01*
X92472581Y-61911295D01*
X92480152Y-61902431D01*
X92510062Y-61870582D01*
X92519712Y-61853027D01*
X92530400Y-61836757D01*
X92542673Y-61820936D01*
X92560022Y-61780841D01*
X92565157Y-61770362D01*
X92586197Y-61732092D01*
X92591178Y-61712690D01*
X92597478Y-61694287D01*
X92605438Y-61675895D01*
X92612270Y-61632748D01*
X92614639Y-61621315D01*
X92625500Y-61579020D01*
X92625500Y-61558984D01*
X92627027Y-61539585D01*
X92630160Y-61519804D01*
X92626050Y-61476325D01*
X92625500Y-61464656D01*
X92625500Y-61302872D01*
X92635512Y-61254059D01*
X92663931Y-61213128D01*
X92706168Y-61186690D01*
X92727329Y-61178797D01*
X92727329Y-61178796D01*
X92727331Y-61178796D01*
X92842546Y-61092546D01*
X92928796Y-60977331D01*
X92979091Y-60842483D01*
X92985500Y-60782873D01*
X92985499Y-59217128D01*
X92979091Y-59157517D01*
X92928796Y-59022669D01*
X92842546Y-58907454D01*
X92831427Y-58899130D01*
X92727329Y-58821202D01*
X92706168Y-58813310D01*
X92663931Y-58786872D01*
X92635512Y-58745941D01*
X92625500Y-58697128D01*
X92625500Y-55598687D01*
X92633736Y-55554249D01*
X92657347Y-55515717D01*
X92732533Y-55432216D01*
X92827179Y-55268284D01*
X92885674Y-55088256D01*
X92905460Y-54900000D01*
X92885674Y-54711744D01*
X92827179Y-54531716D01*
X92827179Y-54531715D01*
X92732533Y-54367783D01*
X92605870Y-54227110D01*
X92452730Y-54115848D01*
X92279802Y-54038855D01*
X92094648Y-53999500D01*
X92094646Y-53999500D01*
X92085453Y-53999500D01*
X92038000Y-53990061D01*
X91997772Y-53963181D01*
X91534591Y-53500000D01*
X93494353Y-53500000D01*
X93514834Y-53642457D01*
X93574623Y-53773374D01*
X93664846Y-53877497D01*
X93668872Y-53882143D01*
X93789947Y-53959953D01*
X93928039Y-54000500D01*
X94071961Y-54000500D01*
X94210053Y-53959953D01*
X94331128Y-53882143D01*
X94425377Y-53773373D01*
X94485165Y-53642457D01*
X94505647Y-53500000D01*
X94485414Y-53359275D01*
X94485165Y-53357542D01*
X94425376Y-53226625D01*
X94331129Y-53117858D01*
X94331128Y-53117857D01*
X94210053Y-53040047D01*
X94071961Y-52999500D01*
X93928039Y-52999500D01*
X93789947Y-53040047D01*
X93668870Y-53117858D01*
X93574623Y-53226625D01*
X93514834Y-53357542D01*
X93494353Y-53500000D01*
X91534591Y-53500000D01*
X91186818Y-53152227D01*
X91159938Y-53111999D01*
X91150499Y-53064546D01*
X91150499Y-51552130D01*
X91150499Y-51552127D01*
X91144091Y-51492517D01*
X91093796Y-51357669D01*
X91007546Y-51242454D01*
X90892331Y-51156204D01*
X90757483Y-51105909D01*
X90697873Y-51099500D01*
X90697869Y-51099500D01*
X88602130Y-51099500D01*
X88542515Y-51105909D01*
X88407669Y-51156204D01*
X88292454Y-51242454D01*
X88206204Y-51357668D01*
X88155909Y-51492516D01*
X88149500Y-51552131D01*
X88149500Y-52750500D01*
X88132887Y-52812500D01*
X88087500Y-52857887D01*
X88025500Y-52874500D01*
X86072142Y-52874500D01*
X86012715Y-52859332D01*
X85967826Y-52817539D01*
X85948458Y-52759345D01*
X85959348Y-52698988D01*
X85985165Y-52642457D01*
X85988702Y-52617857D01*
X86005647Y-52500000D01*
X85985165Y-52357543D01*
X85925377Y-52226627D01*
X85925376Y-52226626D01*
X85925376Y-52226625D01*
X85831129Y-52117858D01*
X85831128Y-52117857D01*
X85710053Y-52040047D01*
X85571961Y-51999500D01*
X85428039Y-51999500D01*
X85289947Y-52040047D01*
X85168870Y-52117858D01*
X85074623Y-52226625D01*
X85014834Y-52357542D01*
X85003717Y-52434865D01*
X84982327Y-52488663D01*
X84938845Y-52526887D01*
X84882749Y-52541204D01*
X84826268Y-52528494D01*
X84781714Y-52491529D01*
X84707546Y-52392454D01*
X84592331Y-52306204D01*
X84457483Y-52255909D01*
X84397873Y-52249500D01*
X84397869Y-52249500D01*
X82302130Y-52249500D01*
X82242515Y-52255909D01*
X82107669Y-52306204D01*
X81992454Y-52392454D01*
X81906204Y-52507668D01*
X81863373Y-52622503D01*
X81855909Y-52642517D01*
X81849838Y-52698988D01*
X81849500Y-52702131D01*
X81849500Y-53714546D01*
X81840061Y-53761999D01*
X81813181Y-53802227D01*
X81564527Y-54050882D01*
X81524299Y-54077762D01*
X81476846Y-54087201D01*
X81417651Y-54087201D01*
X81232496Y-54126556D01*
X81059568Y-54203549D01*
X80906428Y-54314811D01*
X80779765Y-54455484D01*
X80685119Y-54619416D01*
X80626625Y-54799443D01*
X80606839Y-54987701D01*
X80626625Y-55175958D01*
X80685119Y-55355985D01*
X80779765Y-55519917D01*
X80906428Y-55660590D01*
X81059568Y-55771852D01*
X81232496Y-55848845D01*
X81417651Y-55888201D01*
X81417653Y-55888201D01*
X81606945Y-55888201D01*
X81606947Y-55888201D01*
X81699719Y-55868482D01*
X81754447Y-55869198D01*
X81803536Y-55893406D01*
X81837421Y-55936389D01*
X81849500Y-55989772D01*
X81849500Y-56597869D01*
X81855909Y-56657484D01*
X81874712Y-56707896D01*
X81906204Y-56792331D01*
X81992454Y-56907546D01*
X82064203Y-56961257D01*
X82103704Y-57011303D01*
X82113116Y-57074363D01*
X82089949Y-57133764D01*
X82040329Y-57173802D01*
X82009623Y-57187473D01*
X81856485Y-57298734D01*
X81729822Y-57439407D01*
X81635176Y-57603339D01*
X81576682Y-57783366D01*
X81557728Y-57963705D01*
X81556896Y-57971624D01*
X81562891Y-58028660D01*
X81576682Y-58159881D01*
X81635176Y-58339908D01*
X81729822Y-58503840D01*
X81856485Y-58644513D01*
X82009625Y-58755775D01*
X82182553Y-58832768D01*
X82367708Y-58872124D01*
X82367710Y-58872124D01*
X82557002Y-58872124D01*
X82557004Y-58872124D01*
X82680439Y-58845886D01*
X82742159Y-58832768D01*
X82915086Y-58755775D01*
X82976044Y-58711485D01*
X83038228Y-58688267D01*
X83103480Y-58700448D01*
X83153100Y-58744540D01*
X83172868Y-58807907D01*
X83174439Y-58857871D01*
X83174500Y-58861768D01*
X83174500Y-58889349D01*
X83175003Y-58893334D01*
X83175918Y-58904967D01*
X83177290Y-58948626D01*
X83182879Y-58967860D01*
X83186825Y-58986916D01*
X83189335Y-59006792D01*
X83205414Y-59047404D01*
X83209197Y-59058451D01*
X83221382Y-59100391D01*
X83231580Y-59117635D01*
X83240136Y-59135100D01*
X83247514Y-59153732D01*
X83250263Y-59157516D01*
X83273180Y-59189059D01*
X83279593Y-59198822D01*
X83301828Y-59236418D01*
X83313179Y-59247769D01*
X83340061Y-59287998D01*
X83349500Y-59335452D01*
X83349500Y-59437720D01*
X83352343Y-59459314D01*
X83341786Y-59527904D01*
X83296029Y-59580080D01*
X83229404Y-59599500D01*
X82912279Y-59599500D01*
X82799764Y-59614312D01*
X82659768Y-59672301D01*
X82539549Y-59764549D01*
X82447301Y-59884768D01*
X82389312Y-60024764D01*
X82374500Y-60137279D01*
X82374500Y-60362723D01*
X82390441Y-60483816D01*
X82390441Y-60516184D01*
X82374500Y-60637277D01*
X82374500Y-60862723D01*
X82390441Y-60983815D01*
X82390441Y-61016184D01*
X82377115Y-61117409D01*
X82351254Y-61178372D01*
X82297705Y-61217333D01*
X82231741Y-61223178D01*
X82172176Y-61194240D01*
X82154377Y-61178549D01*
X82147096Y-61174839D01*
X82127397Y-61162338D01*
X82120937Y-61157327D01*
X82070020Y-61135293D01*
X82062975Y-61131978D01*
X82046341Y-61123503D01*
X82013565Y-61106803D01*
X82005595Y-61105021D01*
X81983407Y-61097811D01*
X81975897Y-61094561D01*
X81921098Y-61085882D01*
X81913449Y-61084423D01*
X81859333Y-61072327D01*
X81851165Y-61072584D01*
X81827884Y-61071119D01*
X81819804Y-61069839D01*
X81764579Y-61075059D01*
X81756808Y-61075548D01*
X81701368Y-61077290D01*
X81693520Y-61079571D01*
X81670605Y-61083943D01*
X81662467Y-61084712D01*
X81641752Y-61092170D01*
X81599752Y-61099500D01*
X81405351Y-61099500D01*
X81286842Y-61124689D01*
X81230224Y-61123503D01*
X81180037Y-61097266D01*
X81146751Y-61051450D01*
X81137307Y-60995613D01*
X81153675Y-60941399D01*
X81156052Y-60937283D01*
X81239478Y-60792784D01*
X81297973Y-60612756D01*
X81317759Y-60424500D01*
X81297973Y-60236244D01*
X81239478Y-60056216D01*
X81239478Y-60056215D01*
X81144832Y-59892283D01*
X81018169Y-59751610D01*
X80865029Y-59640348D01*
X80692101Y-59563355D01*
X80506947Y-59524000D01*
X80506945Y-59524000D01*
X80317653Y-59524000D01*
X80317651Y-59524000D01*
X80132496Y-59563355D01*
X79959568Y-59640348D01*
X79806428Y-59751610D01*
X79679765Y-59892283D01*
X79585119Y-60056215D01*
X79526625Y-60236242D01*
X79513516Y-60360965D01*
X79502939Y-60399624D01*
X79480585Y-60432889D01*
X79452097Y-60463224D01*
X79449392Y-60466016D01*
X79429874Y-60485534D01*
X79427415Y-60488705D01*
X79419842Y-60497572D01*
X79389935Y-60529420D01*
X79380285Y-60546974D01*
X79369609Y-60563228D01*
X79357326Y-60579063D01*
X79339975Y-60619158D01*
X79334838Y-60629644D01*
X79313802Y-60667907D01*
X79308821Y-60687309D01*
X79302520Y-60705711D01*
X79294561Y-60724102D01*
X79287728Y-60767242D01*
X79285360Y-60778674D01*
X79274500Y-60820978D01*
X79274500Y-60841016D01*
X79272973Y-60860413D01*
X79269840Y-60880196D01*
X79272039Y-60903463D01*
X79273950Y-60923675D01*
X79274500Y-60935344D01*
X79274500Y-62590548D01*
X79260985Y-62646843D01*
X79223385Y-62690866D01*
X79169898Y-62713021D01*
X79112182Y-62708479D01*
X79062819Y-62678229D01*
X78927504Y-62542914D01*
X78649766Y-62265175D01*
X78622886Y-62224947D01*
X78613447Y-62177494D01*
X78613447Y-60436573D01*
X78621683Y-60392135D01*
X78645294Y-60353603D01*
X78732533Y-60256716D01*
X78744353Y-60236244D01*
X78827179Y-60092784D01*
X78849961Y-60022668D01*
X78885674Y-59912756D01*
X78905460Y-59724500D01*
X78885674Y-59536244D01*
X78842111Y-59402171D01*
X78827179Y-59356215D01*
X78732533Y-59192283D01*
X78605870Y-59051610D01*
X78479527Y-58959817D01*
X78440213Y-58912296D01*
X78428657Y-58851713D01*
X78447715Y-58793056D01*
X78492675Y-58750837D01*
X78552409Y-58735499D01*
X79362872Y-58735499D01*
X79422483Y-58729091D01*
X79557331Y-58678796D01*
X79672546Y-58592546D01*
X79697988Y-58558558D01*
X79753646Y-58516790D01*
X79823036Y-58511578D01*
X79857520Y-58518908D01*
X80046812Y-58518908D01*
X80046814Y-58518908D01*
X80170250Y-58492670D01*
X80231969Y-58479552D01*
X80404896Y-58402559D01*
X80454980Y-58366171D01*
X80558036Y-58291297D01*
X80684699Y-58150624D01*
X80779345Y-57986692D01*
X80791578Y-57949043D01*
X80837840Y-57806664D01*
X80857626Y-57618408D01*
X80837840Y-57430152D01*
X80800701Y-57315850D01*
X80779345Y-57250123D01*
X80684699Y-57086191D01*
X80558036Y-56945518D01*
X80404896Y-56834256D01*
X80231968Y-56757263D01*
X80046814Y-56717908D01*
X80046812Y-56717908D01*
X79917711Y-56717908D01*
X79868898Y-56707896D01*
X79827968Y-56679478D01*
X79801529Y-56637242D01*
X79786844Y-56597869D01*
X79758796Y-56522669D01*
X79672546Y-56407454D01*
X79557331Y-56321204D01*
X79422483Y-56270909D01*
X79362873Y-56264500D01*
X79362869Y-56264500D01*
X79131734Y-56264500D01*
X79081299Y-56253780D01*
X79047776Y-56238854D01*
X78862624Y-56199500D01*
X78862622Y-56199500D01*
X78673330Y-56199500D01*
X78673328Y-56199500D01*
X78488173Y-56238855D01*
X78454651Y-56253780D01*
X78404218Y-56264500D01*
X78297130Y-56264500D01*
X78237515Y-56270909D01*
X78102669Y-56321204D01*
X77987454Y-56407454D01*
X77901204Y-56522668D01*
X77850909Y-56657516D01*
X77849306Y-56672419D01*
X77845493Y-56707896D01*
X77844500Y-56717130D01*
X77844500Y-58282869D01*
X77846301Y-58299617D01*
X77850909Y-58342483D01*
X77901204Y-58477331D01*
X77987454Y-58592546D01*
X77998391Y-58600733D01*
X78036874Y-58648488D01*
X78047764Y-58708846D01*
X78028396Y-58767039D01*
X77983507Y-58808832D01*
X77924080Y-58824000D01*
X77905352Y-58824000D01*
X77720197Y-58863355D01*
X77547269Y-58940348D01*
X77394129Y-59051610D01*
X77267466Y-59192283D01*
X77172820Y-59356215D01*
X77114326Y-59536242D01*
X77102006Y-59653462D01*
X77081486Y-59709840D01*
X77036900Y-59749985D01*
X76978685Y-59764500D01*
X76637130Y-59764500D01*
X76577515Y-59770909D01*
X76442669Y-59821204D01*
X76327454Y-59907454D01*
X76241204Y-60022668D01*
X76190909Y-60157516D01*
X76184500Y-60217130D01*
X76184500Y-61782869D01*
X75534556Y-61782869D01*
X75595414Y-61677460D01*
X75653909Y-61497432D01*
X75673695Y-61309176D01*
X75653909Y-61120920D01*
X75640247Y-61078876D01*
X75637166Y-61013510D01*
X75667788Y-60955676D01*
X75685062Y-60937283D01*
X75694713Y-60919727D01*
X75705393Y-60903468D01*
X75717674Y-60887637D01*
X75735018Y-60847552D01*
X75740160Y-60837057D01*
X75749000Y-60820978D01*
X75761197Y-60798793D01*
X75766178Y-60779389D01*
X75772480Y-60760984D01*
X75780438Y-60742596D01*
X75787270Y-60699449D01*
X75789639Y-60688017D01*
X75800500Y-60645721D01*
X75800500Y-60625685D01*
X75802027Y-60606286D01*
X75805160Y-60586505D01*
X75801050Y-60543026D01*
X75800500Y-60531357D01*
X75800500Y-58797744D01*
X75802764Y-58777237D01*
X75801994Y-58752743D01*
X75800561Y-58707127D01*
X75800500Y-58703232D01*
X75800500Y-58675653D01*
X75799997Y-58671672D01*
X75799080Y-58660019D01*
X75798593Y-58644512D01*
X75797709Y-58616373D01*
X75792120Y-58597140D01*
X75788174Y-58578082D01*
X75785664Y-58558206D01*
X75769588Y-58517604D01*
X75765804Y-58506553D01*
X75757313Y-58477330D01*
X75753618Y-58464610D01*
X75743414Y-58447355D01*
X75734861Y-58429895D01*
X75727486Y-58411268D01*
X75701808Y-58375925D01*
X75695401Y-58366171D01*
X75673170Y-58328580D01*
X75659006Y-58314416D01*
X75646367Y-58299617D01*
X75634595Y-58283413D01*
X75600941Y-58255573D01*
X75592299Y-58247709D01*
X75340237Y-57995647D01*
X75308143Y-57940059D01*
X75308143Y-57875872D01*
X75310381Y-57867521D01*
X75335063Y-57775408D01*
X75355659Y-57540000D01*
X75335063Y-57304592D01*
X75273903Y-57076337D01*
X75174035Y-56862171D01*
X75038495Y-56668599D01*
X74871401Y-56501505D01*
X74685402Y-56371267D01*
X74646539Y-56326951D01*
X74632528Y-56269694D01*
X74646539Y-56212437D01*
X74685405Y-56168119D01*
X74871078Y-56038109D01*
X75038106Y-55871081D01*
X75173600Y-55677576D01*
X75273430Y-55463492D01*
X75330636Y-55250000D01*
X72669364Y-55250000D01*
X72726569Y-55463492D01*
X72826399Y-55677576D01*
X72961893Y-55871081D01*
X73128918Y-56038106D01*
X73314595Y-56168119D01*
X73353460Y-56212437D01*
X73367471Y-56269694D01*
X73353460Y-56326951D01*
X73314595Y-56371269D01*
X73128595Y-56501508D01*
X72961505Y-56668598D01*
X72825965Y-56862170D01*
X72726097Y-57076336D01*
X72664936Y-57304592D01*
X72644340Y-57540000D01*
X72664936Y-57775407D01*
X72694001Y-57883877D01*
X72726097Y-58003663D01*
X72825965Y-58217830D01*
X72961505Y-58411401D01*
X73128599Y-58578495D01*
X73314160Y-58708426D01*
X73353024Y-58752743D01*
X73367035Y-58810000D01*
X73353024Y-58867257D01*
X73314159Y-58911575D01*
X73128595Y-59041508D01*
X72961505Y-59208598D01*
X72825965Y-59402170D01*
X72726097Y-59616336D01*
X72664936Y-59844592D01*
X72644340Y-60079999D01*
X72664936Y-60315407D01*
X72704544Y-60463224D01*
X72726097Y-60543663D01*
X72825965Y-60757830D01*
X72961505Y-60951401D01*
X73128599Y-61118495D01*
X73314160Y-61248426D01*
X73353024Y-61292743D01*
X73367035Y-61350000D01*
X73353024Y-61407257D01*
X73314158Y-61451575D01*
X73132150Y-61579019D01*
X73128595Y-61581508D01*
X72961505Y-61748598D01*
X72825965Y-61942170D01*
X72726097Y-62156336D01*
X72664936Y-62384592D01*
X72644340Y-62620000D01*
X72664936Y-62855407D01*
X72700250Y-62987201D01*
X72726097Y-63083663D01*
X72825965Y-63297830D01*
X72961505Y-63491401D01*
X73128599Y-63658495D01*
X73314160Y-63788426D01*
X73353024Y-63832743D01*
X73367035Y-63890000D01*
X73353024Y-63947257D01*
X73314160Y-63991574D01*
X73134915Y-64117083D01*
X73128595Y-64121508D01*
X72961505Y-64288598D01*
X72825965Y-64482170D01*
X72726097Y-64696336D01*
X72664936Y-64924592D01*
X72644340Y-65160000D01*
X72664936Y-65395407D01*
X72693384Y-65501576D01*
X72726097Y-65623663D01*
X72825965Y-65837830D01*
X72961505Y-66031401D01*
X73128599Y-66198495D01*
X73314160Y-66328426D01*
X73353024Y-66372743D01*
X73367035Y-66430000D01*
X73353024Y-66487257D01*
X73314159Y-66531575D01*
X73128595Y-66661508D01*
X72961505Y-66828598D01*
X72825965Y-67022170D01*
X72726097Y-67236336D01*
X72664936Y-67464592D01*
X72644340Y-67700000D01*
X72664936Y-67935407D01*
X72703357Y-68078795D01*
X72726097Y-68163663D01*
X72825965Y-68377830D01*
X72961505Y-68571401D01*
X73128599Y-68738495D01*
X73314160Y-68868426D01*
X73353024Y-68912743D01*
X73367035Y-68970000D01*
X73353024Y-69027257D01*
X73314158Y-69071575D01*
X73187878Y-69159998D01*
X73128595Y-69201508D01*
X72961505Y-69368598D01*
X72825965Y-69562170D01*
X72726097Y-69776336D01*
X72664936Y-70004592D01*
X72644340Y-70239999D01*
X71200000Y-70239999D01*
X71200000Y-53357869D01*
X72649500Y-53357869D01*
X72655909Y-53417484D01*
X72671749Y-53459952D01*
X72706204Y-53552331D01*
X72792454Y-53667546D01*
X72907669Y-53753796D01*
X73039598Y-53803002D01*
X73089978Y-53837981D01*
X73117431Y-53892825D01*
X73115242Y-53954118D01*
X73083947Y-54006865D01*
X72961888Y-54128924D01*
X72826400Y-54322421D01*
X72726569Y-54536507D01*
X72669364Y-54749999D01*
X72669364Y-54750000D01*
X75330636Y-54750000D01*
X75330635Y-54749999D01*
X75273430Y-54536507D01*
X75173599Y-54322421D01*
X75038109Y-54128921D01*
X74916053Y-54006865D01*
X74884757Y-53954119D01*
X74882568Y-53892826D01*
X74910021Y-53837981D01*
X74960398Y-53803003D01*
X75092331Y-53753796D01*
X75207546Y-53667546D01*
X75293796Y-53552331D01*
X75344091Y-53417483D01*
X75350500Y-53357873D01*
X75350499Y-51562128D01*
X75344091Y-51502517D01*
X75293796Y-51367669D01*
X75207546Y-51252454D01*
X75092331Y-51166204D01*
X74957483Y-51115909D01*
X74897873Y-51109500D01*
X74897869Y-51109500D01*
X74749500Y-51109500D01*
X74687500Y-51092887D01*
X74642113Y-51047500D01*
X74625500Y-50985500D01*
X74625500Y-50149500D01*
X74642113Y-50087500D01*
X74687500Y-50042113D01*
X74749500Y-50025500D01*
X74989548Y-50025500D01*
X75037001Y-50034939D01*
X75077229Y-50061819D01*
X76148181Y-51132771D01*
X76175061Y-51172999D01*
X76184500Y-51220452D01*
X76184500Y-52782869D01*
X76190909Y-52842484D01*
X76216056Y-52909907D01*
X76241204Y-52977331D01*
X76327454Y-53092546D01*
X76442669Y-53178796D01*
X76577517Y-53229091D01*
X76637127Y-53235500D01*
X77702872Y-53235499D01*
X77762483Y-53229091D01*
X77897331Y-53178796D01*
X78012546Y-53092546D01*
X78081826Y-53000000D01*
X80494353Y-53000000D01*
X80514834Y-53142457D01*
X80574623Y-53273374D01*
X80647841Y-53357872D01*
X80668872Y-53382143D01*
X80789947Y-53459953D01*
X80928039Y-53500500D01*
X81071961Y-53500500D01*
X81210053Y-53459953D01*
X81331128Y-53382143D01*
X81425377Y-53273373D01*
X81485165Y-53142457D01*
X81505647Y-53000000D01*
X81485414Y-52859275D01*
X81485165Y-52857542D01*
X81425376Y-52726625D01*
X81331129Y-52617858D01*
X81331128Y-52617857D01*
X81210053Y-52540047D01*
X81071961Y-52499500D01*
X80928039Y-52499500D01*
X80789947Y-52540047D01*
X80668870Y-52617858D01*
X80574623Y-52726625D01*
X80514834Y-52857542D01*
X80494353Y-53000000D01*
X78081826Y-53000000D01*
X78098796Y-52977331D01*
X78149091Y-52842483D01*
X78155500Y-52782873D01*
X78155499Y-51217128D01*
X78149091Y-51157517D01*
X78098796Y-51022669D01*
X78012546Y-50907454D01*
X77897331Y-50821204D01*
X77762483Y-50770909D01*
X77702873Y-50764500D01*
X77702869Y-50764500D01*
X77600453Y-50764500D01*
X77553000Y-50755061D01*
X77512772Y-50728181D01*
X76684590Y-49899999D01*
X92694531Y-49899999D01*
X92714364Y-50126689D01*
X92773261Y-50346497D01*
X92869432Y-50552735D01*
X92999953Y-50739140D01*
X93160859Y-50900046D01*
X93347264Y-51030567D01*
X93347265Y-51030567D01*
X93347266Y-51030568D01*
X93553504Y-51126739D01*
X93773308Y-51185635D01*
X93858261Y-51193067D01*
X93943214Y-51200500D01*
X93943216Y-51200500D01*
X94056784Y-51200500D01*
X94056786Y-51200500D01*
X94124747Y-51194554D01*
X94226692Y-51185635D01*
X94446496Y-51126739D01*
X94652734Y-51030568D01*
X94839139Y-50900047D01*
X95000047Y-50739139D01*
X95130568Y-50552734D01*
X95226739Y-50346496D01*
X95285635Y-50126692D01*
X95305468Y-49900000D01*
X95285635Y-49673308D01*
X95226739Y-49453504D01*
X95130568Y-49247266D01*
X95105695Y-49211744D01*
X95000046Y-49060859D01*
X94839140Y-48899953D01*
X94652735Y-48769432D01*
X94446497Y-48673261D01*
X94226689Y-48614364D01*
X94056786Y-48599500D01*
X94056784Y-48599500D01*
X93943216Y-48599500D01*
X93943214Y-48599500D01*
X93773310Y-48614364D01*
X93553502Y-48673261D01*
X93347264Y-48769432D01*
X93160859Y-48899953D01*
X92999953Y-49060859D01*
X92869432Y-49247264D01*
X92773261Y-49453502D01*
X92714364Y-49673310D01*
X92694531Y-49899999D01*
X76684590Y-49899999D01*
X75800802Y-49016211D01*
X75787906Y-49000113D01*
X75787786Y-49000000D01*
X81994353Y-49000000D01*
X82014834Y-49142457D01*
X82074623Y-49273374D01*
X82164846Y-49377497D01*
X82168872Y-49382143D01*
X82289947Y-49459953D01*
X82428039Y-49500500D01*
X82571961Y-49500500D01*
X82710053Y-49459953D01*
X82831128Y-49382143D01*
X82925377Y-49273373D01*
X82985165Y-49142457D01*
X83005647Y-49000000D01*
X82985165Y-48857543D01*
X82985066Y-48857327D01*
X82925598Y-48727112D01*
X82925377Y-48726627D01*
X82925376Y-48726626D01*
X82925376Y-48726625D01*
X82831129Y-48617858D01*
X82831128Y-48617857D01*
X82710053Y-48540047D01*
X82571961Y-48499500D01*
X82428039Y-48499500D01*
X82289947Y-48540047D01*
X82168870Y-48617858D01*
X82074623Y-48726625D01*
X82014834Y-48857542D01*
X81994353Y-49000000D01*
X75787786Y-49000000D01*
X75736775Y-48952098D01*
X75733978Y-48949387D01*
X75714470Y-48929879D01*
X75711290Y-48927412D01*
X75702424Y-48919839D01*
X75670582Y-48889938D01*
X75653024Y-48880285D01*
X75636764Y-48869604D01*
X75620936Y-48857327D01*
X75580851Y-48839980D01*
X75570361Y-48834841D01*
X75532091Y-48813802D01*
X75512691Y-48808821D01*
X75494284Y-48802519D01*
X75475897Y-48794562D01*
X75432758Y-48787729D01*
X75421324Y-48785361D01*
X75379019Y-48774500D01*
X75358984Y-48774500D01*
X75339586Y-48772973D01*
X75332162Y-48771797D01*
X75319805Y-48769840D01*
X75319804Y-48769840D01*
X75286751Y-48772964D01*
X75276325Y-48773950D01*
X75264656Y-48774500D01*
X74603747Y-48774500D01*
X74553312Y-48763780D01*
X74511598Y-48733473D01*
X74505871Y-48727112D01*
X74352730Y-48615849D01*
X74352729Y-48615848D01*
X74352727Y-48615847D01*
X74179802Y-48538855D01*
X73994648Y-48499500D01*
X73994646Y-48499500D01*
X73805354Y-48499500D01*
X73805352Y-48499500D01*
X73620197Y-48538855D01*
X73447269Y-48615848D01*
X73294129Y-48727110D01*
X73167466Y-48867783D01*
X73072820Y-49031715D01*
X73014326Y-49211742D01*
X72994540Y-49400000D01*
X73014326Y-49588257D01*
X73072820Y-49768284D01*
X73167466Y-49932216D01*
X73259959Y-50034939D01*
X73294129Y-50072888D01*
X73323386Y-50094144D01*
X73360985Y-50138167D01*
X73374500Y-50194462D01*
X73374500Y-50985501D01*
X73357887Y-51047501D01*
X73312500Y-51092888D01*
X73250500Y-51109501D01*
X73102128Y-51109501D01*
X73072322Y-51112704D01*
X73042515Y-51115909D01*
X72907669Y-51166204D01*
X72792454Y-51252454D01*
X72706204Y-51367668D01*
X72655909Y-51502516D01*
X72649500Y-51562130D01*
X72649500Y-53357869D01*
X71200000Y-53357869D01*
X71200000Y-47324500D01*
X71216613Y-47262500D01*
X71262000Y-47217113D01*
X71324000Y-47200500D01*
X96775952Y-47200500D01*
X96837822Y-47217038D01*
G37*
%TD.AperFunction*%
%TD*%
%TA.AperFunction,Conductor*%
%TO.N,+3.3V*%
G36*
X78453102Y-68305183D02*
G01*
X78506321Y-68336617D01*
X78723023Y-68553319D01*
X78753273Y-68602682D01*
X78757815Y-68660398D01*
X78735660Y-68713885D01*
X78691637Y-68751485D01*
X78635342Y-68765000D01*
X78544635Y-68765000D01*
X78477596Y-68745316D01*
X78431841Y-68692512D01*
X78388699Y-68598044D01*
X78358271Y-68548126D01*
X78321171Y-68500951D01*
X78296277Y-68444377D01*
X78301785Y-68382814D01*
X78336327Y-68331559D01*
X78391321Y-68303345D01*
X78453102Y-68305183D01*
G37*
%TD.AperFunction*%
%TA.AperFunction,Conductor*%
G36*
X77558844Y-67165654D02*
G01*
X77605961Y-67206298D01*
X77627403Y-67264712D01*
X77629713Y-67288168D01*
X77639151Y-67335619D01*
X77667917Y-67430446D01*
X77714635Y-67517846D01*
X77741513Y-67558072D01*
X77756463Y-67576288D01*
X77782607Y-67632755D01*
X77778029Y-67694812D01*
X77743883Y-67746831D01*
X77688767Y-67775714D01*
X77626561Y-67774187D01*
X77572929Y-67742634D01*
X77440151Y-67609856D01*
X77422918Y-67593415D01*
X77420438Y-67591159D01*
X77390857Y-67550439D01*
X77379898Y-67501322D01*
X77379877Y-67499957D01*
X77379689Y-67491990D01*
X77378474Y-67453356D01*
X77378600Y-67442656D01*
X77380000Y-67417256D01*
X77380000Y-67276866D01*
X77395613Y-67216631D01*
X77438520Y-67171565D01*
X77497916Y-67153015D01*
X77558844Y-67165654D01*
G37*
%TD.AperFunction*%
%TA.AperFunction,Conductor*%
G36*
X77608000Y-64766613D02*
G01*
X77653387Y-64812000D01*
X77670000Y-64874000D01*
X77670000Y-66009999D01*
X77834937Y-66009999D01*
X77951063Y-65994711D01*
X78095560Y-65934859D01*
X78134100Y-65905286D01*
X78182748Y-65882601D01*
X78236425Y-65882600D01*
X78285074Y-65905285D01*
X78323617Y-65934859D01*
X78324185Y-65935295D01*
X78468804Y-65995198D01*
X78585034Y-66010500D01*
X79244397Y-66010500D01*
X79300692Y-66024015D01*
X79344715Y-66061615D01*
X79366870Y-66115102D01*
X79362328Y-66172818D01*
X79332078Y-66222181D01*
X79094402Y-66459856D01*
X79077941Y-66477110D01*
X79075689Y-66479585D01*
X79035011Y-66509133D01*
X78985947Y-66520100D01*
X78985145Y-66520113D01*
X78984491Y-66520123D01*
X78976528Y-66520310D01*
X78937914Y-66521523D01*
X78927215Y-66521397D01*
X78901811Y-66520000D01*
X78723545Y-66520000D01*
X78707646Y-66520250D01*
X78704690Y-66520343D01*
X78644503Y-66506887D01*
X78641823Y-66505521D01*
X78627600Y-66498554D01*
X78626164Y-66497878D01*
X78622683Y-66496240D01*
X78610708Y-66489778D01*
X78594073Y-66479585D01*
X78580092Y-66471017D01*
X78557626Y-66458667D01*
X78543755Y-66452023D01*
X78536684Y-66447960D01*
X78428927Y-66401729D01*
X78313425Y-66381569D01*
X78256370Y-66378338D01*
X78139333Y-66385332D01*
X78027046Y-66419103D01*
X77974611Y-66441793D01*
X77873126Y-66500525D01*
X77787901Y-66581061D01*
X77751202Y-66624859D01*
X77686828Y-66722856D01*
X77646762Y-66833052D01*
X77633599Y-66888652D01*
X77627163Y-66943772D01*
X77604887Y-67001486D01*
X77557500Y-67041256D01*
X77496797Y-67053182D01*
X77437887Y-67034296D01*
X77395432Y-66989299D01*
X77380000Y-66929391D01*
X77380000Y-66072127D01*
X77372375Y-65994711D01*
X77370287Y-65973509D01*
X77360848Y-65926056D01*
X77360848Y-65926054D01*
X77346464Y-65878641D01*
X77332082Y-65831228D01*
X77285370Y-65743834D01*
X77258490Y-65703605D01*
X77198148Y-65630079D01*
X77177249Y-65593188D01*
X77170000Y-65551413D01*
X77170000Y-64874000D01*
X77186613Y-64812000D01*
X77232000Y-64766613D01*
X77294000Y-64750000D01*
X77546000Y-64750000D01*
X77608000Y-64766613D01*
G37*
%TD.AperFunction*%
%TA.AperFunction,Conductor*%
G36*
X84350155Y-63870108D02*
G01*
X84404737Y-63891224D01*
X84443555Y-63935023D01*
X84457962Y-63991746D01*
X84444748Y-64048760D01*
X84406857Y-64093363D01*
X84394130Y-64102609D01*
X84267466Y-64243283D01*
X84172820Y-64407215D01*
X84114326Y-64587242D01*
X84106597Y-64660785D01*
X84080655Y-64724591D01*
X84024668Y-64764711D01*
X83955909Y-64768765D01*
X83895595Y-64735504D01*
X83650851Y-64490760D01*
X83637955Y-64474662D01*
X83586824Y-64426647D01*
X83584027Y-64423936D01*
X83564519Y-64404428D01*
X83561339Y-64401961D01*
X83552473Y-64394388D01*
X83525065Y-64368651D01*
X83490519Y-64311606D01*
X83490519Y-64244914D01*
X83525068Y-64187868D01*
X83584167Y-64156971D01*
X83679803Y-64136644D01*
X83852730Y-64059651D01*
X84005871Y-63948388D01*
X84035347Y-63915650D01*
X84069759Y-63888886D01*
X84111311Y-63875685D01*
X84112716Y-63875500D01*
X84112720Y-63875500D01*
X84225236Y-63860687D01*
X84225238Y-63860686D01*
X84235729Y-63859305D01*
X84268100Y-63859305D01*
X84350155Y-63870108D01*
G37*
%TD.AperFunction*%
%TA.AperFunction,Conductor*%
G36*
X90557338Y-61878600D02*
G01*
X90577392Y-61879705D01*
X90642341Y-61902396D01*
X90685198Y-61956216D01*
X90692769Y-62024597D01*
X90662724Y-62086489D01*
X90567466Y-62192283D01*
X90472820Y-62356215D01*
X90414326Y-62536242D01*
X90397968Y-62691881D01*
X90394540Y-62724500D01*
X90407465Y-62847481D01*
X90408050Y-62853039D01*
X90396179Y-62920358D01*
X90350439Y-62971158D01*
X90284729Y-62990000D01*
X90170000Y-62990000D01*
X90170000Y-64126000D01*
X90153387Y-64188000D01*
X90108000Y-64233387D01*
X90046000Y-64250000D01*
X89794000Y-64250000D01*
X89732000Y-64233387D01*
X89686613Y-64188000D01*
X89670000Y-64126000D01*
X89670000Y-62990001D01*
X89505944Y-62990001D01*
X89448603Y-62975946D01*
X89436624Y-62965416D01*
X89383442Y-63007563D01*
X89244436Y-63065141D01*
X89189818Y-63107052D01*
X89135864Y-63130792D01*
X89077044Y-63126937D01*
X89026651Y-63096357D01*
X88743103Y-62812809D01*
X88711651Y-62759528D01*
X88709860Y-62697682D01*
X88738174Y-62642669D01*
X88789546Y-62608186D01*
X88851184Y-62602818D01*
X88907743Y-62627900D01*
X88950742Y-62661936D01*
X88999176Y-62691879D01*
X88999179Y-62691880D01*
X88999180Y-62691881D01*
X89105014Y-62741430D01*
X89216982Y-62764848D01*
X89219402Y-62765354D01*
X89261785Y-62769192D01*
X89276111Y-62770490D01*
X89332827Y-62769042D01*
X89398607Y-62785974D01*
X89408020Y-62795799D01*
X89422522Y-62774258D01*
X89474401Y-62746080D01*
X89505942Y-62737784D01*
X89558971Y-62717030D01*
X89662143Y-62662145D01*
X89749955Y-62585035D01*
X89756232Y-62578080D01*
X89765297Y-62569444D01*
X89767716Y-62566867D01*
X89767723Y-62566862D01*
X89808347Y-62523599D01*
X89820272Y-62510282D01*
X89824962Y-62505328D01*
X89826833Y-62503459D01*
X89832445Y-62497758D01*
X89835150Y-62494966D01*
X89840587Y-62489266D01*
X89867041Y-62461094D01*
X89874691Y-62453621D01*
X89893650Y-62436642D01*
X90390153Y-61940140D01*
X90406592Y-61922908D01*
X90408835Y-61920442D01*
X90449553Y-61890859D01*
X90498677Y-61879898D01*
X90500043Y-61879877D01*
X90508010Y-61879689D01*
X90546637Y-61878474D01*
X90557338Y-61878600D01*
G37*
%TD.AperFunction*%
%TA.AperFunction,Conductor*%
G36*
X82030597Y-62793336D02*
G01*
X82069155Y-62810021D01*
X82079633Y-62815155D01*
X82117907Y-62836197D01*
X82126410Y-62838379D01*
X82137308Y-62841178D01*
X82155713Y-62847478D01*
X82174104Y-62855437D01*
X82217250Y-62862270D01*
X82228668Y-62864635D01*
X82270981Y-62875500D01*
X82291016Y-62875500D01*
X82310415Y-62877027D01*
X82330196Y-62880160D01*
X82373674Y-62876050D01*
X82385344Y-62875500D01*
X82412455Y-62875500D01*
X82468750Y-62889015D01*
X82512773Y-62926615D01*
X82534928Y-62980102D01*
X82530386Y-63037816D01*
X82527618Y-63046337D01*
X82514326Y-63087242D01*
X82494540Y-63275500D01*
X82514326Y-63463757D01*
X82572820Y-63643784D01*
X82667466Y-63807716D01*
X82794129Y-63948389D01*
X82899205Y-64024731D01*
X82938519Y-64072252D01*
X82950075Y-64132835D01*
X82931017Y-64191492D01*
X82886057Y-64233711D01*
X82826320Y-64249049D01*
X82447091Y-64249049D01*
X82396655Y-64238328D01*
X82354941Y-64208021D01*
X82329160Y-64163366D01*
X82314880Y-64119417D01*
X82220234Y-63955484D01*
X82093571Y-63814811D01*
X81929888Y-63695889D01*
X81930021Y-63695704D01*
X81901228Y-63675069D01*
X81875399Y-63632290D01*
X81868554Y-63582789D01*
X81876715Y-63458310D01*
X81856593Y-63341197D01*
X81840152Y-63285690D01*
X81840151Y-63285686D01*
X81819555Y-63237747D01*
X81815569Y-63227156D01*
X81785031Y-63133171D01*
X81779644Y-63107828D01*
X81773688Y-63051148D01*
X81773693Y-63036637D01*
X81773174Y-63036638D01*
X81773174Y-63007563D01*
X81773173Y-62944621D01*
X81782202Y-62898171D01*
X81807974Y-62858484D01*
X81846734Y-62831343D01*
X81930922Y-62793860D01*
X81980705Y-62783142D01*
X82030597Y-62793336D01*
G37*
%TD.AperFunction*%
%TA.AperFunction,Conductor*%
G36*
X79815290Y-62935268D02*
G01*
X79858690Y-62980406D01*
X79874500Y-63040995D01*
X79874500Y-63520078D01*
X79867037Y-63548223D01*
X79874500Y-63578267D01*
X79874500Y-63965714D01*
X79855804Y-64031189D01*
X79805355Y-64076921D01*
X79738365Y-64089119D01*
X79675034Y-64064105D01*
X79674034Y-64063338D01*
X79638293Y-64019802D01*
X79625500Y-63964947D01*
X79625500Y-63582741D01*
X79628486Y-63555693D01*
X79629486Y-63551219D01*
X79632753Y-63544679D01*
X79626561Y-63523972D01*
X79625561Y-63492145D01*
X79625500Y-63488251D01*
X79625500Y-63460657D01*
X79625500Y-63460650D01*
X79624995Y-63456653D01*
X79624080Y-63445023D01*
X79622709Y-63401373D01*
X79617120Y-63382140D01*
X79613174Y-63363082D01*
X79610664Y-63343206D01*
X79594588Y-63302604D01*
X79590804Y-63291553D01*
X79580682Y-63256716D01*
X79578618Y-63249610D01*
X79568414Y-63232355D01*
X79559865Y-63214906D01*
X79552486Y-63196268D01*
X79552483Y-63196264D01*
X79547249Y-63183044D01*
X79538575Y-63134474D01*
X79549527Y-63086366D01*
X79578369Y-63046339D01*
X79607767Y-63019166D01*
X79645367Y-62975143D01*
X79646022Y-62974162D01*
X79647399Y-62972103D01*
X79649742Y-62970020D01*
X79650117Y-62969582D01*
X79650177Y-62969633D01*
X79694207Y-62930509D01*
X79755369Y-62917091D01*
X79815290Y-62935268D01*
G37*
%TD.AperFunction*%
%TA.AperFunction,Conductor*%
G36*
X88187073Y-62124516D02*
G01*
X88232562Y-62130000D01*
X88314636Y-62130000D01*
X88314656Y-62130000D01*
X88338456Y-62129439D01*
X88341806Y-62129281D01*
X88391479Y-62137148D01*
X88433942Y-62164096D01*
X88434919Y-62165043D01*
X88439160Y-62169088D01*
X88440737Y-62170592D01*
X88463836Y-62192283D01*
X88468912Y-62197050D01*
X88476385Y-62204701D01*
X88493360Y-62223653D01*
X88493368Y-62223661D01*
X88592645Y-62322938D01*
X88624198Y-62376570D01*
X88625725Y-62438776D01*
X88596842Y-62493892D01*
X88544823Y-62528038D01*
X88482767Y-62532616D01*
X88426300Y-62506473D01*
X88415688Y-62497764D01*
X88408073Y-62491514D01*
X88367845Y-62464634D01*
X88319470Y-62438776D01*
X88280447Y-62417917D01*
X88185620Y-62389151D01*
X88138169Y-62379713D01*
X88092073Y-62375173D01*
X88031177Y-62351968D01*
X87990457Y-62301089D01*
X87981160Y-62236588D01*
X88005851Y-62176283D01*
X88014523Y-62164983D01*
X88064819Y-62126172D01*
X88127736Y-62117364D01*
X88187073Y-62124516D01*
G37*
%TD.AperFunction*%
%TA.AperFunction,Conductor*%
G36*
X92188000Y-59766613D02*
G01*
X92233387Y-59812000D01*
X92250000Y-59874000D01*
X92250000Y-60884134D01*
X92244335Y-60921187D01*
X92227856Y-60954854D01*
X92220285Y-60965758D01*
X92170826Y-61055067D01*
X92140319Y-61152498D01*
X92130309Y-61201301D01*
X92120000Y-61302871D01*
X92120000Y-61464636D01*
X92120562Y-61488499D01*
X92120719Y-61491827D01*
X92112853Y-61541473D01*
X92085926Y-61583918D01*
X92085015Y-61584858D01*
X92079398Y-61590744D01*
X92052940Y-61618917D01*
X92045287Y-61626392D01*
X92026340Y-61643363D01*
X91796817Y-61872886D01*
X91755586Y-61900176D01*
X91706969Y-61909186D01*
X91658699Y-61898483D01*
X91643961Y-61891921D01*
X91596338Y-61854536D01*
X91572093Y-61799056D01*
X91577007Y-61738710D01*
X91605958Y-61693988D01*
X91605334Y-61693466D01*
X91609606Y-61688353D01*
X91609909Y-61687886D01*
X91610309Y-61687514D01*
X91691105Y-61590836D01*
X91745483Y-61477180D01*
X91764852Y-61418987D01*
X91789434Y-61295414D01*
X91782691Y-61169600D01*
X91771802Y-61109242D01*
X91755664Y-61057702D01*
X91750000Y-61020652D01*
X91750000Y-59874000D01*
X91766613Y-59812000D01*
X91812000Y-59766613D01*
X91874000Y-59750000D01*
X92126000Y-59750000D01*
X92188000Y-59766613D01*
G37*
%TD.AperFunction*%
%TA.AperFunction,Conductor*%
G36*
X80637500Y-60342113D02*
G01*
X80682887Y-60387500D01*
X80699500Y-60449500D01*
X80699500Y-60700867D01*
X80689302Y-60750112D01*
X80669751Y-60795290D01*
X80653381Y-60849512D01*
X80641127Y-60917613D01*
X80628976Y-60953103D01*
X80606768Y-60983334D01*
X80116208Y-61473894D01*
X80100110Y-61486791D01*
X80052096Y-61537920D01*
X80049389Y-61540713D01*
X80027182Y-61562921D01*
X79977819Y-61593172D01*
X79920103Y-61597716D01*
X79866615Y-61575561D01*
X79829014Y-61531537D01*
X79815499Y-61475244D01*
X79815499Y-60863778D01*
X79824210Y-60818123D01*
X79846366Y-60783218D01*
X79845932Y-60782873D01*
X79900148Y-60714841D01*
X79900151Y-60714837D01*
X79922505Y-60681572D01*
X79962553Y-60610064D01*
X79990519Y-60533025D01*
X80001096Y-60494366D01*
X80013844Y-60426580D01*
X80036807Y-60374702D01*
X80080476Y-60338480D01*
X80135707Y-60325500D01*
X80575500Y-60325500D01*
X80637500Y-60342113D01*
G37*
%TD.AperFunction*%
%TA.AperFunction,Conductor*%
G36*
X79917710Y-57223408D02*
G01*
X79917711Y-57223408D01*
X79980654Y-57223408D01*
X80006427Y-57226116D01*
X80062156Y-57237961D01*
X80086796Y-57245967D01*
X80138847Y-57269142D01*
X80161296Y-57282103D01*
X80207383Y-57315587D01*
X80226646Y-57332931D01*
X80264766Y-57375266D01*
X80280002Y-57396235D01*
X80308489Y-57445577D01*
X80319031Y-57469255D01*
X80336634Y-57523431D01*
X80342024Y-57548790D01*
X80347978Y-57605448D01*
X80347978Y-57631367D01*
X80342024Y-57688021D01*
X80336634Y-57713380D01*
X80319029Y-57767561D01*
X80308485Y-57791242D01*
X80295228Y-57814204D01*
X80275522Y-57839886D01*
X80171117Y-57944290D01*
X80133871Y-57969888D01*
X80086807Y-57990842D01*
X80062156Y-57998852D01*
X80031312Y-58005409D01*
X80006428Y-58010698D01*
X79980648Y-58013408D01*
X79939000Y-58013408D01*
X79877000Y-57996795D01*
X79831613Y-57951408D01*
X79815000Y-57889408D01*
X79815000Y-57750000D01*
X78704000Y-57750000D01*
X78642000Y-57733387D01*
X78596613Y-57688000D01*
X78580000Y-57626000D01*
X78580000Y-57374000D01*
X78596613Y-57312000D01*
X78642000Y-57266613D01*
X78704000Y-57250000D01*
X79819667Y-57250000D01*
X79853055Y-57228892D01*
X79907178Y-57222339D01*
X79917710Y-57223408D01*
G37*
%TD.AperFunction*%
%TA.AperFunction,Conductor*%
G36*
X91312318Y-54011724D02*
G01*
X91361681Y-54041974D01*
X91640326Y-54320620D01*
X91640330Y-54320623D01*
X91716928Y-54383486D01*
X91757156Y-54410366D01*
X91844551Y-54457081D01*
X91844553Y-54457082D01*
X91939382Y-54485848D01*
X91986833Y-54495287D01*
X91996706Y-54496259D01*
X92010336Y-54498371D01*
X92109984Y-54519552D01*
X92134630Y-54527559D01*
X92186681Y-54550734D01*
X92209130Y-54563695D01*
X92255217Y-54597179D01*
X92274480Y-54614523D01*
X92312600Y-54656858D01*
X92327836Y-54677827D01*
X92356323Y-54727169D01*
X92366865Y-54750847D01*
X92384468Y-54805023D01*
X92389858Y-54830381D01*
X92395812Y-54887038D01*
X92395812Y-54912958D01*
X92389858Y-54969613D01*
X92384468Y-54994972D01*
X92366863Y-55049153D01*
X92356319Y-55072834D01*
X92327839Y-55122163D01*
X92312603Y-55143134D01*
X92281689Y-55177467D01*
X92226330Y-55251605D01*
X92202718Y-55290138D01*
X92161809Y-55373099D01*
X92136699Y-55462131D01*
X92128463Y-55506570D01*
X92123480Y-55560811D01*
X92103402Y-55617906D01*
X92058692Y-55658696D01*
X92000000Y-55673466D01*
X91941308Y-55658696D01*
X91896598Y-55617906D01*
X91876520Y-55560811D01*
X91871536Y-55506570D01*
X91863299Y-55462126D01*
X91844367Y-55395000D01*
X91838188Y-55373091D01*
X91797270Y-55290120D01*
X91773655Y-55251585D01*
X91718305Y-55177464D01*
X91712590Y-55171117D01*
X91712588Y-55171115D01*
X91712586Y-55171113D01*
X91655581Y-55122163D01*
X91614512Y-55086897D01*
X91561941Y-55052356D01*
X91445706Y-54995766D01*
X91445704Y-54995765D01*
X91318921Y-54970507D01*
X91265523Y-54966849D01*
X91207168Y-54947588D01*
X91165227Y-54902674D01*
X91150000Y-54843139D01*
X91150000Y-54129655D01*
X91163515Y-54073360D01*
X91201115Y-54029337D01*
X91254602Y-54007182D01*
X91312318Y-54011724D01*
G37*
%TD.AperFunction*%
%TA.AperFunction,Conductor*%
G36*
X81899892Y-54505786D02*
G01*
X81944647Y-54542850D01*
X81968918Y-54575272D01*
X81990817Y-54623225D01*
X81990817Y-54675941D01*
X81968918Y-54723894D01*
X81906204Y-54807668D01*
X81866933Y-54912958D01*
X81855909Y-54942517D01*
X81850270Y-54994972D01*
X81849500Y-55002131D01*
X81849500Y-55165548D01*
X81835985Y-55221843D01*
X81798385Y-55265866D01*
X81744898Y-55288021D01*
X81687182Y-55283479D01*
X81637819Y-55253229D01*
X81457424Y-55072834D01*
X81251079Y-54866488D01*
X81222424Y-54821725D01*
X81215142Y-54769077D01*
X81230571Y-54718217D01*
X81265876Y-54678488D01*
X81303166Y-54651396D01*
X81325615Y-54638435D01*
X81377658Y-54615264D01*
X81402313Y-54607254D01*
X81458789Y-54595250D01*
X81472416Y-54593137D01*
X81476843Y-54592701D01*
X81476846Y-54592701D01*
X81575464Y-54582988D01*
X81614255Y-54575272D01*
X81622918Y-54573549D01*
X81698130Y-54550733D01*
X81717748Y-54544782D01*
X81786929Y-54507802D01*
X81843165Y-54493181D01*
X81899892Y-54505786D01*
G37*
%TD.AperFunction*%
%TA.AperFunction,Conductor*%
G36*
X85280093Y-52957059D02*
G01*
X85289945Y-52959951D01*
X85289947Y-52959953D01*
X85428039Y-53000500D01*
X85445146Y-53005523D01*
X85444635Y-53007262D01*
X85487326Y-53019591D01*
X85533075Y-53070982D01*
X85542571Y-53090831D01*
X85542572Y-53090833D01*
X85623366Y-53187508D01*
X85623368Y-53187510D01*
X85623370Y-53187512D01*
X85668259Y-53229305D01*
X85668262Y-53229307D01*
X85770452Y-53302998D01*
X85770453Y-53302998D01*
X85770454Y-53302999D01*
X85880159Y-53346162D01*
X85887703Y-53349130D01*
X85917413Y-53356713D01*
X85947127Y-53364297D01*
X86016152Y-53372967D01*
X86073523Y-53395639D01*
X86112871Y-53443151D01*
X86124455Y-53503742D01*
X86105409Y-53562418D01*
X86060447Y-53604655D01*
X86000697Y-53620000D01*
X84974499Y-53620000D01*
X84843669Y-53637224D01*
X84781661Y-53653839D01*
X84659750Y-53704336D01*
X84633636Y-53724375D01*
X84598008Y-53743419D01*
X84558149Y-53750000D01*
X83224000Y-53750000D01*
X83162000Y-53733387D01*
X83116613Y-53688000D01*
X83100000Y-53626000D01*
X83100000Y-53374000D01*
X83116613Y-53312000D01*
X83162000Y-53266613D01*
X83224000Y-53250000D01*
X84850000Y-53250000D01*
X84850000Y-53160578D01*
X84863988Y-53103365D01*
X84902796Y-53059060D01*
X84957668Y-53037658D01*
X84977640Y-53035004D01*
X85007757Y-53031003D01*
X85007759Y-53031002D01*
X85007762Y-53031002D01*
X85044360Y-53021661D01*
X85063853Y-53016686D01*
X85174742Y-52973970D01*
X85174798Y-52973930D01*
X85225538Y-52953598D01*
X85280093Y-52957059D01*
G37*
%TD.AperFunction*%
%TD*%
M02*
