M48
; DRILL file {KiCad 7.0.1} date Thu Apr 20 14:55:12 2023
; FORMAT={-:-/ absolute / inch / decimal}
; #@! TF.CreationDate,2023-04-20T14:55:12+02:00
; #@! TF.GenerationSoftware,Kicad,Pcbnew,7.0.1
; #@! TF.FileFunction,Plated,1,2,PTH
FMAT,2
INCH
; #@! TA.AperFunction,Plated,PTH,ViaDrill
T1C0.0157
; #@! TA.AperFunction,Plated,PTH,ComponentDrill
T2C0.0394
%
G90
G05
T1
X3.0079Y-2.3366
X3.0079Y-2.5197
X3.0236Y-2.1575
X3.063Y-2.2677
X3.126Y-2.7008
X3.1299Y-2.5158
X3.142Y-2.2641
X3.189Y-2.6378
X3.2047Y-2.5039
X3.252Y-2.5984
X3.2598Y-2.3622
X3.2638Y-2.4632
X3.3465Y-2.7008
X3.3858Y-2.4567
X3.4488Y-2.7244
T2
X2.9134Y-2.0693
X2.9134Y-2.1693
X2.9134Y-2.2693
X2.9134Y-2.3693
X2.9134Y-2.4693
X2.9134Y-2.5693
X2.9134Y-2.6693
X2.9134Y-2.7693
T0
M30
