%TF.GenerationSoftware,KiCad,Pcbnew,7.0.1*%
%TF.CreationDate,2023-04-19T16:41:29+02:00*%
%TF.ProjectId,MPU,4d50552e-6b69-4636-9164-5f7063625858,version_01*%
%TF.SameCoordinates,Original*%
%TF.FileFunction,Legend,Top*%
%TF.FilePolarity,Positive*%
%FSLAX46Y46*%
G04 Gerber Fmt 4.6, Leading zero omitted, Abs format (unit mm)*
G04 Created by KiCad (PCBNEW 7.0.1) date 2023-04-19 16:41:29*
%MOMM*%
%LPD*%
G01*
G04 APERTURE LIST*
%ADD10C,0.254000*%
%ADD11C,0.150000*%
%ADD12C,0.200000*%
%ADD13C,0.120000*%
%ADD14C,0.127000*%
G04 APERTURE END LIST*
D10*
X79334047Y-72417526D02*
X79334047Y-73445621D01*
X79334047Y-73445621D02*
X79394524Y-73566573D01*
X79394524Y-73566573D02*
X79455000Y-73627050D01*
X79455000Y-73627050D02*
X79575952Y-73687526D01*
X79575952Y-73687526D02*
X79817857Y-73687526D01*
X79817857Y-73687526D02*
X79938809Y-73627050D01*
X79938809Y-73627050D02*
X79999286Y-73566573D01*
X79999286Y-73566573D02*
X80059762Y-73445621D01*
X80059762Y-73445621D02*
X80059762Y-72417526D01*
X80483095Y-72417526D02*
X81208809Y-72417526D01*
X80845952Y-73687526D02*
X80845952Y-72417526D01*
X81511190Y-72417526D02*
X82297381Y-72417526D01*
X82297381Y-72417526D02*
X81874047Y-72901335D01*
X81874047Y-72901335D02*
X82055476Y-72901335D01*
X82055476Y-72901335D02*
X82176428Y-72961811D01*
X82176428Y-72961811D02*
X82236904Y-73022288D01*
X82236904Y-73022288D02*
X82297381Y-73143240D01*
X82297381Y-73143240D02*
X82297381Y-73445621D01*
X82297381Y-73445621D02*
X82236904Y-73566573D01*
X82236904Y-73566573D02*
X82176428Y-73627050D01*
X82176428Y-73627050D02*
X82055476Y-73687526D01*
X82055476Y-73687526D02*
X81692619Y-73687526D01*
X81692619Y-73687526D02*
X81571666Y-73627050D01*
X81571666Y-73627050D02*
X81511190Y-73566573D01*
X83748809Y-73627050D02*
X83930238Y-73687526D01*
X83930238Y-73687526D02*
X84232619Y-73687526D01*
X84232619Y-73687526D02*
X84353571Y-73627050D01*
X84353571Y-73627050D02*
X84414047Y-73566573D01*
X84414047Y-73566573D02*
X84474524Y-73445621D01*
X84474524Y-73445621D02*
X84474524Y-73324669D01*
X84474524Y-73324669D02*
X84414047Y-73203716D01*
X84414047Y-73203716D02*
X84353571Y-73143240D01*
X84353571Y-73143240D02*
X84232619Y-73082764D01*
X84232619Y-73082764D02*
X83990714Y-73022288D01*
X83990714Y-73022288D02*
X83869762Y-72961811D01*
X83869762Y-72961811D02*
X83809285Y-72901335D01*
X83809285Y-72901335D02*
X83748809Y-72780383D01*
X83748809Y-72780383D02*
X83748809Y-72659430D01*
X83748809Y-72659430D02*
X83809285Y-72538478D01*
X83809285Y-72538478D02*
X83869762Y-72478002D01*
X83869762Y-72478002D02*
X83990714Y-72417526D01*
X83990714Y-72417526D02*
X84293095Y-72417526D01*
X84293095Y-72417526D02*
X84474524Y-72478002D01*
X85018809Y-73022288D02*
X85442143Y-73022288D01*
X85623571Y-73687526D02*
X85018809Y-73687526D01*
X85018809Y-73687526D02*
X85018809Y-72417526D01*
X85018809Y-72417526D02*
X85623571Y-72417526D01*
X86893572Y-73566573D02*
X86833096Y-73627050D01*
X86833096Y-73627050D02*
X86651667Y-73687526D01*
X86651667Y-73687526D02*
X86530715Y-73687526D01*
X86530715Y-73687526D02*
X86349286Y-73627050D01*
X86349286Y-73627050D02*
X86228334Y-73506097D01*
X86228334Y-73506097D02*
X86167857Y-73385145D01*
X86167857Y-73385145D02*
X86107381Y-73143240D01*
X86107381Y-73143240D02*
X86107381Y-72961811D01*
X86107381Y-72961811D02*
X86167857Y-72719907D01*
X86167857Y-72719907D02*
X86228334Y-72598954D01*
X86228334Y-72598954D02*
X86349286Y-72478002D01*
X86349286Y-72478002D02*
X86530715Y-72417526D01*
X86530715Y-72417526D02*
X86651667Y-72417526D01*
X86651667Y-72417526D02*
X86833096Y-72478002D01*
X86833096Y-72478002D02*
X86893572Y-72538478D01*
X87437857Y-73687526D02*
X87437857Y-72417526D01*
X88647381Y-73687526D02*
X88042619Y-73687526D01*
X88042619Y-73687526D02*
X88042619Y-72417526D01*
D11*
%TO.C,U1*%
X80438095Y-49862619D02*
X80438095Y-50672142D01*
X80438095Y-50672142D02*
X80485714Y-50767380D01*
X80485714Y-50767380D02*
X80533333Y-50815000D01*
X80533333Y-50815000D02*
X80628571Y-50862619D01*
X80628571Y-50862619D02*
X80819047Y-50862619D01*
X80819047Y-50862619D02*
X80914285Y-50815000D01*
X80914285Y-50815000D02*
X80961904Y-50767380D01*
X80961904Y-50767380D02*
X81009523Y-50672142D01*
X81009523Y-50672142D02*
X81009523Y-49862619D01*
X82009523Y-50862619D02*
X81438095Y-50862619D01*
X81723809Y-50862619D02*
X81723809Y-49862619D01*
X81723809Y-49862619D02*
X81628571Y-50005476D01*
X81628571Y-50005476D02*
X81533333Y-50100714D01*
X81533333Y-50100714D02*
X81438095Y-50148333D01*
D10*
%TO.C,R8*%
X93188333Y-67587526D02*
X92764999Y-66982764D01*
X92462618Y-67587526D02*
X92462618Y-66317526D01*
X92462618Y-66317526D02*
X92946428Y-66317526D01*
X92946428Y-66317526D02*
X93067380Y-66378002D01*
X93067380Y-66378002D02*
X93127857Y-66438478D01*
X93127857Y-66438478D02*
X93188333Y-66559430D01*
X93188333Y-66559430D02*
X93188333Y-66740859D01*
X93188333Y-66740859D02*
X93127857Y-66861811D01*
X93127857Y-66861811D02*
X93067380Y-66922288D01*
X93067380Y-66922288D02*
X92946428Y-66982764D01*
X92946428Y-66982764D02*
X92462618Y-66982764D01*
X93914047Y-66861811D02*
X93793095Y-66801335D01*
X93793095Y-66801335D02*
X93732618Y-66740859D01*
X93732618Y-66740859D02*
X93672142Y-66619907D01*
X93672142Y-66619907D02*
X93672142Y-66559430D01*
X93672142Y-66559430D02*
X93732618Y-66438478D01*
X93732618Y-66438478D02*
X93793095Y-66378002D01*
X93793095Y-66378002D02*
X93914047Y-66317526D01*
X93914047Y-66317526D02*
X94155952Y-66317526D01*
X94155952Y-66317526D02*
X94276904Y-66378002D01*
X94276904Y-66378002D02*
X94337380Y-66438478D01*
X94337380Y-66438478D02*
X94397857Y-66559430D01*
X94397857Y-66559430D02*
X94397857Y-66619907D01*
X94397857Y-66619907D02*
X94337380Y-66740859D01*
X94337380Y-66740859D02*
X94276904Y-66801335D01*
X94276904Y-66801335D02*
X94155952Y-66861811D01*
X94155952Y-66861811D02*
X93914047Y-66861811D01*
X93914047Y-66861811D02*
X93793095Y-66922288D01*
X93793095Y-66922288D02*
X93732618Y-66982764D01*
X93732618Y-66982764D02*
X93672142Y-67103716D01*
X93672142Y-67103716D02*
X93672142Y-67345621D01*
X93672142Y-67345621D02*
X93732618Y-67466573D01*
X93732618Y-67466573D02*
X93793095Y-67527050D01*
X93793095Y-67527050D02*
X93914047Y-67587526D01*
X93914047Y-67587526D02*
X94155952Y-67587526D01*
X94155952Y-67587526D02*
X94276904Y-67527050D01*
X94276904Y-67527050D02*
X94337380Y-67466573D01*
X94337380Y-67466573D02*
X94397857Y-67345621D01*
X94397857Y-67345621D02*
X94397857Y-67103716D01*
X94397857Y-67103716D02*
X94337380Y-66982764D01*
X94337380Y-66982764D02*
X94276904Y-66922288D01*
X94276904Y-66922288D02*
X94155952Y-66861811D01*
%TO.C,C1*%
X77788333Y-50666573D02*
X77727857Y-50727050D01*
X77727857Y-50727050D02*
X77546428Y-50787526D01*
X77546428Y-50787526D02*
X77425476Y-50787526D01*
X77425476Y-50787526D02*
X77244047Y-50727050D01*
X77244047Y-50727050D02*
X77123095Y-50606097D01*
X77123095Y-50606097D02*
X77062618Y-50485145D01*
X77062618Y-50485145D02*
X77002142Y-50243240D01*
X77002142Y-50243240D02*
X77002142Y-50061811D01*
X77002142Y-50061811D02*
X77062618Y-49819907D01*
X77062618Y-49819907D02*
X77123095Y-49698954D01*
X77123095Y-49698954D02*
X77244047Y-49578002D01*
X77244047Y-49578002D02*
X77425476Y-49517526D01*
X77425476Y-49517526D02*
X77546428Y-49517526D01*
X77546428Y-49517526D02*
X77727857Y-49578002D01*
X77727857Y-49578002D02*
X77788333Y-49638478D01*
X78997857Y-50787526D02*
X78272142Y-50787526D01*
X78634999Y-50787526D02*
X78634999Y-49517526D01*
X78634999Y-49517526D02*
X78514047Y-49698954D01*
X78514047Y-49698954D02*
X78393095Y-49819907D01*
X78393095Y-49819907D02*
X78272142Y-49880383D01*
%TO.C,R9*%
X80988333Y-70587526D02*
X80564999Y-69982764D01*
X80262618Y-70587526D02*
X80262618Y-69317526D01*
X80262618Y-69317526D02*
X80746428Y-69317526D01*
X80746428Y-69317526D02*
X80867380Y-69378002D01*
X80867380Y-69378002D02*
X80927857Y-69438478D01*
X80927857Y-69438478D02*
X80988333Y-69559430D01*
X80988333Y-69559430D02*
X80988333Y-69740859D01*
X80988333Y-69740859D02*
X80927857Y-69861811D01*
X80927857Y-69861811D02*
X80867380Y-69922288D01*
X80867380Y-69922288D02*
X80746428Y-69982764D01*
X80746428Y-69982764D02*
X80262618Y-69982764D01*
X81593095Y-70587526D02*
X81834999Y-70587526D01*
X81834999Y-70587526D02*
X81955952Y-70527050D01*
X81955952Y-70527050D02*
X82016428Y-70466573D01*
X82016428Y-70466573D02*
X82137380Y-70285145D01*
X82137380Y-70285145D02*
X82197857Y-70043240D01*
X82197857Y-70043240D02*
X82197857Y-69559430D01*
X82197857Y-69559430D02*
X82137380Y-69438478D01*
X82137380Y-69438478D02*
X82076904Y-69378002D01*
X82076904Y-69378002D02*
X81955952Y-69317526D01*
X81955952Y-69317526D02*
X81714047Y-69317526D01*
X81714047Y-69317526D02*
X81593095Y-69378002D01*
X81593095Y-69378002D02*
X81532618Y-69438478D01*
X81532618Y-69438478D02*
X81472142Y-69559430D01*
X81472142Y-69559430D02*
X81472142Y-69861811D01*
X81472142Y-69861811D02*
X81532618Y-69982764D01*
X81532618Y-69982764D02*
X81593095Y-70043240D01*
X81593095Y-70043240D02*
X81714047Y-70103716D01*
X81714047Y-70103716D02*
X81955952Y-70103716D01*
X81955952Y-70103716D02*
X82076904Y-70043240D01*
X82076904Y-70043240D02*
X82137380Y-69982764D01*
X82137380Y-69982764D02*
X82197857Y-69861811D01*
D12*
%TO.C,C2*%
X91033333Y-58567380D02*
X90985714Y-58615000D01*
X90985714Y-58615000D02*
X90842857Y-58662619D01*
X90842857Y-58662619D02*
X90747619Y-58662619D01*
X90747619Y-58662619D02*
X90604762Y-58615000D01*
X90604762Y-58615000D02*
X90509524Y-58519761D01*
X90509524Y-58519761D02*
X90461905Y-58424523D01*
X90461905Y-58424523D02*
X90414286Y-58234047D01*
X90414286Y-58234047D02*
X90414286Y-58091190D01*
X90414286Y-58091190D02*
X90461905Y-57900714D01*
X90461905Y-57900714D02*
X90509524Y-57805476D01*
X90509524Y-57805476D02*
X90604762Y-57710238D01*
X90604762Y-57710238D02*
X90747619Y-57662619D01*
X90747619Y-57662619D02*
X90842857Y-57662619D01*
X90842857Y-57662619D02*
X90985714Y-57710238D01*
X90985714Y-57710238D02*
X91033333Y-57757857D01*
X91414286Y-57757857D02*
X91461905Y-57710238D01*
X91461905Y-57710238D02*
X91557143Y-57662619D01*
X91557143Y-57662619D02*
X91795238Y-57662619D01*
X91795238Y-57662619D02*
X91890476Y-57710238D01*
X91890476Y-57710238D02*
X91938095Y-57757857D01*
X91938095Y-57757857D02*
X91985714Y-57853095D01*
X91985714Y-57853095D02*
X91985714Y-57948333D01*
X91985714Y-57948333D02*
X91938095Y-58091190D01*
X91938095Y-58091190D02*
X91366667Y-58662619D01*
X91366667Y-58662619D02*
X91985714Y-58662619D01*
D10*
%TO.C,C9*%
X83988333Y-65666573D02*
X83927857Y-65727050D01*
X83927857Y-65727050D02*
X83746428Y-65787526D01*
X83746428Y-65787526D02*
X83625476Y-65787526D01*
X83625476Y-65787526D02*
X83444047Y-65727050D01*
X83444047Y-65727050D02*
X83323095Y-65606097D01*
X83323095Y-65606097D02*
X83262618Y-65485145D01*
X83262618Y-65485145D02*
X83202142Y-65243240D01*
X83202142Y-65243240D02*
X83202142Y-65061811D01*
X83202142Y-65061811D02*
X83262618Y-64819907D01*
X83262618Y-64819907D02*
X83323095Y-64698954D01*
X83323095Y-64698954D02*
X83444047Y-64578002D01*
X83444047Y-64578002D02*
X83625476Y-64517526D01*
X83625476Y-64517526D02*
X83746428Y-64517526D01*
X83746428Y-64517526D02*
X83927857Y-64578002D01*
X83927857Y-64578002D02*
X83988333Y-64638478D01*
X84593095Y-65787526D02*
X84834999Y-65787526D01*
X84834999Y-65787526D02*
X84955952Y-65727050D01*
X84955952Y-65727050D02*
X85016428Y-65666573D01*
X85016428Y-65666573D02*
X85137380Y-65485145D01*
X85137380Y-65485145D02*
X85197857Y-65243240D01*
X85197857Y-65243240D02*
X85197857Y-64759430D01*
X85197857Y-64759430D02*
X85137380Y-64638478D01*
X85137380Y-64638478D02*
X85076904Y-64578002D01*
X85076904Y-64578002D02*
X84955952Y-64517526D01*
X84955952Y-64517526D02*
X84714047Y-64517526D01*
X84714047Y-64517526D02*
X84593095Y-64578002D01*
X84593095Y-64578002D02*
X84532618Y-64638478D01*
X84532618Y-64638478D02*
X84472142Y-64759430D01*
X84472142Y-64759430D02*
X84472142Y-65061811D01*
X84472142Y-65061811D02*
X84532618Y-65182764D01*
X84532618Y-65182764D02*
X84593095Y-65243240D01*
X84593095Y-65243240D02*
X84714047Y-65303716D01*
X84714047Y-65303716D02*
X84955952Y-65303716D01*
X84955952Y-65303716D02*
X85076904Y-65243240D01*
X85076904Y-65243240D02*
X85137380Y-65182764D01*
X85137380Y-65182764D02*
X85197857Y-65061811D01*
%TO.C,R5*%
X93488333Y-64587526D02*
X93064999Y-63982764D01*
X92762618Y-64587526D02*
X92762618Y-63317526D01*
X92762618Y-63317526D02*
X93246428Y-63317526D01*
X93246428Y-63317526D02*
X93367380Y-63378002D01*
X93367380Y-63378002D02*
X93427857Y-63438478D01*
X93427857Y-63438478D02*
X93488333Y-63559430D01*
X93488333Y-63559430D02*
X93488333Y-63740859D01*
X93488333Y-63740859D02*
X93427857Y-63861811D01*
X93427857Y-63861811D02*
X93367380Y-63922288D01*
X93367380Y-63922288D02*
X93246428Y-63982764D01*
X93246428Y-63982764D02*
X92762618Y-63982764D01*
X94637380Y-63317526D02*
X94032618Y-63317526D01*
X94032618Y-63317526D02*
X93972142Y-63922288D01*
X93972142Y-63922288D02*
X94032618Y-63861811D01*
X94032618Y-63861811D02*
X94153571Y-63801335D01*
X94153571Y-63801335D02*
X94455952Y-63801335D01*
X94455952Y-63801335D02*
X94576904Y-63861811D01*
X94576904Y-63861811D02*
X94637380Y-63922288D01*
X94637380Y-63922288D02*
X94697857Y-64043240D01*
X94697857Y-64043240D02*
X94697857Y-64345621D01*
X94697857Y-64345621D02*
X94637380Y-64466573D01*
X94637380Y-64466573D02*
X94576904Y-64527050D01*
X94576904Y-64527050D02*
X94455952Y-64587526D01*
X94455952Y-64587526D02*
X94153571Y-64587526D01*
X94153571Y-64587526D02*
X94032618Y-64527050D01*
X94032618Y-64527050D02*
X93972142Y-64466573D01*
%TO.C,C10*%
X77183571Y-68466573D02*
X77123095Y-68527050D01*
X77123095Y-68527050D02*
X76941666Y-68587526D01*
X76941666Y-68587526D02*
X76820714Y-68587526D01*
X76820714Y-68587526D02*
X76639285Y-68527050D01*
X76639285Y-68527050D02*
X76518333Y-68406097D01*
X76518333Y-68406097D02*
X76457856Y-68285145D01*
X76457856Y-68285145D02*
X76397380Y-68043240D01*
X76397380Y-68043240D02*
X76397380Y-67861811D01*
X76397380Y-67861811D02*
X76457856Y-67619907D01*
X76457856Y-67619907D02*
X76518333Y-67498954D01*
X76518333Y-67498954D02*
X76639285Y-67378002D01*
X76639285Y-67378002D02*
X76820714Y-67317526D01*
X76820714Y-67317526D02*
X76941666Y-67317526D01*
X76941666Y-67317526D02*
X77123095Y-67378002D01*
X77123095Y-67378002D02*
X77183571Y-67438478D01*
X78393095Y-68587526D02*
X77667380Y-68587526D01*
X78030237Y-68587526D02*
X78030237Y-67317526D01*
X78030237Y-67317526D02*
X77909285Y-67498954D01*
X77909285Y-67498954D02*
X77788333Y-67619907D01*
X77788333Y-67619907D02*
X77667380Y-67680383D01*
X79179285Y-67317526D02*
X79300238Y-67317526D01*
X79300238Y-67317526D02*
X79421190Y-67378002D01*
X79421190Y-67378002D02*
X79481666Y-67438478D01*
X79481666Y-67438478D02*
X79542142Y-67559430D01*
X79542142Y-67559430D02*
X79602619Y-67801335D01*
X79602619Y-67801335D02*
X79602619Y-68103716D01*
X79602619Y-68103716D02*
X79542142Y-68345621D01*
X79542142Y-68345621D02*
X79481666Y-68466573D01*
X79481666Y-68466573D02*
X79421190Y-68527050D01*
X79421190Y-68527050D02*
X79300238Y-68587526D01*
X79300238Y-68587526D02*
X79179285Y-68587526D01*
X79179285Y-68587526D02*
X79058333Y-68527050D01*
X79058333Y-68527050D02*
X78997857Y-68466573D01*
X78997857Y-68466573D02*
X78937380Y-68345621D01*
X78937380Y-68345621D02*
X78876904Y-68103716D01*
X78876904Y-68103716D02*
X78876904Y-67801335D01*
X78876904Y-67801335D02*
X78937380Y-67559430D01*
X78937380Y-67559430D02*
X78997857Y-67438478D01*
X78997857Y-67438478D02*
X79058333Y-67378002D01*
X79058333Y-67378002D02*
X79179285Y-67317526D01*
%TO.C,R7*%
X77788333Y-63887526D02*
X77364999Y-63282764D01*
X77062618Y-63887526D02*
X77062618Y-62617526D01*
X77062618Y-62617526D02*
X77546428Y-62617526D01*
X77546428Y-62617526D02*
X77667380Y-62678002D01*
X77667380Y-62678002D02*
X77727857Y-62738478D01*
X77727857Y-62738478D02*
X77788333Y-62859430D01*
X77788333Y-62859430D02*
X77788333Y-63040859D01*
X77788333Y-63040859D02*
X77727857Y-63161811D01*
X77727857Y-63161811D02*
X77667380Y-63222288D01*
X77667380Y-63222288D02*
X77546428Y-63282764D01*
X77546428Y-63282764D02*
X77062618Y-63282764D01*
X78211666Y-62617526D02*
X79058333Y-62617526D01*
X79058333Y-62617526D02*
X78514047Y-63887526D01*
%TO.C,D2*%
X90862618Y-69787526D02*
X90862618Y-68517526D01*
X90862618Y-68517526D02*
X91164999Y-68517526D01*
X91164999Y-68517526D02*
X91346428Y-68578002D01*
X91346428Y-68578002D02*
X91467380Y-68698954D01*
X91467380Y-68698954D02*
X91527857Y-68819907D01*
X91527857Y-68819907D02*
X91588333Y-69061811D01*
X91588333Y-69061811D02*
X91588333Y-69243240D01*
X91588333Y-69243240D02*
X91527857Y-69485145D01*
X91527857Y-69485145D02*
X91467380Y-69606097D01*
X91467380Y-69606097D02*
X91346428Y-69727050D01*
X91346428Y-69727050D02*
X91164999Y-69787526D01*
X91164999Y-69787526D02*
X90862618Y-69787526D01*
X92072142Y-68638478D02*
X92132618Y-68578002D01*
X92132618Y-68578002D02*
X92253571Y-68517526D01*
X92253571Y-68517526D02*
X92555952Y-68517526D01*
X92555952Y-68517526D02*
X92676904Y-68578002D01*
X92676904Y-68578002D02*
X92737380Y-68638478D01*
X92737380Y-68638478D02*
X92797857Y-68759430D01*
X92797857Y-68759430D02*
X92797857Y-68880383D01*
X92797857Y-68880383D02*
X92737380Y-69061811D01*
X92737380Y-69061811D02*
X92011666Y-69787526D01*
X92011666Y-69787526D02*
X92797857Y-69787526D01*
D11*
%TO.C,U2*%
X84488095Y-57087619D02*
X84488095Y-57897142D01*
X84488095Y-57897142D02*
X84535714Y-57992380D01*
X84535714Y-57992380D02*
X84583333Y-58040000D01*
X84583333Y-58040000D02*
X84678571Y-58087619D01*
X84678571Y-58087619D02*
X84869047Y-58087619D01*
X84869047Y-58087619D02*
X84964285Y-58040000D01*
X84964285Y-58040000D02*
X85011904Y-57992380D01*
X85011904Y-57992380D02*
X85059523Y-57897142D01*
X85059523Y-57897142D02*
X85059523Y-57087619D01*
X85488095Y-57182857D02*
X85535714Y-57135238D01*
X85535714Y-57135238D02*
X85630952Y-57087619D01*
X85630952Y-57087619D02*
X85869047Y-57087619D01*
X85869047Y-57087619D02*
X85964285Y-57135238D01*
X85964285Y-57135238D02*
X86011904Y-57182857D01*
X86011904Y-57182857D02*
X86059523Y-57278095D01*
X86059523Y-57278095D02*
X86059523Y-57373333D01*
X86059523Y-57373333D02*
X86011904Y-57516190D01*
X86011904Y-57516190D02*
X85440476Y-58087619D01*
X85440476Y-58087619D02*
X86059523Y-58087619D01*
D10*
%TO.C,C11*%
X77383571Y-55866573D02*
X77323095Y-55927050D01*
X77323095Y-55927050D02*
X77141666Y-55987526D01*
X77141666Y-55987526D02*
X77020714Y-55987526D01*
X77020714Y-55987526D02*
X76839285Y-55927050D01*
X76839285Y-55927050D02*
X76718333Y-55806097D01*
X76718333Y-55806097D02*
X76657856Y-55685145D01*
X76657856Y-55685145D02*
X76597380Y-55443240D01*
X76597380Y-55443240D02*
X76597380Y-55261811D01*
X76597380Y-55261811D02*
X76657856Y-55019907D01*
X76657856Y-55019907D02*
X76718333Y-54898954D01*
X76718333Y-54898954D02*
X76839285Y-54778002D01*
X76839285Y-54778002D02*
X77020714Y-54717526D01*
X77020714Y-54717526D02*
X77141666Y-54717526D01*
X77141666Y-54717526D02*
X77323095Y-54778002D01*
X77323095Y-54778002D02*
X77383571Y-54838478D01*
X78593095Y-55987526D02*
X77867380Y-55987526D01*
X78230237Y-55987526D02*
X78230237Y-54717526D01*
X78230237Y-54717526D02*
X78109285Y-54898954D01*
X78109285Y-54898954D02*
X77988333Y-55019907D01*
X77988333Y-55019907D02*
X77867380Y-55080383D01*
X79802619Y-55987526D02*
X79076904Y-55987526D01*
X79439761Y-55987526D02*
X79439761Y-54717526D01*
X79439761Y-54717526D02*
X79318809Y-54898954D01*
X79318809Y-54898954D02*
X79197857Y-55019907D01*
X79197857Y-55019907D02*
X79076904Y-55080383D01*
D11*
%TO.C,PINS*%
X72600000Y-50562619D02*
X72600000Y-49562619D01*
X72600000Y-49562619D02*
X72980952Y-49562619D01*
X72980952Y-49562619D02*
X73076190Y-49610238D01*
X73076190Y-49610238D02*
X73123809Y-49657857D01*
X73123809Y-49657857D02*
X73171428Y-49753095D01*
X73171428Y-49753095D02*
X73171428Y-49895952D01*
X73171428Y-49895952D02*
X73123809Y-49991190D01*
X73123809Y-49991190D02*
X73076190Y-50038809D01*
X73076190Y-50038809D02*
X72980952Y-50086428D01*
X72980952Y-50086428D02*
X72600000Y-50086428D01*
X73600000Y-50562619D02*
X73600000Y-49562619D01*
X74076190Y-50562619D02*
X74076190Y-49562619D01*
X74076190Y-49562619D02*
X74647618Y-50562619D01*
X74647618Y-50562619D02*
X74647618Y-49562619D01*
X75076190Y-50515000D02*
X75219047Y-50562619D01*
X75219047Y-50562619D02*
X75457142Y-50562619D01*
X75457142Y-50562619D02*
X75552380Y-50515000D01*
X75552380Y-50515000D02*
X75599999Y-50467380D01*
X75599999Y-50467380D02*
X75647618Y-50372142D01*
X75647618Y-50372142D02*
X75647618Y-50276904D01*
X75647618Y-50276904D02*
X75599999Y-50181666D01*
X75599999Y-50181666D02*
X75552380Y-50134047D01*
X75552380Y-50134047D02*
X75457142Y-50086428D01*
X75457142Y-50086428D02*
X75266666Y-50038809D01*
X75266666Y-50038809D02*
X75171428Y-49991190D01*
X75171428Y-49991190D02*
X75123809Y-49943571D01*
X75123809Y-49943571D02*
X75076190Y-49848333D01*
X75076190Y-49848333D02*
X75076190Y-49753095D01*
X75076190Y-49753095D02*
X75123809Y-49657857D01*
X75123809Y-49657857D02*
X75171428Y-49610238D01*
X75171428Y-49610238D02*
X75266666Y-49562619D01*
X75266666Y-49562619D02*
X75504761Y-49562619D01*
X75504761Y-49562619D02*
X75647618Y-49610238D01*
D10*
%TO.C,C8*%
X78288333Y-59766573D02*
X78227857Y-59827050D01*
X78227857Y-59827050D02*
X78046428Y-59887526D01*
X78046428Y-59887526D02*
X77925476Y-59887526D01*
X77925476Y-59887526D02*
X77744047Y-59827050D01*
X77744047Y-59827050D02*
X77623095Y-59706097D01*
X77623095Y-59706097D02*
X77562618Y-59585145D01*
X77562618Y-59585145D02*
X77502142Y-59343240D01*
X77502142Y-59343240D02*
X77502142Y-59161811D01*
X77502142Y-59161811D02*
X77562618Y-58919907D01*
X77562618Y-58919907D02*
X77623095Y-58798954D01*
X77623095Y-58798954D02*
X77744047Y-58678002D01*
X77744047Y-58678002D02*
X77925476Y-58617526D01*
X77925476Y-58617526D02*
X78046428Y-58617526D01*
X78046428Y-58617526D02*
X78227857Y-58678002D01*
X78227857Y-58678002D02*
X78288333Y-58738478D01*
X79014047Y-59161811D02*
X78893095Y-59101335D01*
X78893095Y-59101335D02*
X78832618Y-59040859D01*
X78832618Y-59040859D02*
X78772142Y-58919907D01*
X78772142Y-58919907D02*
X78772142Y-58859430D01*
X78772142Y-58859430D02*
X78832618Y-58738478D01*
X78832618Y-58738478D02*
X78893095Y-58678002D01*
X78893095Y-58678002D02*
X79014047Y-58617526D01*
X79014047Y-58617526D02*
X79255952Y-58617526D01*
X79255952Y-58617526D02*
X79376904Y-58678002D01*
X79376904Y-58678002D02*
X79437380Y-58738478D01*
X79437380Y-58738478D02*
X79497857Y-58859430D01*
X79497857Y-58859430D02*
X79497857Y-58919907D01*
X79497857Y-58919907D02*
X79437380Y-59040859D01*
X79437380Y-59040859D02*
X79376904Y-59101335D01*
X79376904Y-59101335D02*
X79255952Y-59161811D01*
X79255952Y-59161811D02*
X79014047Y-59161811D01*
X79014047Y-59161811D02*
X78893095Y-59222288D01*
X78893095Y-59222288D02*
X78832618Y-59282764D01*
X78832618Y-59282764D02*
X78772142Y-59403716D01*
X78772142Y-59403716D02*
X78772142Y-59645621D01*
X78772142Y-59645621D02*
X78832618Y-59766573D01*
X78832618Y-59766573D02*
X78893095Y-59827050D01*
X78893095Y-59827050D02*
X79014047Y-59887526D01*
X79014047Y-59887526D02*
X79255952Y-59887526D01*
X79255952Y-59887526D02*
X79376904Y-59827050D01*
X79376904Y-59827050D02*
X79437380Y-59766573D01*
X79437380Y-59766573D02*
X79497857Y-59645621D01*
X79497857Y-59645621D02*
X79497857Y-59403716D01*
X79497857Y-59403716D02*
X79437380Y-59282764D01*
X79437380Y-59282764D02*
X79376904Y-59222288D01*
X79376904Y-59222288D02*
X79255952Y-59161811D01*
D13*
%TO.C,U1*%
X82400000Y-50090000D02*
X88410000Y-50090000D01*
X84650000Y-56910000D02*
X88410000Y-56910000D01*
X88410000Y-50090000D02*
X88410000Y-51350000D01*
X88410000Y-56910000D02*
X88410000Y-55650000D01*
D14*
%TO.C,R8*%
X89700000Y-66310000D02*
X91300000Y-66310000D01*
X89700000Y-67690000D02*
X91300000Y-67690000D01*
%TO.C,R9*%
X83510000Y-69310000D02*
X85110000Y-69310000D01*
X83510000Y-70690000D02*
X85110000Y-70690000D01*
%TO.C,R5*%
X89910000Y-63310000D02*
X91510000Y-63310000D01*
X89910000Y-64690000D02*
X91510000Y-64690000D01*
%TO.C,R7*%
X77410000Y-64310000D02*
X79010000Y-64310000D01*
X77410000Y-65690000D02*
X79010000Y-65690000D01*
D11*
%TO.C,U2*%
X83100000Y-58850000D02*
X83625000Y-58850000D01*
X83100000Y-63150000D02*
X83100000Y-62625000D01*
X83100000Y-63150000D02*
X83625000Y-63150000D01*
X87400000Y-58850000D02*
X86875000Y-58850000D01*
X87400000Y-58850000D02*
X87400000Y-59375000D01*
X87400000Y-63150000D02*
X86875000Y-63150000D01*
X87400000Y-63150000D02*
X87400000Y-62625000D01*
D13*
%TO.C,PINS*%
X72670000Y-51130000D02*
X74000000Y-51130000D01*
X72670000Y-52460000D02*
X72670000Y-51130000D01*
X72670000Y-53730000D02*
X72670000Y-71570000D01*
X72670000Y-53730000D02*
X75330000Y-53730000D01*
X72670000Y-71570000D02*
X75330000Y-71570000D01*
X75330000Y-53730000D02*
X75330000Y-71570000D01*
%TD*%
M02*
