%TF.GenerationSoftware,KiCad,Pcbnew,7.0.1*%
%TF.CreationDate,2023-04-19T16:41:29+02:00*%
%TF.ProjectId,MPU,4d50552e-6b69-4636-9164-5f7063625858,version_01*%
%TF.SameCoordinates,Original*%
%TF.FileFunction,Copper,L2,Bot*%
%TF.FilePolarity,Positive*%
%FSLAX46Y46*%
G04 Gerber Fmt 4.6, Leading zero omitted, Abs format (unit mm)*
G04 Created by KiCad (PCBNEW 7.0.1) date 2023-04-19 16:41:29*
%MOMM*%
%LPD*%
G01*
G04 APERTURE LIST*
%TA.AperFunction,ComponentPad*%
%ADD10R,1.700000X1.700000*%
%TD*%
%TA.AperFunction,ComponentPad*%
%ADD11O,1.700000X1.700000*%
%TD*%
%TA.AperFunction,ViaPad*%
%ADD12C,0.800000*%
%TD*%
%TA.AperFunction,Conductor*%
%ADD13C,0.250000*%
%TD*%
G04 APERTURE END LIST*
D10*
%TO.P,PINS,1,Pin_1*%
%TO.N,VCC*%
X74000000Y-52460000D03*
D11*
%TO.P,PINS,2,Pin_2*%
%TO.N,GND*%
X74000000Y-55000000D03*
%TO.P,PINS,3,Pin_3*%
%TO.N,/SCL*%
X74000000Y-57540000D03*
%TO.P,PINS,4,Pin_4*%
%TO.N,/SDA*%
X74000000Y-60080000D03*
%TO.P,PINS,5,Pin_5*%
%TO.N,/XDA*%
X74000000Y-62620000D03*
%TO.P,PINS,6,Pin_6*%
%TO.N,/XCL*%
X74000000Y-65160000D03*
%TO.P,PINS,7,Pin_7*%
%TO.N,Net-(PIN1-Pin_7)*%
X74000000Y-67700000D03*
%TO.P,PINS,8,Pin_8*%
%TO.N,/INT*%
X74000000Y-70240000D03*
%TD*%
D12*
%TO.N,+3.3V*%
X80412299Y-60424500D03*
X82169503Y-63038201D03*
X81512299Y-54987701D03*
X92000000Y-54900000D03*
X78767976Y-57100000D03*
X79952166Y-57618408D03*
%TO.N,Net-(U2-REGOUT)*%
X85000000Y-64775500D03*
X85000000Y-67000000D03*
%TO.N,GND*%
X86100000Y-64724500D03*
X88900000Y-61000000D03*
X88100000Y-66400000D03*
%TO.N,Net-(U2-CPOUT)*%
X87462701Y-58137299D03*
X77148478Y-61475500D03*
%TO.N,VCC*%
X83300000Y-54849502D03*
X73900000Y-49400000D03*
%TO.N,/SCL*%
X78000000Y-59724500D03*
X84500000Y-58100000D03*
X74768235Y-61309176D03*
%TO.N,/SDA*%
X91300000Y-62724500D03*
X83869443Y-57324500D03*
X82462356Y-57971624D03*
%TO.N,/XDA*%
X81500000Y-62000000D03*
%TO.N,/XCL*%
X83400000Y-63275500D03*
%TO.N,Net-(PIN1-Pin_7)*%
X81487701Y-64487701D03*
%TO.N,/INT*%
X87087701Y-63887701D03*
%TD*%
D13*
%TO.N,+3.3V*%
X86136396Y-56600000D02*
X89050000Y-53686396D01*
X73325000Y-56175000D02*
X78325000Y-56175000D01*
X81488201Y-63038201D02*
X81450000Y-63000000D01*
X81450000Y-63000000D02*
X75281701Y-63000000D01*
X80500000Y-55431802D02*
X80200000Y-55431802D01*
X74486701Y-63795000D02*
X73513299Y-63795000D01*
X82500000Y-62025305D02*
X82500000Y-62000000D01*
X78500000Y-55500000D02*
X78500000Y-56000000D01*
X82575000Y-60424500D02*
X82575000Y-61950305D01*
X80700000Y-55431802D02*
X81068198Y-55431802D01*
X89313604Y-53050000D02*
X90686396Y-53050000D01*
X80713604Y-56850000D02*
X82924695Y-56850000D01*
X82169503Y-63038201D02*
X81488201Y-63038201D01*
X80200000Y-55431802D02*
X78568198Y-55431802D01*
X89050000Y-53313604D02*
X89313604Y-53050000D01*
X81068198Y-55431802D02*
X81512299Y-54987701D01*
X92000000Y-54363604D02*
X92000000Y-54900000D01*
X78325000Y-56175000D02*
X78500000Y-56000000D01*
X78568198Y-55431802D02*
X78500000Y-55500000D01*
X80200000Y-55431802D02*
X80700000Y-55431802D01*
X82924695Y-56850000D02*
X83174695Y-56600000D01*
X75281701Y-63000000D02*
X74486701Y-63795000D01*
X80221114Y-57887356D02*
X80221114Y-57342490D01*
X80500000Y-55431802D02*
X80700000Y-55431802D01*
X72800000Y-63081701D02*
X72800000Y-56700000D01*
X73513299Y-63795000D02*
X72800000Y-63081701D01*
X83174695Y-56600000D02*
X86136396Y-56600000D01*
X72800000Y-56700000D02*
X73325000Y-56175000D01*
X79952166Y-57618408D02*
X80221114Y-57887356D01*
X89050000Y-53686396D02*
X89050000Y-53313604D01*
X80412299Y-60424500D02*
X82575000Y-60424500D01*
X90686396Y-53050000D02*
X92000000Y-54363604D01*
X81450000Y-63000000D02*
X81525305Y-63000000D01*
X78767976Y-57100000D02*
X78767976Y-56761895D01*
X78900000Y-56500000D02*
X78751776Y-56351777D01*
X81525305Y-63000000D02*
X82500000Y-62025305D01*
X80221114Y-57342490D02*
X80713604Y-56850000D01*
X78751786Y-56351767D02*
G75*
G03*
X78325000Y-56175000I-426786J-426833D01*
G01*
X78900005Y-56500005D02*
G75*
G03*
X78767977Y-56761895I343895J-337595D01*
G01*
%TO.N,Net-(U2-REGOUT)*%
X85000000Y-64775500D02*
X85000000Y-67000000D01*
%TO.N,GND*%
X87400000Y-64800000D02*
X88100000Y-65500000D01*
X88900000Y-61024500D02*
X88900000Y-61000000D01*
X88750000Y-61174500D02*
X88900000Y-61024500D01*
X86175500Y-64800000D02*
X86100000Y-64724500D01*
X87200000Y-64800000D02*
X86175500Y-64800000D01*
X88750000Y-63250000D02*
X87200000Y-64800000D01*
X88750000Y-61174500D02*
X88750000Y-63250000D01*
X88100000Y-65500000D02*
X88100000Y-66400000D01*
%TO.N,Net-(U2-CPOUT)*%
X82483579Y-59611396D02*
X80200098Y-59611396D01*
X77172978Y-61500000D02*
X80974695Y-61500000D01*
X84199695Y-58825000D02*
X83949695Y-58575000D01*
X87462701Y-58137299D02*
X87325402Y-58000000D01*
X79687299Y-60124195D02*
X79687299Y-60724805D01*
X87325402Y-58000000D02*
X85500000Y-58000000D01*
X80200098Y-59611396D02*
X79687299Y-60124195D01*
X80987604Y-60874500D02*
X82125000Y-60874500D01*
X83519975Y-58575000D02*
X82483579Y-59611396D01*
X80974695Y-61500000D02*
X81199695Y-61275000D01*
X85500000Y-58000000D02*
X85500000Y-58125305D01*
X80712604Y-61149500D02*
X80987604Y-60874500D01*
X84800305Y-58825000D02*
X84199695Y-58825000D01*
X79687299Y-60724805D02*
X80111994Y-61149500D01*
X82125000Y-60874500D02*
X82125000Y-61275000D01*
X83949695Y-58575000D02*
X83519975Y-58575000D01*
X77148478Y-61475500D02*
X77172978Y-61500000D01*
X81199695Y-61275000D02*
X82125000Y-61275000D01*
X85500000Y-58125305D02*
X84800305Y-58825000D01*
X80111994Y-61149500D02*
X80712604Y-61149500D01*
%TO.N,VCC*%
X83300000Y-54400000D02*
X83300000Y-54849502D01*
X73900000Y-49400000D02*
X74300000Y-49400000D01*
X74300000Y-49400000D02*
X78900000Y-54000000D01*
X82900000Y-54000000D02*
X83200000Y-54300000D01*
X82000000Y-54000000D02*
X82900000Y-54000000D01*
X78900000Y-54000000D02*
X82000000Y-54000000D01*
X83200000Y-54300000D02*
X83300000Y-54400000D01*
%TO.N,/SCL*%
X78000000Y-59700000D02*
X78750000Y-58950000D01*
X83500000Y-58125000D02*
X84418934Y-58125000D01*
X80697792Y-59161396D02*
X82297183Y-59161396D01*
X80486396Y-58950000D02*
X80697792Y-59161396D01*
X74768235Y-61309176D02*
X74827220Y-61309176D01*
X83333578Y-58125000D02*
X83500000Y-58125000D01*
X77124500Y-59724500D02*
X78000000Y-59724500D01*
X82297183Y-59161396D02*
X82458579Y-59000000D01*
X76768198Y-59368198D02*
X77124500Y-59724500D01*
X84418934Y-58125000D02*
X84439645Y-58125000D01*
X82458579Y-59000000D02*
X83079289Y-58379289D01*
X74827220Y-61309176D02*
X76768198Y-59368198D01*
X83079289Y-58379289D02*
X83333578Y-58125000D01*
X78000000Y-59724500D02*
X78000000Y-59700000D01*
X83079289Y-58379289D02*
X83221617Y-58236962D01*
X78750000Y-58950000D02*
X80486396Y-58950000D01*
X84439645Y-58125018D02*
G75*
G03*
X84500000Y-58100000I-45J85418D01*
G01*
%TO.N,/SDA*%
X75420000Y-60080000D02*
X74000000Y-60080000D01*
X90724696Y-62724500D02*
X91300000Y-62724500D01*
X82000000Y-58500000D02*
X77000000Y-58500000D01*
X83893943Y-57300000D02*
X83869443Y-57324500D01*
X90312299Y-61787701D02*
X91100000Y-61000000D01*
X77000000Y-58500000D02*
X75420000Y-60080000D01*
X82462356Y-57988644D02*
X81975500Y-58475500D01*
X82462356Y-57971624D02*
X82462356Y-57988644D01*
X90950000Y-57950000D02*
X88400000Y-57950000D01*
X91100000Y-58100000D02*
X90950000Y-57950000D01*
X90674598Y-62774598D02*
X89687701Y-61787701D01*
X88300000Y-57950000D02*
X87650000Y-57300000D01*
X87650000Y-57300000D02*
X83893943Y-57300000D01*
X90750000Y-62774598D02*
X90674598Y-62774598D01*
X90674598Y-62774598D02*
X90724696Y-62724500D01*
X91100000Y-61000000D02*
X91100000Y-58100000D01*
X89687701Y-61787701D02*
X90312299Y-61787701D01*
%TO.N,/XDA*%
X74420000Y-62200000D02*
X81300000Y-62200000D01*
X74000000Y-62620000D02*
X74420000Y-62200000D01*
X81300000Y-62200000D02*
X81500000Y-62000000D01*
%TO.N,/XCL*%
X75397299Y-63762701D02*
X82600903Y-63762701D01*
X74000000Y-65160000D02*
X75397299Y-63762701D01*
X82867560Y-63496044D02*
X82600903Y-63762701D01*
X83400000Y-63275505D02*
G75*
G03*
X82867560Y-63496044I0J-752995D01*
G01*
%TO.N,Net-(PIN1-Pin_7)*%
X79500000Y-66475402D02*
X79500000Y-67500000D01*
X81487701Y-64487701D02*
X79500000Y-66475402D01*
X79000000Y-68000000D02*
X78700000Y-67700000D01*
X78700000Y-67700000D02*
X74000000Y-67700000D01*
X79500000Y-67500000D02*
X79000000Y-68000000D01*
%TO.N,/INT*%
X87087701Y-63887701D02*
X86771113Y-63887701D01*
X81000000Y-66000000D02*
X81000000Y-68500000D01*
X81000000Y-68500000D02*
X75740000Y-68500000D01*
X83000000Y-64000000D02*
X81000000Y-66000000D01*
X86500000Y-64000000D02*
X83000000Y-64000000D01*
X75740000Y-68500000D02*
X74000000Y-70240000D01*
X86771113Y-63887707D02*
G75*
G03*
X86500000Y-64000000I-13J-383393D01*
G01*
%TD*%
M02*
