M48
; DRILL file {KiCad 7.0.1} date Wed Apr 19 16:43:33 2023
; FORMAT={-:-/ absolute / inch / decimal}
; #@! TF.CreationDate,2023-04-19T16:43:33+02:00
; #@! TF.GenerationSoftware,Kicad,Pcbnew,7.0.1
; #@! TF.FileFunction,Plated,1,2,PTH
FMAT,2
INCH
; #@! TA.AperFunction,Plated,PTH,ViaDrill
T1C0.0157
; #@! TA.AperFunction,Plated,PTH,ComponentDrill
T2C0.0394
%
G90
G05
T1
X2.9094Y-1.9449
X2.9436Y-2.4137
X3.0373Y-2.4203
X3.0709Y-2.3514
X3.1011Y-2.248
X3.1477Y-2.2684
X3.1658Y-2.3789
X3.2082Y-2.5389
X3.2087Y-2.4409
X3.2091Y-2.1649
X3.235Y-2.4818
X3.2465Y-2.2823
X3.2795Y-2.1594
X3.2835Y-2.4912
X3.3019Y-2.2569
X3.3268Y-2.2874
X3.3465Y-2.5502
X3.3465Y-2.6378
X3.3898Y-2.5482
X3.4286Y-2.5153
X3.4434Y-2.2889
X3.4685Y-2.6142
X3.5Y-2.4016
X3.5945Y-2.4695
X3.622Y-2.1614
T2
X2.9134Y-2.0654
X2.9134Y-2.1654
X2.9134Y-2.2654
X2.9134Y-2.3654
X2.9134Y-2.4654
X2.9134Y-2.5654
X2.9134Y-2.6654
X2.9134Y-2.7654
T0
M30
