G04 #@! TF.GenerationSoftware,KiCad,Pcbnew,7.0.1*
G04 #@! TF.CreationDate,2023-04-20T12:55:15+02:00*
G04 #@! TF.ProjectId,MPU,4d50552e-6b69-4636-9164-5f7063625858,version_01*
G04 #@! TF.SameCoordinates,Original*
G04 #@! TF.FileFunction,Soldermask,Top*
G04 #@! TF.FilePolarity,Negative*
%FSLAX46Y46*%
G04 Gerber Fmt 4.6, Leading zero omitted, Abs format (unit mm)*
G04 Created by KiCad (PCBNEW 7.0.1) date 2023-04-20 12:55:15*
%MOMM*%
%LPD*%
G01*
G04 APERTURE LIST*
G04 Aperture macros list*
%AMRoundRect*
0 Rectangle with rounded corners*
0 $1 Rounding radius*
0 $2 $3 $4 $5 $6 $7 $8 $9 X,Y pos of 4 corners*
0 Add a 4 corners polygon primitive as box body*
4,1,4,$2,$3,$4,$5,$6,$7,$8,$9,$2,$3,0*
0 Add four circle primitives for the rounded corners*
1,1,$1+$1,$2,$3*
1,1,$1+$1,$4,$5*
1,1,$1+$1,$6,$7*
1,1,$1+$1,$8,$9*
0 Add four rect primitives between the rounded corners*
20,1,$1+$1,$2,$3,$4,$5,0*
20,1,$1+$1,$4,$5,$6,$7,0*
20,1,$1+$1,$6,$7,$8,$9,0*
20,1,$1+$1,$8,$9,$2,$3,0*%
G04 Aperture macros list end*
%ADD10C,3.200000*%
%ADD11R,2.000000X1.500000*%
%ADD12R,2.000000X3.800000*%
%ADD13RoundRect,0.094000X-0.416000X0.376000X-0.416000X-0.376000X0.416000X-0.376000X0.416000X0.376000X0*%
%ADD14R,1.470000X0.970000*%
%ADD15R,0.970000X1.470000*%
%ADD16RoundRect,0.094000X0.376000X0.416000X-0.376000X0.416000X-0.376000X-0.416000X0.376000X-0.416000X0*%
%ADD17RoundRect,0.075000X-0.350000X-0.075000X0.350000X-0.075000X0.350000X0.075000X-0.350000X0.075000X0*%
%ADD18RoundRect,0.075000X0.075000X-0.350000X0.075000X0.350000X-0.075000X0.350000X-0.075000X-0.350000X0*%
%ADD19O,1.700000X1.700000*%
%ADD20R,1.700000X1.700000*%
G04 APERTURE END LIST*
D10*
X94600000Y-72400000D03*
X94600000Y-49400000D03*
D11*
X90750000Y-53100000D03*
D12*
X84450000Y-55400000D03*
D11*
X90750000Y-55400000D03*
X90750000Y-57700000D03*
D13*
X77600000Y-64600000D03*
X77600000Y-66180000D03*
D14*
X78600000Y-52570000D03*
X78600000Y-54230000D03*
D13*
X81800000Y-69990000D03*
X81800000Y-68410000D03*
D15*
X87370000Y-67200000D03*
X89030000Y-67200000D03*
D14*
X84400000Y-65600000D03*
X84400000Y-67260000D03*
D13*
X81400000Y-54800000D03*
X81400000Y-56380000D03*
D15*
X79970000Y-65600000D03*
X81630000Y-65600000D03*
D16*
X79390000Y-56400000D03*
X77810000Y-56400000D03*
D14*
X77600000Y-68200000D03*
X77600000Y-69860000D03*
D17*
X77650000Y-59350000D03*
X77650000Y-59850000D03*
X77650000Y-60350000D03*
X77650000Y-60850000D03*
X77650000Y-61350000D03*
X77650000Y-61850000D03*
D18*
X78350000Y-62550000D03*
X78850000Y-62550000D03*
X79350000Y-62550000D03*
X79850000Y-62550000D03*
X80350000Y-62550000D03*
X80850000Y-62550000D03*
D17*
X81550000Y-61850000D03*
X81550000Y-61350000D03*
X81550000Y-60850000D03*
X81550000Y-60350000D03*
X81550000Y-59850000D03*
X81550000Y-59350000D03*
D18*
X80850000Y-58650000D03*
X80350000Y-58650000D03*
X79850000Y-58650000D03*
X79350000Y-58650000D03*
X78850000Y-58650000D03*
X78350000Y-58650000D03*
D15*
X87370000Y-62800000D03*
X89030000Y-62800000D03*
D19*
X74000000Y-70340000D03*
X74000000Y-67800000D03*
X74000000Y-65260000D03*
X74000000Y-62720000D03*
X74000000Y-60180000D03*
X74000000Y-57640000D03*
X74000000Y-55100000D03*
D20*
X74000000Y-52560000D03*
D14*
X84400000Y-60770000D03*
X84400000Y-62430000D03*
M02*
