G04 #@! TF.GenerationSoftware,KiCad,Pcbnew,7.0.1*
G04 #@! TF.CreationDate,2023-04-20T12:55:15+02:00*
G04 #@! TF.ProjectId,MPU,4d50552e-6b69-4636-9164-5f7063625858,version_01*
G04 #@! TF.SameCoordinates,Original*
G04 #@! TF.FileFunction,Copper,L2,Bot*
G04 #@! TF.FilePolarity,Positive*
%FSLAX46Y46*%
G04 Gerber Fmt 4.6, Leading zero omitted, Abs format (unit mm)*
G04 Created by KiCad (PCBNEW 7.0.1) date 2023-04-20 12:55:15*
%MOMM*%
%LPD*%
G01*
G04 APERTURE LIST*
G04 #@! TA.AperFunction,ComponentPad*
%ADD10O,1.700000X1.700000*%
G04 #@! TD*
G04 #@! TA.AperFunction,ComponentPad*
%ADD11R,1.700000X1.700000*%
G04 #@! TD*
G04 #@! TA.AperFunction,ViaPad*
%ADD12C,0.800000*%
G04 #@! TD*
G04 #@! TA.AperFunction,Conductor*
%ADD13C,0.250000*%
G04 #@! TD*
G04 #@! TA.AperFunction,Conductor*
%ADD14C,0.400000*%
G04 #@! TD*
G04 APERTURE END LIST*
D10*
X74000000Y-70340000D03*
X74000000Y-67800000D03*
X74000000Y-65260000D03*
X74000000Y-62720000D03*
X74000000Y-60180000D03*
X74000000Y-57640000D03*
X74000000Y-55100000D03*
D11*
X74000000Y-52560000D03*
D12*
X79499160Y-63900840D03*
X81000000Y-67000000D03*
X82600000Y-66000000D03*
X82900450Y-62565048D03*
X76800000Y-54800000D03*
X76400000Y-64000000D03*
X76400000Y-59350000D03*
X86000000Y-62400000D03*
X79400000Y-68600000D03*
X81400000Y-63600000D03*
X82800000Y-60000000D03*
X87600000Y-69200000D03*
X85000000Y-68600000D03*
X77800000Y-57600000D03*
X79806307Y-57508329D03*
D13*
X83000000Y-65600000D02*
X82600000Y-66000000D01*
X76800000Y-48600000D02*
X76800000Y-54800000D01*
X76400000Y-48200000D02*
X76800000Y-48600000D01*
X74000000Y-50600000D02*
X76400000Y-48200000D01*
X74000000Y-52460000D02*
X74000000Y-50600000D01*
D14*
X83000000Y-65600000D02*
X83000000Y-62800000D01*
D13*
X83000000Y-62800000D02*
X82900450Y-62700450D01*
X82900450Y-62700450D02*
X82900450Y-62565048D01*
X77891671Y-57508329D02*
X77800000Y-57600000D01*
X79806307Y-57508329D02*
X77891671Y-57508329D01*
X78499500Y-65075000D02*
X76400000Y-65075000D01*
X78499500Y-64700500D02*
X79200000Y-64000000D01*
X74000000Y-67200000D02*
X74000000Y-67700000D01*
X78499500Y-65075000D02*
X78499500Y-64700500D01*
X76400000Y-65075000D02*
X76200000Y-65075000D01*
X76400000Y-65075000D02*
X76125000Y-65075000D01*
X76125000Y-65075000D02*
X74000000Y-67200000D01*
G04 #@! TA.AperFunction,Conductor*
G36*
X96737654Y-47217228D02*
G01*
X96783731Y-47262970D01*
X96800916Y-47325578D01*
X96846112Y-53517375D01*
X96998278Y-74364269D01*
X96998280Y-74364730D01*
X96998676Y-74473541D01*
X96981949Y-74536735D01*
X96935809Y-74583043D01*
X96872677Y-74600000D01*
X71326000Y-74600000D01*
X71263000Y-74583119D01*
X71216881Y-74537000D01*
X71200000Y-74474000D01*
X71200000Y-72467766D01*
X92745787Y-72467766D01*
X92775413Y-72737015D01*
X92775414Y-72737018D01*
X92843928Y-72999088D01*
X92949870Y-73248390D01*
X93090982Y-73479610D01*
X93264255Y-73687820D01*
X93264256Y-73687821D01*
X93264258Y-73687823D01*
X93465993Y-73868578D01*
X93465995Y-73868579D01*
X93465998Y-73868582D01*
X93691910Y-74018044D01*
X93824104Y-74080014D01*
X93937171Y-74133018D01*
X93937173Y-74133018D01*
X93937176Y-74133020D01*
X94196569Y-74211060D01*
X94196572Y-74211060D01*
X94196574Y-74211061D01*
X94464558Y-74250500D01*
X94464561Y-74250500D01*
X94667630Y-74250500D01*
X94667631Y-74250500D01*
X94870156Y-74235677D01*
X95134553Y-74176780D01*
X95387558Y-74080014D01*
X95623777Y-73947441D01*
X95838177Y-73781888D01*
X96026186Y-73586881D01*
X96183799Y-73366579D01*
X96307656Y-73125675D01*
X96395118Y-72869305D01*
X96444319Y-72602933D01*
X96454212Y-72332235D01*
X96424586Y-72062982D01*
X96356072Y-71800912D01*
X96250130Y-71551610D01*
X96109018Y-71320390D01*
X95935745Y-71112180D01*
X95830444Y-71017830D01*
X95734006Y-70931421D01*
X95734003Y-70931419D01*
X95734002Y-70931418D01*
X95508090Y-70781956D01*
X95508086Y-70781954D01*
X95262828Y-70666981D01*
X95003425Y-70588938D01*
X94735442Y-70549500D01*
X94735439Y-70549500D01*
X94532369Y-70549500D01*
X94498614Y-70551970D01*
X94329839Y-70564323D01*
X94065449Y-70623219D01*
X93812441Y-70719985D01*
X93576225Y-70852557D01*
X93361820Y-71018114D01*
X93173815Y-71213117D01*
X93016200Y-71433422D01*
X92892342Y-71674328D01*
X92804882Y-71930693D01*
X92755681Y-72197065D01*
X92745787Y-72467766D01*
X71200000Y-72467766D01*
X71200000Y-70340000D01*
X72644341Y-70340000D01*
X72664937Y-70575409D01*
X72726096Y-70803663D01*
X72825965Y-71017830D01*
X72961507Y-71211404D01*
X73128595Y-71378492D01*
X73128598Y-71378494D01*
X73128599Y-71378495D01*
X73322170Y-71514035D01*
X73402750Y-71551610D01*
X73536336Y-71613903D01*
X73619881Y-71636288D01*
X73764592Y-71675063D01*
X74000000Y-71695659D01*
X74235408Y-71675063D01*
X74463663Y-71613903D01*
X74677830Y-71514035D01*
X74871401Y-71378495D01*
X75038495Y-71211401D01*
X75174035Y-71017830D01*
X75273903Y-70803663D01*
X75335063Y-70575408D01*
X75355659Y-70340000D01*
X75335063Y-70104592D01*
X75273903Y-69876337D01*
X75174035Y-69662171D01*
X75038495Y-69468599D01*
X75038494Y-69468598D01*
X75038492Y-69468595D01*
X74871404Y-69301507D01*
X74688181Y-69173213D01*
X74648689Y-69128180D01*
X74634452Y-69070000D01*
X74648689Y-69011820D01*
X74688181Y-68966787D01*
X74871401Y-68838495D01*
X75038495Y-68671401D01*
X75174035Y-68477830D01*
X75273903Y-68263663D01*
X75335063Y-68035408D01*
X75355659Y-67800000D01*
X75335063Y-67564592D01*
X75273903Y-67336337D01*
X75174035Y-67122171D01*
X75147525Y-67084310D01*
X75126069Y-67030304D01*
X75131133Y-66972409D01*
X75161639Y-66922950D01*
X76084591Y-65999999D01*
X81694540Y-65999999D01*
X81714325Y-66188257D01*
X81772820Y-66368283D01*
X81867465Y-66532214D01*
X81867467Y-66532216D01*
X81994129Y-66672888D01*
X82147270Y-66784151D01*
X82147271Y-66784151D01*
X82147272Y-66784152D01*
X82320192Y-66861142D01*
X82320197Y-66861144D01*
X82505354Y-66900500D01*
X82694644Y-66900500D01*
X82694646Y-66900500D01*
X82879803Y-66861144D01*
X83052730Y-66784151D01*
X83205871Y-66672888D01*
X83332533Y-66532216D01*
X83427179Y-66368284D01*
X83485674Y-66188256D01*
X83490137Y-66145784D01*
X83503413Y-66101297D01*
X83519533Y-66080551D01*
X83519491Y-66080522D01*
X83617984Y-65937830D01*
X83624818Y-65927930D01*
X83685140Y-65768872D01*
X83693442Y-65700500D01*
X83700500Y-65642374D01*
X83700500Y-63014082D01*
X83717380Y-62951083D01*
X83727629Y-62933332D01*
X83786124Y-62753304D01*
X83805910Y-62565048D01*
X83786124Y-62376792D01*
X83786124Y-62376790D01*
X83727629Y-62196764D01*
X83632984Y-62032833D01*
X83506320Y-61892159D01*
X83353177Y-61780895D01*
X83180257Y-61703905D01*
X83180253Y-61703904D01*
X82995096Y-61664548D01*
X82805804Y-61664548D01*
X82644466Y-61698841D01*
X82620642Y-61703905D01*
X82447722Y-61780895D01*
X82294579Y-61892159D01*
X82167915Y-62032833D01*
X82073270Y-62196764D01*
X82014775Y-62376790D01*
X81994990Y-62565047D01*
X82014775Y-62753305D01*
X82073270Y-62933331D01*
X82167915Y-63097262D01*
X82167917Y-63097264D01*
X82245711Y-63183663D01*
X82267136Y-63207457D01*
X82291131Y-63246613D01*
X82299500Y-63291768D01*
X82299500Y-65066246D01*
X82290325Y-65113446D01*
X82264137Y-65153773D01*
X82224750Y-65181352D01*
X82147270Y-65215848D01*
X81994129Y-65327111D01*
X81867465Y-65467785D01*
X81772820Y-65631716D01*
X81714325Y-65811742D01*
X81694540Y-65999999D01*
X76084591Y-65999999D01*
X76347188Y-65737402D01*
X76388063Y-65710091D01*
X76436281Y-65700500D01*
X76439350Y-65700500D01*
X78428464Y-65700500D01*
X78452074Y-65702731D01*
X78459912Y-65704227D01*
X78459912Y-65704226D01*
X78459913Y-65704227D01*
X78515195Y-65700749D01*
X78523107Y-65700500D01*
X78538848Y-65700500D01*
X78538850Y-65700500D01*
X78554478Y-65698525D01*
X78562316Y-65697784D01*
X78617638Y-65694304D01*
X78625222Y-65691839D01*
X78648372Y-65686664D01*
X78656292Y-65685664D01*
X78707823Y-65665260D01*
X78715262Y-65662583D01*
X78767938Y-65645468D01*
X78767938Y-65645467D01*
X78767941Y-65645467D01*
X78774681Y-65641189D01*
X78795806Y-65630426D01*
X78803232Y-65627486D01*
X78848080Y-65594900D01*
X78854580Y-65590483D01*
X78901377Y-65560786D01*
X78906838Y-65554969D01*
X78924631Y-65539283D01*
X78931087Y-65534594D01*
X78966418Y-65491884D01*
X78971608Y-65485997D01*
X79009562Y-65445582D01*
X79013405Y-65438589D01*
X79026735Y-65418973D01*
X79031824Y-65412823D01*
X79055423Y-65362670D01*
X79058987Y-65355675D01*
X79085697Y-65307092D01*
X79087679Y-65299369D01*
X79095716Y-65277046D01*
X79099114Y-65269826D01*
X79109501Y-65215372D01*
X79111216Y-65207700D01*
X79125000Y-65154019D01*
X79125000Y-65146036D01*
X79127232Y-65122425D01*
X79128727Y-65114586D01*
X79125249Y-65059305D01*
X79125000Y-65051393D01*
X79125000Y-65011781D01*
X79134591Y-64963564D01*
X79161904Y-64922686D01*
X79175036Y-64909553D01*
X79256133Y-64828456D01*
X79309439Y-64796742D01*
X79371421Y-64794306D01*
X79404514Y-64801340D01*
X79593804Y-64801340D01*
X79593806Y-64801340D01*
X79778963Y-64761984D01*
X79951890Y-64684991D01*
X80105031Y-64573728D01*
X80231693Y-64433056D01*
X80326339Y-64269124D01*
X80355586Y-64179110D01*
X80384834Y-64089097D01*
X80395249Y-63990000D01*
X80404620Y-63900840D01*
X80388270Y-63745280D01*
X80384834Y-63712582D01*
X80326339Y-63532556D01*
X80231694Y-63368625D01*
X80105030Y-63227951D01*
X79951887Y-63116687D01*
X79778967Y-63039697D01*
X79778963Y-63039696D01*
X79593806Y-63000340D01*
X79404514Y-63000340D01*
X79243176Y-63034633D01*
X79219352Y-63039697D01*
X79046432Y-63116687D01*
X78893289Y-63227951D01*
X78766625Y-63368625D01*
X78671981Y-63532554D01*
X78627963Y-63668024D01*
X78597225Y-63718182D01*
X78115865Y-64199542D01*
X78099728Y-64212471D01*
X78051627Y-64263692D01*
X78048878Y-64266529D01*
X78029378Y-64286030D01*
X78026966Y-64289139D01*
X78019273Y-64298145D01*
X77989437Y-64329918D01*
X77979858Y-64347342D01*
X77969008Y-64363859D01*
X77947074Y-64392138D01*
X77946798Y-64391924D01*
X77931955Y-64413523D01*
X77891405Y-64440160D01*
X77843797Y-64449500D01*
X76479019Y-64449500D01*
X76207965Y-64449500D01*
X76187407Y-64447230D01*
X76117159Y-64449438D01*
X76113201Y-64449500D01*
X76085650Y-64449500D01*
X76081756Y-64449991D01*
X76069941Y-64450921D01*
X76026370Y-64452290D01*
X76007287Y-64457835D01*
X75987927Y-64461844D01*
X75968207Y-64464335D01*
X75927674Y-64480382D01*
X75916450Y-64484225D01*
X75874608Y-64496382D01*
X75857495Y-64506502D01*
X75839753Y-64515194D01*
X75821267Y-64522514D01*
X75786014Y-64548126D01*
X75776099Y-64554639D01*
X75738580Y-64576829D01*
X75724519Y-64590889D01*
X75709494Y-64603721D01*
X75693414Y-64615404D01*
X75665634Y-64648984D01*
X75657646Y-64657762D01*
X75479111Y-64836296D01*
X75427905Y-64867368D01*
X75368136Y-64871286D01*
X75313312Y-64847163D01*
X75275821Y-64800450D01*
X75257883Y-64761982D01*
X75174035Y-64582171D01*
X75038495Y-64388599D01*
X75038494Y-64388598D01*
X75038492Y-64388595D01*
X74871404Y-64221507D01*
X74688181Y-64093213D01*
X74648689Y-64048180D01*
X74634452Y-63990000D01*
X74648689Y-63931820D01*
X74688181Y-63886787D01*
X74871401Y-63758495D01*
X75038495Y-63591401D01*
X75174035Y-63397830D01*
X75273903Y-63183663D01*
X75335063Y-62955408D01*
X75355659Y-62720000D01*
X75335063Y-62484592D01*
X75273903Y-62256337D01*
X75174035Y-62042171D01*
X75038495Y-61848599D01*
X75038494Y-61848598D01*
X75038492Y-61848595D01*
X74871404Y-61681507D01*
X74688181Y-61553213D01*
X74648689Y-61508180D01*
X74634452Y-61450000D01*
X74648689Y-61391820D01*
X74688181Y-61346787D01*
X74871401Y-61218495D01*
X75038495Y-61051401D01*
X75174035Y-60857830D01*
X75273903Y-60643663D01*
X75335063Y-60415408D01*
X75355659Y-60180000D01*
X75335063Y-59944592D01*
X75273903Y-59716337D01*
X75174035Y-59502171D01*
X75038495Y-59308599D01*
X75038494Y-59308598D01*
X75038492Y-59308595D01*
X74871404Y-59141507D01*
X74688181Y-59013213D01*
X74648689Y-58968180D01*
X74634452Y-58910000D01*
X74648689Y-58851820D01*
X74688181Y-58806787D01*
X74871401Y-58678495D01*
X75038495Y-58511401D01*
X75174035Y-58317830D01*
X75273903Y-58103663D01*
X75335063Y-57875408D01*
X75355659Y-57640000D01*
X75352159Y-57600000D01*
X76894540Y-57600000D01*
X76914325Y-57788257D01*
X76972820Y-57968283D01*
X77067465Y-58132214D01*
X77067467Y-58132216D01*
X77194129Y-58272888D01*
X77347270Y-58384151D01*
X77347271Y-58384151D01*
X77347272Y-58384152D01*
X77520192Y-58461142D01*
X77520197Y-58461144D01*
X77705354Y-58500500D01*
X77894644Y-58500500D01*
X77894646Y-58500500D01*
X78079803Y-58461144D01*
X78252730Y-58384151D01*
X78405871Y-58272888D01*
X78488412Y-58181218D01*
X78493544Y-58175518D01*
X78535931Y-58144722D01*
X78587180Y-58133829D01*
X79101669Y-58133829D01*
X79152918Y-58144723D01*
X79195304Y-58175518D01*
X79200436Y-58181217D01*
X79353577Y-58292480D01*
X79353578Y-58292480D01*
X79353579Y-58292481D01*
X79526499Y-58369471D01*
X79526504Y-58369473D01*
X79711661Y-58408829D01*
X79900951Y-58408829D01*
X79900953Y-58408829D01*
X80086110Y-58369473D01*
X80259037Y-58292480D01*
X80412178Y-58181217D01*
X80538840Y-58040545D01*
X80633486Y-57876613D01*
X80691981Y-57696585D01*
X80702132Y-57600000D01*
X87494352Y-57600000D01*
X87514834Y-57742456D01*
X87535751Y-57788256D01*
X87574623Y-57873373D01*
X87656863Y-57968284D01*
X87668873Y-57982144D01*
X87729409Y-58021048D01*
X87789947Y-58059953D01*
X87887490Y-58088594D01*
X87928038Y-58100500D01*
X87928039Y-58100500D01*
X88071961Y-58100500D01*
X88071962Y-58100500D01*
X88103305Y-58091296D01*
X88210053Y-58059953D01*
X88331128Y-57982143D01*
X88425377Y-57873373D01*
X88485165Y-57742457D01*
X88505647Y-57600000D01*
X88485165Y-57457543D01*
X88425377Y-57326627D01*
X88331128Y-57217857D01*
X88331127Y-57217856D01*
X88331126Y-57217855D01*
X88210053Y-57140047D01*
X88071962Y-57099500D01*
X88071961Y-57099500D01*
X87928039Y-57099500D01*
X87928038Y-57099500D01*
X87789946Y-57140047D01*
X87668873Y-57217855D01*
X87574622Y-57326628D01*
X87514834Y-57457543D01*
X87494352Y-57600000D01*
X80702132Y-57600000D01*
X80711767Y-57508329D01*
X80691981Y-57320073D01*
X80691981Y-57320071D01*
X80633486Y-57140045D01*
X80538841Y-56976114D01*
X80433179Y-56858765D01*
X80412178Y-56835441D01*
X80412175Y-56835439D01*
X80284196Y-56742457D01*
X80259037Y-56724178D01*
X80259036Y-56724177D01*
X80259034Y-56724176D01*
X80086114Y-56647186D01*
X80086110Y-56647185D01*
X79900953Y-56607829D01*
X79711661Y-56607829D01*
X79550323Y-56642122D01*
X79526499Y-56647186D01*
X79353579Y-56724176D01*
X79200437Y-56835439D01*
X79195306Y-56841139D01*
X79152918Y-56871935D01*
X79101669Y-56882829D01*
X78385860Y-56882829D01*
X78346924Y-56876662D01*
X78311799Y-56858765D01*
X78252727Y-56815847D01*
X78079807Y-56738857D01*
X78079803Y-56738856D01*
X77894646Y-56699500D01*
X77705354Y-56699500D01*
X77544016Y-56733793D01*
X77520192Y-56738857D01*
X77347272Y-56815847D01*
X77194129Y-56927111D01*
X77067465Y-57067785D01*
X76972820Y-57231716D01*
X76914325Y-57411742D01*
X76894540Y-57600000D01*
X75352159Y-57600000D01*
X75335063Y-57404592D01*
X75273903Y-57176337D01*
X75174035Y-56962171D01*
X75038495Y-56768599D01*
X75038494Y-56768598D01*
X75038492Y-56768595D01*
X74871404Y-56601507D01*
X74869250Y-56599999D01*
X85894352Y-56599999D01*
X85914834Y-56742456D01*
X85948351Y-56815847D01*
X85974623Y-56873373D01*
X86063647Y-56976113D01*
X86068873Y-56982144D01*
X86129409Y-57021047D01*
X86189947Y-57059953D01*
X86287491Y-57088594D01*
X86328038Y-57100500D01*
X86328039Y-57100500D01*
X86471961Y-57100500D01*
X86471962Y-57100500D01*
X86503305Y-57091296D01*
X86610053Y-57059953D01*
X86731128Y-56982143D01*
X86825377Y-56873373D01*
X86885165Y-56742457D01*
X86905647Y-56600000D01*
X86885165Y-56457543D01*
X86825377Y-56326627D01*
X86731128Y-56217857D01*
X86731127Y-56217856D01*
X86731126Y-56217855D01*
X86610053Y-56140047D01*
X86471962Y-56099500D01*
X86471961Y-56099500D01*
X86328039Y-56099500D01*
X86328038Y-56099500D01*
X86189946Y-56140047D01*
X86068873Y-56217855D01*
X85974622Y-56326628D01*
X85914834Y-56457543D01*
X85894352Y-56599999D01*
X74869250Y-56599999D01*
X74688181Y-56473213D01*
X74648689Y-56428180D01*
X74634452Y-56370000D01*
X74648689Y-56311820D01*
X74688181Y-56266787D01*
X74758063Y-56217855D01*
X74871401Y-56138495D01*
X75038495Y-55971401D01*
X75174035Y-55777830D01*
X75273903Y-55563663D01*
X75335063Y-55335408D01*
X75355659Y-55100000D01*
X75335063Y-54864592D01*
X75273903Y-54636337D01*
X75174035Y-54422171D01*
X75038495Y-54228599D01*
X75038494Y-54228598D01*
X75038492Y-54228595D01*
X74918381Y-54108484D01*
X74886580Y-54054887D01*
X74884356Y-53992605D01*
X74912252Y-53936875D01*
X74963445Y-53901333D01*
X75092087Y-53853353D01*
X75163358Y-53800000D01*
X87094352Y-53800000D01*
X87114834Y-53942456D01*
X87169203Y-54061505D01*
X87174623Y-54073373D01*
X87205047Y-54108484D01*
X87268873Y-54182144D01*
X87329409Y-54221047D01*
X87389947Y-54259953D01*
X87487490Y-54288594D01*
X87528038Y-54300500D01*
X87528039Y-54300500D01*
X87671961Y-54300500D01*
X87671962Y-54300500D01*
X87703305Y-54291296D01*
X87810053Y-54259953D01*
X87931128Y-54182143D01*
X88025377Y-54073373D01*
X88085165Y-53942457D01*
X88105647Y-53800000D01*
X88085165Y-53657543D01*
X88025377Y-53526627D01*
X87931128Y-53417857D01*
X87931127Y-53417856D01*
X87931126Y-53417855D01*
X87810053Y-53340047D01*
X87671962Y-53299500D01*
X87671961Y-53299500D01*
X87528039Y-53299500D01*
X87528038Y-53299500D01*
X87389946Y-53340047D01*
X87268873Y-53417855D01*
X87174622Y-53526628D01*
X87114834Y-53657543D01*
X87094352Y-53800000D01*
X75163358Y-53800000D01*
X75207189Y-53767189D01*
X75293353Y-53652088D01*
X75343597Y-53517375D01*
X75350000Y-53457828D01*
X75350000Y-52810000D01*
X72650000Y-52810000D01*
X72650000Y-53457828D01*
X72656402Y-53517375D01*
X72706646Y-53652088D01*
X72792810Y-53767189D01*
X72907912Y-53853353D01*
X73036554Y-53901333D01*
X73087747Y-53936876D01*
X73115643Y-53992605D01*
X73113419Y-54054887D01*
X73081619Y-54108484D01*
X72961505Y-54228598D01*
X72825965Y-54422170D01*
X72726096Y-54636337D01*
X72664937Y-54864590D01*
X72644341Y-55100000D01*
X72664937Y-55335409D01*
X72726096Y-55563663D01*
X72825965Y-55777830D01*
X72961507Y-55971404D01*
X73128595Y-56138492D01*
X73128598Y-56138494D01*
X73128599Y-56138495D01*
X73138802Y-56145639D01*
X73311819Y-56266787D01*
X73351311Y-56311820D01*
X73365548Y-56370000D01*
X73351311Y-56428180D01*
X73311819Y-56473213D01*
X73128595Y-56601507D01*
X72961507Y-56768595D01*
X72825965Y-56962170D01*
X72726096Y-57176337D01*
X72664937Y-57404590D01*
X72644341Y-57640000D01*
X72664937Y-57875409D01*
X72726096Y-58103663D01*
X72825965Y-58317830D01*
X72961507Y-58511404D01*
X73128595Y-58678492D01*
X73311819Y-58806787D01*
X73351311Y-58851820D01*
X73365548Y-58910000D01*
X73351311Y-58968180D01*
X73311819Y-59013213D01*
X73128595Y-59141507D01*
X72961507Y-59308595D01*
X72825965Y-59502170D01*
X72726096Y-59716337D01*
X72664937Y-59944590D01*
X72644341Y-60179999D01*
X72664937Y-60415409D01*
X72726096Y-60643663D01*
X72825965Y-60857830D01*
X72961507Y-61051404D01*
X73128595Y-61218492D01*
X73311819Y-61346787D01*
X73351311Y-61391820D01*
X73365548Y-61450000D01*
X73351311Y-61508180D01*
X73311819Y-61553213D01*
X73128595Y-61681507D01*
X72961507Y-61848595D01*
X72825965Y-62042170D01*
X72726096Y-62256337D01*
X72664937Y-62484590D01*
X72644341Y-62720000D01*
X72664937Y-62955409D01*
X72726096Y-63183663D01*
X72825965Y-63397830D01*
X72961507Y-63591404D01*
X73128595Y-63758492D01*
X73311819Y-63886787D01*
X73351311Y-63931820D01*
X73365548Y-63990000D01*
X73351311Y-64048180D01*
X73311819Y-64093213D01*
X73128595Y-64221507D01*
X72961507Y-64388595D01*
X72825965Y-64582170D01*
X72726096Y-64796337D01*
X72664937Y-65024590D01*
X72644341Y-65260000D01*
X72664937Y-65495409D01*
X72726096Y-65723663D01*
X72825965Y-65937830D01*
X72961507Y-66131404D01*
X73128595Y-66298492D01*
X73128598Y-66298494D01*
X73128599Y-66298495D01*
X73228268Y-66368284D01*
X73311819Y-66426787D01*
X73351311Y-66471820D01*
X73365548Y-66530000D01*
X73351311Y-66588180D01*
X73311819Y-66633213D01*
X73128595Y-66761507D01*
X72961507Y-66928595D01*
X72825965Y-67122170D01*
X72726096Y-67336337D01*
X72664937Y-67564590D01*
X72644341Y-67800000D01*
X72664937Y-68035409D01*
X72726096Y-68263663D01*
X72825965Y-68477830D01*
X72961507Y-68671404D01*
X73128595Y-68838492D01*
X73311819Y-68966787D01*
X73351311Y-69011820D01*
X73365548Y-69070000D01*
X73351311Y-69128180D01*
X73311819Y-69173213D01*
X73128595Y-69301507D01*
X72961507Y-69468595D01*
X72825965Y-69662170D01*
X72726096Y-69876337D01*
X72664937Y-70104590D01*
X72644341Y-70340000D01*
X71200000Y-70340000D01*
X71200000Y-52599999D01*
X84094352Y-52599999D01*
X84114834Y-52742456D01*
X84141114Y-52799999D01*
X84174623Y-52873373D01*
X84264846Y-52977497D01*
X84268873Y-52982144D01*
X84329409Y-53021047D01*
X84389947Y-53059953D01*
X84487491Y-53088594D01*
X84528038Y-53100500D01*
X84528039Y-53100500D01*
X84671961Y-53100500D01*
X84671962Y-53100500D01*
X84703305Y-53091296D01*
X84810053Y-53059953D01*
X84931128Y-52982143D01*
X85025377Y-52873373D01*
X85058886Y-52799999D01*
X87994352Y-52799999D01*
X88014834Y-52942456D01*
X88065940Y-53054361D01*
X88074623Y-53073373D01*
X88164846Y-53177497D01*
X88168873Y-53182144D01*
X88229409Y-53221048D01*
X88289947Y-53259953D01*
X88387491Y-53288594D01*
X88428038Y-53300500D01*
X88428039Y-53300500D01*
X88571961Y-53300500D01*
X88571962Y-53300500D01*
X88603305Y-53291296D01*
X88710053Y-53259953D01*
X88831128Y-53182143D01*
X88925377Y-53073373D01*
X88985165Y-52942457D01*
X89005647Y-52800000D01*
X88985165Y-52657543D01*
X88925377Y-52526627D01*
X88831128Y-52417857D01*
X88831127Y-52417856D01*
X88831126Y-52417855D01*
X88710053Y-52340047D01*
X88571962Y-52299500D01*
X88571961Y-52299500D01*
X88428039Y-52299500D01*
X88428038Y-52299500D01*
X88289946Y-52340047D01*
X88168873Y-52417855D01*
X88074622Y-52526628D01*
X88014834Y-52657543D01*
X87994352Y-52799999D01*
X85058886Y-52799999D01*
X85085165Y-52742457D01*
X85105647Y-52600000D01*
X85095575Y-52529950D01*
X85085165Y-52457543D01*
X85085164Y-52457542D01*
X85025377Y-52326627D01*
X84931128Y-52217857D01*
X84931127Y-52217856D01*
X84931126Y-52217855D01*
X84810053Y-52140047D01*
X84671962Y-52099500D01*
X84671961Y-52099500D01*
X84528039Y-52099500D01*
X84528038Y-52099500D01*
X84389946Y-52140047D01*
X84268873Y-52217855D01*
X84174622Y-52326628D01*
X84114834Y-52457543D01*
X84094352Y-52599999D01*
X71200000Y-52599999D01*
X71200000Y-52310000D01*
X72650000Y-52310000D01*
X73750000Y-52310000D01*
X73750000Y-51210000D01*
X74250000Y-51210000D01*
X74250000Y-52310000D01*
X75350000Y-52310000D01*
X75350000Y-51662172D01*
X75343597Y-51602624D01*
X75293353Y-51467911D01*
X75207189Y-51352810D01*
X75092088Y-51266646D01*
X74957375Y-51216402D01*
X74897828Y-51210000D01*
X74250000Y-51210000D01*
X73750000Y-51210000D01*
X73102172Y-51210000D01*
X73042624Y-51216402D01*
X72907911Y-51266646D01*
X72792810Y-51352810D01*
X72706646Y-51467911D01*
X72656402Y-51602624D01*
X72650000Y-51662172D01*
X72650000Y-52310000D01*
X71200000Y-52310000D01*
X71200000Y-49467766D01*
X92745787Y-49467766D01*
X92775413Y-49737015D01*
X92775414Y-49737018D01*
X92843928Y-49999088D01*
X92949870Y-50248390D01*
X93090982Y-50479610D01*
X93264255Y-50687820D01*
X93264256Y-50687821D01*
X93264258Y-50687823D01*
X93465993Y-50868578D01*
X93465995Y-50868579D01*
X93465998Y-50868582D01*
X93691910Y-51018044D01*
X93824104Y-51080014D01*
X93937171Y-51133018D01*
X93937173Y-51133018D01*
X93937176Y-51133020D01*
X94196569Y-51211060D01*
X94196572Y-51211060D01*
X94196574Y-51211061D01*
X94464558Y-51250500D01*
X94464561Y-51250500D01*
X94667630Y-51250500D01*
X94667631Y-51250500D01*
X94870156Y-51235677D01*
X95134553Y-51176780D01*
X95387558Y-51080014D01*
X95623777Y-50947441D01*
X95838177Y-50781888D01*
X96026186Y-50586881D01*
X96183799Y-50366579D01*
X96307656Y-50125675D01*
X96395118Y-49869305D01*
X96444319Y-49602933D01*
X96454212Y-49332235D01*
X96424586Y-49062982D01*
X96356072Y-48800912D01*
X96250130Y-48551610D01*
X96109018Y-48320390D01*
X95935745Y-48112180D01*
X95830759Y-48018112D01*
X95734006Y-47931421D01*
X95734003Y-47931419D01*
X95734002Y-47931418D01*
X95508090Y-47781956D01*
X95508086Y-47781954D01*
X95262828Y-47666981D01*
X95003425Y-47588938D01*
X94735442Y-47549500D01*
X94735439Y-47549500D01*
X94532369Y-47549500D01*
X94498614Y-47551970D01*
X94329839Y-47564323D01*
X94065449Y-47623219D01*
X93812441Y-47719985D01*
X93576225Y-47852557D01*
X93361820Y-48018114D01*
X93173815Y-48213117D01*
X93016200Y-48433422D01*
X92892342Y-48674328D01*
X92804882Y-48930693D01*
X92755681Y-49197065D01*
X92745787Y-49467766D01*
X71200000Y-49467766D01*
X71200000Y-47326500D01*
X71216881Y-47263500D01*
X71263000Y-47217381D01*
X71326000Y-47200500D01*
X96674920Y-47200500D01*
X96737654Y-47217228D01*
G37*
G04 #@! TD.AperFunction*
M02*
