G04 #@! TF.GenerationSoftware,KiCad,Pcbnew,7.0.1*
G04 #@! TF.CreationDate,2023-04-20T14:55:02+02:00*
G04 #@! TF.ProjectId,MPU,4d50552e-6b69-4636-9164-5f7063625858,version_01*
G04 #@! TF.SameCoordinates,Original*
G04 #@! TF.FileFunction,Copper,L1,Top*
G04 #@! TF.FilePolarity,Positive*
%FSLAX46Y46*%
G04 Gerber Fmt 4.6, Leading zero omitted, Abs format (unit mm)*
G04 Created by KiCad (PCBNEW 7.0.1) date 2023-04-20 14:55:02*
%MOMM*%
%LPD*%
G01*
G04 APERTURE LIST*
G04 Aperture macros list*
%AMRoundRect*
0 Rectangle with rounded corners*
0 $1 Rounding radius*
0 $2 $3 $4 $5 $6 $7 $8 $9 X,Y pos of 4 corners*
0 Add a 4 corners polygon primitive as box body*
4,1,4,$2,$3,$4,$5,$6,$7,$8,$9,$2,$3,0*
0 Add four circle primitives for the rounded corners*
1,1,$1+$1,$2,$3*
1,1,$1+$1,$4,$5*
1,1,$1+$1,$6,$7*
1,1,$1+$1,$8,$9*
0 Add four rect primitives between the rounded corners*
20,1,$1+$1,$2,$3,$4,$5,0*
20,1,$1+$1,$4,$5,$6,$7,0*
20,1,$1+$1,$6,$7,$8,$9,0*
20,1,$1+$1,$8,$9,$2,$3,0*%
G04 Aperture macros list end*
G04 #@! TA.AperFunction,SMDPad,CuDef*
%ADD10R,2.000000X1.500000*%
G04 #@! TD*
G04 #@! TA.AperFunction,SMDPad,CuDef*
%ADD11R,2.000000X3.800000*%
G04 #@! TD*
G04 #@! TA.AperFunction,SMDPad,CuDef*
%ADD12RoundRect,0.094000X-0.416000X0.376000X-0.416000X-0.376000X0.416000X-0.376000X0.416000X0.376000X0*%
G04 #@! TD*
G04 #@! TA.AperFunction,SMDPad,CuDef*
%ADD13R,1.470000X0.970000*%
G04 #@! TD*
G04 #@! TA.AperFunction,SMDPad,CuDef*
%ADD14R,0.970000X1.470000*%
G04 #@! TD*
G04 #@! TA.AperFunction,SMDPad,CuDef*
%ADD15RoundRect,0.094000X0.376000X0.416000X-0.376000X0.416000X-0.376000X-0.416000X0.376000X-0.416000X0*%
G04 #@! TD*
G04 #@! TA.AperFunction,SMDPad,CuDef*
%ADD16RoundRect,0.075000X-0.350000X-0.075000X0.350000X-0.075000X0.350000X0.075000X-0.350000X0.075000X0*%
G04 #@! TD*
G04 #@! TA.AperFunction,SMDPad,CuDef*
%ADD17RoundRect,0.075000X0.075000X-0.350000X0.075000X0.350000X-0.075000X0.350000X-0.075000X-0.350000X0*%
G04 #@! TD*
G04 #@! TA.AperFunction,ComponentPad*
%ADD18O,1.700000X1.700000*%
G04 #@! TD*
G04 #@! TA.AperFunction,ComponentPad*
%ADD19R,1.700000X1.700000*%
G04 #@! TD*
G04 #@! TA.AperFunction,ViaPad*
%ADD20C,0.800000*%
G04 #@! TD*
G04 #@! TA.AperFunction,Conductor*
%ADD21C,0.250000*%
G04 #@! TD*
G04 #@! TA.AperFunction,Conductor*
%ADD22C,0.400000*%
G04 #@! TD*
G04 APERTURE END LIST*
D10*
X90750000Y-53100000D03*
D11*
X84450000Y-55400000D03*
D10*
X90750000Y-55400000D03*
X90750000Y-57700000D03*
D12*
X77600000Y-64600000D03*
X77600000Y-66180000D03*
D13*
X78600000Y-52570000D03*
X78600000Y-54230000D03*
D12*
X81800000Y-69990000D03*
X81800000Y-68410000D03*
D14*
X87370000Y-67200000D03*
X89030000Y-67200000D03*
D13*
X84400000Y-65600000D03*
X84400000Y-67260000D03*
D12*
X81400000Y-54800000D03*
X81400000Y-56380000D03*
D14*
X79970000Y-65600000D03*
X81630000Y-65600000D03*
D15*
X79390000Y-56400000D03*
X77810000Y-56400000D03*
D13*
X77600000Y-68200000D03*
X77600000Y-69860000D03*
D16*
X77650000Y-59350000D03*
X77650000Y-59850000D03*
X77650000Y-60350000D03*
X77650000Y-60850000D03*
X77650000Y-61350000D03*
X77650000Y-61850000D03*
D17*
X78350000Y-62550000D03*
X78850000Y-62550000D03*
X79350000Y-62550000D03*
X79850000Y-62550000D03*
X80350000Y-62550000D03*
X80850000Y-62550000D03*
D16*
X81550000Y-61850000D03*
X81550000Y-61350000D03*
X81550000Y-60850000D03*
X81550000Y-60350000D03*
X81550000Y-59850000D03*
X81550000Y-59350000D03*
D17*
X80850000Y-58650000D03*
X80350000Y-58650000D03*
X79850000Y-58650000D03*
X79350000Y-58650000D03*
X78850000Y-58650000D03*
X78350000Y-58650000D03*
D14*
X87370000Y-62800000D03*
X89030000Y-62800000D03*
D18*
X74000000Y-70340000D03*
X74000000Y-67800000D03*
X74000000Y-65260000D03*
X74000000Y-62720000D03*
X74000000Y-60180000D03*
X74000000Y-57640000D03*
X74000000Y-55100000D03*
D19*
X74000000Y-52560000D03*
D13*
X84400000Y-60770000D03*
X84400000Y-62430000D03*
D20*
X79499160Y-63900840D03*
X81000000Y-67000000D03*
X82600000Y-66000000D03*
X82900450Y-62565048D03*
X76800000Y-54800000D03*
X76400000Y-64000000D03*
X76400000Y-59350000D03*
X86000000Y-62400000D03*
X79400000Y-68600000D03*
X81400000Y-63600000D03*
X82800000Y-60000000D03*
X87600000Y-69200000D03*
X85000000Y-68600000D03*
X77800000Y-57600000D03*
X79806307Y-57508329D03*
D21*
X77159315Y-61850000D02*
X77650000Y-61850000D01*
X77109315Y-61800000D02*
X77159315Y-61850000D01*
X74820000Y-61800000D02*
X77109315Y-61800000D01*
X74000000Y-62620000D02*
X74820000Y-61800000D01*
X76260000Y-63000000D02*
X74000000Y-65260000D01*
X78350000Y-62904289D02*
X78254289Y-63000000D01*
X78350000Y-62550000D02*
X78350000Y-62904289D01*
X78254289Y-63000000D02*
X76260000Y-63000000D01*
X90750000Y-51750000D02*
X90750000Y-53100000D01*
X82200000Y-51000000D02*
X90000000Y-51000000D01*
X80630000Y-52570000D02*
X82200000Y-51000000D01*
X78600000Y-52570000D02*
X80630000Y-52570000D01*
X90000000Y-51000000D02*
X90750000Y-51750000D01*
X76530000Y-52570000D02*
X78600000Y-52570000D01*
X74000000Y-55100000D02*
X76530000Y-52570000D01*
D22*
X87245500Y-64800000D02*
X89030000Y-64800000D01*
X83200000Y-63200000D02*
X83400000Y-63400000D01*
X83400000Y-63400000D02*
X85845500Y-63400000D01*
X83200000Y-62832088D02*
X83200000Y-63200000D01*
X85845500Y-63400000D02*
X87245500Y-64800000D01*
X82217912Y-61850000D02*
X83200000Y-62832088D01*
X82185402Y-61850000D02*
X82217912Y-61850000D01*
D21*
X90750000Y-58050000D02*
X90750000Y-57700000D01*
X88200000Y-60600000D02*
X90750000Y-58050000D01*
X86000000Y-61000000D02*
X86400000Y-60600000D01*
X86400000Y-60600000D02*
X88200000Y-60600000D01*
X86000000Y-62400000D02*
X86000000Y-61000000D01*
X80350000Y-58159315D02*
X80350000Y-58650000D01*
X80609315Y-57900000D02*
X80350000Y-58159315D01*
X82700000Y-57900000D02*
X80609315Y-57900000D01*
X84400000Y-59600000D02*
X82700000Y-57900000D01*
X84400000Y-60770000D02*
X84400000Y-59600000D01*
X87000000Y-62430000D02*
X84400000Y-62430000D01*
X87370000Y-62800000D02*
X87000000Y-62430000D01*
X78600000Y-63290685D02*
X78600000Y-66100000D01*
X79400000Y-63600000D02*
X79499160Y-63699160D01*
X79499160Y-63699160D02*
X79499160Y-63900840D01*
X79350000Y-63550000D02*
X79400000Y-63600000D01*
X79350000Y-62550000D02*
X79350000Y-63550000D01*
X81162919Y-64540000D02*
X79850000Y-63227081D01*
X79850000Y-63227081D02*
X79850000Y-62550000D01*
X83340000Y-64540000D02*
X81162919Y-64540000D01*
X84400000Y-65600000D02*
X83340000Y-64540000D01*
X87600000Y-67430000D02*
X87370000Y-67200000D01*
X87600000Y-69200000D02*
X87600000Y-67430000D01*
X78850000Y-63040685D02*
X78850000Y-62550000D01*
X78600000Y-63290685D02*
X78850000Y-63040685D01*
X80800000Y-67000000D02*
X81000000Y-67000000D01*
X79970000Y-66170000D02*
X80800000Y-67000000D01*
X79970000Y-65600000D02*
X79970000Y-66170000D01*
D22*
X81800000Y-68410000D02*
X82400000Y-68410000D01*
X80800000Y-55000000D02*
X80800000Y-54800000D01*
X92400000Y-55400000D02*
X90750000Y-55400000D01*
D21*
X81550000Y-61850000D02*
X82185402Y-61850000D01*
D22*
X89030000Y-64800000D02*
X89030000Y-67200000D01*
X81400000Y-54800000D02*
X82000000Y-55400000D01*
D21*
X82600000Y-66000000D02*
X82200000Y-65600000D01*
D22*
X80910000Y-68410000D02*
X81800000Y-68410000D01*
D21*
X82200000Y-65600000D02*
X81630000Y-65600000D01*
X82800000Y-66200000D02*
X82600000Y-66000000D01*
D22*
X90600000Y-62800000D02*
X92600000Y-60800000D01*
X80800000Y-54800000D02*
X81400000Y-54800000D01*
X79400000Y-56400000D02*
X80800000Y-55000000D01*
X78600000Y-66100000D02*
X80910000Y-68410000D01*
X92600000Y-55600000D02*
X92400000Y-55400000D01*
D21*
X79390000Y-56400000D02*
X79400000Y-56400000D01*
D22*
X92600000Y-60800000D02*
X92600000Y-55600000D01*
X82590000Y-68410000D02*
X82800000Y-68200000D01*
X89030000Y-62800000D02*
X90600000Y-62800000D01*
X82400000Y-68410000D02*
X82590000Y-68410000D01*
X90522544Y-55627456D02*
X84677456Y-55627456D01*
X82000000Y-55400000D02*
X84450000Y-55400000D01*
X82400000Y-68410000D02*
X82610000Y-68410000D01*
X89030000Y-62800000D02*
X89030000Y-64800000D01*
D21*
X84677456Y-55627456D02*
X84450000Y-55400000D01*
D22*
X82800000Y-68200000D02*
X82800000Y-66200000D01*
D21*
X90750000Y-55400000D02*
X90522544Y-55627456D01*
X81800000Y-69990000D02*
X81670000Y-69860000D01*
X81670000Y-69860000D02*
X77600000Y-69860000D01*
X80350000Y-63090685D02*
X80859315Y-63600000D01*
X80350000Y-62550000D02*
X80350000Y-63090685D01*
X77600000Y-68200000D02*
X79000000Y-68200000D01*
X77600000Y-64600000D02*
X76800000Y-64600000D01*
X76800000Y-54600000D02*
X76800000Y-54800000D01*
X76400000Y-64200000D02*
X76400000Y-64000000D01*
X77650000Y-59350000D02*
X76400000Y-59350000D01*
X76800000Y-64600000D02*
X76400000Y-64200000D01*
X80859315Y-63600000D02*
X81200000Y-63600000D01*
X82800000Y-59800000D02*
X82800000Y-60000000D01*
X82350000Y-59350000D02*
X82800000Y-59800000D01*
X84400000Y-68000000D02*
X85000000Y-68600000D01*
X81550000Y-59350000D02*
X82350000Y-59350000D01*
X79000000Y-68200000D02*
X79200000Y-68400000D01*
X84400000Y-67260000D02*
X84400000Y-68000000D01*
X81200000Y-63600000D02*
X81400000Y-63600000D01*
X77170000Y-54230000D02*
X76800000Y-54600000D01*
X79200000Y-68400000D02*
X79400000Y-68600000D01*
X78600000Y-54230000D02*
X77170000Y-54230000D01*
X78000000Y-56400000D02*
X77810000Y-56400000D01*
X78850000Y-58650000D02*
X78850000Y-57250000D01*
X74000000Y-57540000D02*
X75460000Y-57540000D01*
X78850000Y-57250000D02*
X78000000Y-56400000D01*
X75460000Y-57540000D02*
X76600000Y-56400000D01*
X76724500Y-56400000D02*
X77810000Y-56400000D01*
X81400000Y-57400000D02*
X80000000Y-57400000D01*
X78000000Y-57600000D02*
X78400000Y-58000000D01*
X79914636Y-57400000D02*
X79806307Y-57508329D01*
X80000000Y-57400000D02*
X79914636Y-57400000D01*
X76480000Y-57600000D02*
X74000000Y-60080000D01*
X78350000Y-58050000D02*
X78350000Y-58650000D01*
X77800000Y-57600000D02*
X76480000Y-57600000D01*
X77800000Y-57600000D02*
X78000000Y-57600000D01*
X81400000Y-56380000D02*
X81400000Y-57400000D01*
X78400000Y-58000000D02*
X78350000Y-58050000D01*
X77600000Y-66180000D02*
X77020000Y-66180000D01*
X77020000Y-66180000D02*
X76400000Y-66800000D01*
X76400000Y-66800000D02*
X75500000Y-67700000D01*
X75500000Y-67700000D02*
X74000000Y-67700000D01*
X74960000Y-71200000D02*
X74000000Y-70240000D01*
X85490000Y-64090000D02*
X86200000Y-64800000D01*
X82175450Y-62550000D02*
X82175450Y-63111846D01*
X86200000Y-71200000D02*
X74960000Y-71200000D01*
X83153604Y-64090000D02*
X85490000Y-64090000D01*
X82175450Y-63111846D02*
X83153604Y-64090000D01*
X80850000Y-62550000D02*
X82175450Y-62550000D01*
X86200000Y-64800000D02*
X86200000Y-71200000D01*
M02*
